SplineFontDB: 3.2
FontName: telugu115
FullName: telugu115
FamilyName: telugu115
Weight: Regular
Copyright: Copyright 2022 The Noto Project Authors (https://github.com/notofonts/telugu)
Version: 2.003
ItalicAngle: 0
UnderlinePosition: -125
UnderlineWidth: 50
Ascent: 800
Descent: 200
InvalidEm: 0
sfntRevision: 0x000200c5
LayerCount: 2
Layer: 0 1 "Back" 1
Layer: 1 1 "Fore" 0
XUID: [1021 467 -1121320856 9400805]
StyleMap: 0x0040
FSType: 0
OS2Version: 4
OS2_WeightWidthSlopeOnly: 0
OS2_UseTypoMetrics: 1
CreationTime: 1554112134
ModificationTime: 1742466648
PfmFamily: 81
TTFWeight: 400
TTFWidth: 5
LineGap: 0
VLineGap: 0
Panose: 0 0 0 0 0 0 0 0 0 0
OS2TypoAscent: 869
OS2TypoAOffset: 0
OS2TypoDescent: -483
OS2TypoDOffset: 0
OS2TypoLinegap: 0
OS2WinAscent: 869
OS2WinAOffset: 0
OS2WinDescent: 483
OS2WinDOffset: 0
HheadAscent: 869
HheadAOffset: 0
HheadDescent: -483
HheadDOffset: 0
OS2SubXSize: 650
OS2SubYSize: 600
OS2SubXOff: 0
OS2SubYOff: 75
OS2SupXSize: 650
OS2SupYSize: 600
OS2SupXOff: 0
OS2SupYOff: 350
OS2StrikeYSize: 50
OS2StrikeYPos: 300
OS2CapHeight: 620
OS2XHeight: 500
OS2Vendor: 'GOOG'
OS2CodePages: 00000093.00000000
OS2UnicodeRanges: 80208003.00002042.00000000.00000000
MarkAttachClasses: 2

StartChar: exclam.telu
Encoding: 33 33 3
Width: 167
Flags: W
LayerCount: 2
Fore
SplineSet
81 112 m 0,0,1
 65 112 65 112 56 123 c 128,-1,2
 47 134 47 134 42.5 161 c 128,-1,3
 38 188 38 188 37 233.5 c 128,-1,4
 36 279 36 279 36 348 c 0,5,6
 36 445 36 445 37 499 c 128,-1,7
 38 553 38 553 44 579 c 128,-1,8
 50 605 50 605 62.5 610.5 c 128,-1,9
 75 616 75 616 98 616 c 0,10,11
 110 616 110 616 117 609 c 128,-1,12
 124 602 124 602 128.5 579 c 128,-1,13
 133 556 133 556 134.5 511 c 128,-1,14
 136 466 136 466 136 389 c 0,15,16
 136 249 136 249 126 180.5 c 128,-1,17
 116 112 116 112 81 112 c 0,0,1
68 593 m 0,18,19
 64 593 64 593 58 581 c 128,-1,20
 52 569 52 569 52 544 c 0,21,22
 52 531 52 531 53.5 518.5 c 128,-1,23
 55 506 55 506 62 506 c 0,24,25
 68 506 68 506 70 510 c 128,-1,26
 72 514 72 514 72 519.5 c 128,-1,27
 72 525 72 525 71.5 532 c 128,-1,28
 71 539 71 539 71 545 c 0,29,30
 72 562 72 562 74 577.5 c 128,-1,31
 76 593 76 593 68 593 c 0,18,19
82 -8 m 0,32,33
 63 -8 63 -8 51.5 4.5 c 128,-1,34
 40 17 40 17 40 38 c 0,35,36
 40 57 40 57 50 73.5 c 128,-1,37
 60 90 60 90 82 90 c 0,38,39
 105 90 105 90 117 74.5 c 128,-1,40
 129 59 129 59 129 38 c 0,41,42
 129 15 129 15 115.5 3.5 c 128,-1,43
 102 -8 102 -8 82 -8 c 0,32,33
64 44 m 0,44,45
 65 55 65 55 69 64 c 128,-1,46
 73 73 73 73 68 73 c 0,47,48
 61 73 61 73 56.5 58.5 c 128,-1,49
 52 44 52 44 52 33 c 0,50,51
 52 23 52 23 57 23 c 0,52,53
 61 23 61 23 62 30.5 c 128,-1,54
 63 38 63 38 64 44 c 0,44,45
EndSplineSet
EndChar

StartChar: quotedbl.telu
Encoding: 34 34 4
Width: 408
Flags: W
LayerCount: 2
Fore
SplineSet
160 714 m 1,0,-1
 140 456 l 1,1,-1
 85 456 l 1,2,-1
 65 714 l 1,3,-1
 160 714 l 1,0,-1
343 714 m 1,4,-1
 323 456 l 1,5,-1
 268 456 l 1,6,-1
 248 714 l 1,7,-1
 343 714 l 1,4,-1
EndSplineSet
EndChar

StartChar: numbersign.telu
Encoding: 35 35 5
Width: 504
Flags: W
LayerCount: 2
Fore
SplineSet
57 0 m 1,0,-1
 95 167 l 1,1,-1
 3 167 l 1,2,-1
 3 234 l 1,3,-1
 108 234 l 1,4,-1
 140 376 l 1,5,-1
 29 376 l 1,6,-1
 29 442 l 1,7,-1
 152 442 l 1,8,-1
 192 614 l 1,9,-1
 264 614 l 1,10,-1
 224 442 l 1,11,-1
 348 442 l 1,12,-1
 388 614 l 1,13,-1
 457 614 l 1,14,-1
 417 442 l 1,15,-1
 498 442 l 1,16,-1
 498 376 l 1,17,-1
 404 376 l 1,18,-1
 373 234 l 1,19,-1
 477 234 l 1,20,-1
 477 167 l 1,21,-1
 360 167 l 1,22,-1
 319 0 l 1,23,-1
 248 0 l 1,24,-1
 289 167 l 1,25,-1
 166 167 l 1,26,-1
 127 0 l 1,27,-1
 57 0 l 1,0,-1
179 234 m 1,28,-1
 302 234 l 1,29,-1
 333 376 l 1,30,-1
 210 376 l 1,31,-1
 179 234 l 1,28,-1
EndSplineSet
EndChar

StartChar: percent.telu
Encoding: 37 37 6
Width: 482
Flags: W
LayerCount: 2
Fore
SplineSet
105 -6 m 0,0,1
 101 -6 101 -6 93.5 -4 c 128,-1,2
 86 -2 86 -2 79 2 c 128,-1,3
 72 6 72 6 67 11.5 c 128,-1,4
 62 17 62 17 62 23 c 0,5,6
 62 30 62 30 66 46.5 c 128,-1,7
 70 63 70 63 82 93 c 128,-1,8
 94 123 94 123 115.5 168.5 c 128,-1,9
 137 214 137 214 172 280 c 0,10,11
 226 383 226 383 259.5 450 c 128,-1,12
 293 517 293 517 314 556 c 0,13,14
 335 596 335 596 352.5 607.5 c 128,-1,15
 370 619 370 619 383 619 c 0,16,17
 400 619 400 619 406.5 607 c 128,-1,18
 413 595 413 595 412 577.5 c 128,-1,19
 411 560 411 560 405.5 541.5 c 128,-1,20
 400 523 400 523 394 510 c 0,21,22
 380 481 380 481 357 434.5 c 128,-1,23
 334 388 334 388 307.5 335.5 c 128,-1,24
 281 283 281 283 253.5 229 c 128,-1,25
 226 175 226 175 203 130.5 c 128,-1,26
 180 86 180 86 164.5 56 c 128,-1,27
 149 26 149 26 146 22 c 0,28,29
 135 5 135 5 124.5 -0.5 c 128,-1,30
 114 -6 114 -6 105 -6 c 0,0,1
111 393 m 0,31,32
 88 393 88 393 70.5 402.5 c 128,-1,33
 53 412 53 412 41 428 c 128,-1,34
 29 444 29 444 23 465 c 128,-1,35
 17 486 17 486 17 510 c 0,36,37
 17 529 17 529 23.5 548 c 128,-1,38
 30 567 30 567 42 582.5 c 128,-1,39
 54 598 54 598 71 608 c 128,-1,40
 88 618 88 618 109 618 c 0,41,42
 151 618 151 618 175 594.5 c 128,-1,43
 199 571 199 571 199 517 c 0,44,45
 199 490 199 490 192 467.5 c 128,-1,46
 185 445 185 445 173 428.5 c 128,-1,47
 161 412 161 412 145 402.5 c 128,-1,48
 129 393 129 393 111 393 c 0,31,32
111 460 m 0,49,50
 118 460 118 460 123 465.5 c 128,-1,51
 128 471 128 471 131 479.5 c 128,-1,52
 134 488 134 488 135.5 498 c 128,-1,53
 137 508 137 508 137 517 c 0,54,55
 137 534 137 534 130 546 c 128,-1,56
 123 558 123 558 111 558 c 0,57,58
 100 558 100 558 92 543.5 c 128,-1,59
 84 529 84 529 84 512 c 256,60,61
 84 495 84 495 91 477.5 c 128,-1,62
 98 460 98 460 111 460 c 0,49,50
43 512 m 256,63,64
 43 528 43 528 43 535.5 c 128,-1,65
 43 543 43 543 40 543 c 0,66,67
 34 543 34 543 32 530.5 c 128,-1,68
 30 518 30 518 30 514 c 0,69,70
 30 511 30 511 30 505.5 c 128,-1,71
 30 500 30 500 31.5 494.5 c 128,-1,72
 33 489 33 489 35.5 484.5 c 128,-1,73
 38 480 38 480 43 480 c 0,74,75
 47 480 47 480 45 488 c 128,-1,76
 43 496 43 496 43 512 c 256,63,64
68 453 m 0,77,78
 68 464 68 464 59 464 c 0,79,80
 53 464 53 464 53 456 c 0,81,82
 53 454 53 454 55.5 450 c 128,-1,83
 58 446 58 446 61 446 c 0,84,85
 68 446 68 446 68 453 c 0,77,78
380 -6 m 0,86,87
 357 -6 357 -6 339.5 3.5 c 128,-1,88
 322 13 322 13 310 29 c 128,-1,89
 298 45 298 45 292 66 c 128,-1,90
 286 87 286 87 286 111 c 0,91,92
 286 130 286 130 292.5 149 c 128,-1,93
 299 168 299 168 311 183.5 c 128,-1,94
 323 199 323 199 340 209 c 128,-1,95
 357 219 357 219 378 219 c 0,96,97
 420 219 420 219 444 195.5 c 128,-1,98
 468 172 468 172 468 118 c 0,99,100
 468 91 468 91 461 68.5 c 128,-1,101
 454 46 454 46 442 29.5 c 128,-1,102
 430 13 430 13 414 3.5 c 128,-1,103
 398 -6 398 -6 380 -6 c 0,86,87
380 61 m 0,104,105
 387 61 387 61 392 66.5 c 128,-1,106
 397 72 397 72 400 80.5 c 128,-1,107
 403 89 403 89 404.5 99 c 128,-1,108
 406 109 406 109 406 118 c 0,109,110
 406 135 406 135 399 147 c 128,-1,111
 392 159 392 159 380 159 c 0,112,113
 369 159 369 159 361 144.5 c 128,-1,114
 353 130 353 130 353 113 c 256,115,116
 353 96 353 96 360 78.5 c 128,-1,117
 367 61 367 61 380 61 c 0,104,105
312 113 m 256,118,119
 312 129 312 129 312 136.5 c 128,-1,120
 312 144 312 144 309 144 c 0,121,122
 303 144 303 144 301 131.5 c 128,-1,123
 299 119 299 119 299 115 c 0,124,125
 299 112 299 112 299 106.5 c 128,-1,126
 299 101 299 101 300.5 95.5 c 128,-1,127
 302 90 302 90 304.5 85.5 c 128,-1,128
 307 81 307 81 312 81 c 0,129,130
 316 81 316 81 314 89 c 128,-1,131
 312 97 312 97 312 113 c 256,118,119
103 82 m 0,132,133
 98 87 98 87 92.5 82 c 128,-1,134
 87 77 87 77 84 69 c 256,135,136
 81 61 81 61 78 50 c 128,-1,137
 75 39 75 39 75 34 c 0,138,139
 76 23 76 23 79.5 23 c 128,-1,140
 83 23 83 23 90 40 c 0,141,142
 95 52 95 52 100 66 c 128,-1,143
 105 80 105 80 103 82 c 0,132,133
337 54 m 0,144,145
 337 65 337 65 328 65 c 0,146,147
 322 65 322 65 322 57 c 0,148,149
 322 55 322 55 324.5 51 c 128,-1,150
 327 47 327 47 330 47 c 0,151,152
 337 47 337 47 337 54 c 0,144,145
EndSplineSet
EndChar

StartChar: quotesingle.telu
Encoding: 39 39 7
Width: 225
Flags: W
LayerCount: 2
Fore
SplineSet
160 714 m 1,0,-1
 140 456 l 1,1,-1
 85 456 l 1,2,-1
 65 714 l 1,3,-1
 160 714 l 1,0,-1
EndSplineSet
EndChar

StartChar: parenleft.telu
Encoding: 40 40 8
Width: 300
Flags: W
LayerCount: 2
Fore
SplineSet
206 -72 m 0,0,1
 152 -51 152 -51 115.5 -13 c 128,-1,2
 79 25 79 25 56.5 71.5 c 128,-1,3
 34 118 34 118 24 169.5 c 128,-1,4
 14 221 14 221 14 269 c 0,5,6
 14 315 14 315 22.5 363 c 128,-1,7
 31 411 31 411 46.5 456 c 128,-1,8
 62 501 62 501 85 540.5 c 128,-1,9
 108 580 108 580 136 609 c 0,10,11
 163 636 163 636 188 654 c 128,-1,12
 213 672 213 672 233 672 c 0,13,14
 248 672 248 672 257 660 c 128,-1,15
 266 648 266 648 266 636 c 0,16,17
 266 628 266 628 253.5 617 c 128,-1,18
 241 606 241 606 218 582 c 0,19,20
 188 550 188 550 168 512 c 128,-1,21
 148 474 148 474 136 433.5 c 128,-1,22
 124 393 124 393 119.5 351.5 c 128,-1,23
 115 310 115 310 115 272 c 256,24,25
 115 234 115 234 121 192.5 c 128,-1,26
 127 151 127 151 141 113 c 128,-1,27
 155 75 155 75 178 43.5 c 128,-1,28
 201 12 201 12 235 -7 c 0,29,30
 252 -16 252 -16 260.5 -22.5 c 128,-1,31
 269 -29 269 -29 269 -43 c 0,32,33
 269 -56 269 -56 256 -66 c 128,-1,34
 243 -76 243 -76 226 -76 c 0,35,36
 215 -76 215 -76 206 -72 c 0,0,1
192 620 m 0,37,38
 197 625 197 625 203 630.5 c 128,-1,39
 209 636 209 636 202 636 c 0,40,41
 194 636 194 636 183.5 628.5 c 128,-1,42
 173 621 173 621 163 611 c 128,-1,43
 153 601 153 601 146.5 590.5 c 128,-1,44
 140 580 140 580 140 574 c 0,45,46
 140 569 140 569 144 569 c 0,47,48
 149 569 149 569 153.5 575.5 c 128,-1,49
 158 582 158 582 161 587 c 0,50,51
 165 594 165 594 172 601.5 c 128,-1,52
 179 609 179 609 192 620 c 0,37,38
134 547 m 0,53,54
 134 555 134 555 128 555 c 0,55,56
 116 555 116 555 116 547 c 0,57,58
 116 541 116 541 119 539.5 c 128,-1,59
 122 538 122 538 124 538 c 256,60,61
 126 538 126 538 130 539.5 c 128,-1,62
 134 541 134 541 134 547 c 0,53,54
EndSplineSet
EndChar

StartChar: parenright.telu
Encoding: 41 41 9
Width: 300
Flags: W
LayerCount: 2
Fore
SplineSet
80 -93 m 0,0,1
 66 -93 66 -93 53.5 -84.5 c 128,-1,2
 41 -76 41 -76 41 -66 c 0,3,4
 41 -57 41 -57 51 -43 c 128,-1,5
 61 -29 61 -29 75.5 -8.5 c 128,-1,6
 90 12 90 12 107.5 41 c 128,-1,7
 125 70 125 70 139.5 108 c 128,-1,8
 154 146 154 146 164 195 c 128,-1,9
 174 244 174 244 174 305 c 0,10,11
 174 352 174 352 166.5 398.5 c 128,-1,12
 159 445 159 445 145 484 c 128,-1,13
 131 523 131 523 111.5 552 c 128,-1,14
 92 581 92 581 68 594 c 0,15,16
 56 601 56 601 42 610.5 c 128,-1,17
 28 620 28 620 28 638 c 0,18,19
 28 653 28 653 41 662.5 c 128,-1,20
 54 672 54 672 75 672 c 0,21,22
 112 672 112 672 148 646 c 128,-1,23
 184 620 184 620 212 572 c 128,-1,24
 240 524 240 524 257 455.5 c 128,-1,25
 274 387 274 387 274 302 c 0,26,27
 274 227 274 227 265.5 175 c 128,-1,28
 257 123 257 123 241.5 85 c 128,-1,29
 226 47 226 47 205 17 c 128,-1,30
 184 -13 184 -13 159 -44 c 0,31,32
 136 -73 136 -73 116.5 -83 c 128,-1,33
 97 -93 97 -93 80 -93 c 0,0,1
48 621 m 0,34,35
 52 621 52 621 55.5 628.5 c 128,-1,36
 59 636 59 636 59 644 c 0,37,38
 59 657 59 657 52 657 c 0,39,40
 48 657 48 657 44.5 649.5 c 128,-1,41
 41 642 41 642 41 634 c 0,42,43
 41 621 41 621 48 621 c 0,34,35
75 -60 m 256,44,45
 80 -50 80 -50 80.5 -40 c 128,-1,46
 81 -30 81 -30 77 -29 c 0,47,48
 75 -29 75 -29 71.5 -33 c 128,-1,49
 68 -37 68 -37 64.5 -43 c 128,-1,50
 61 -49 61 -49 58.5 -55 c 128,-1,51
 56 -61 56 -61 56 -64 c 0,52,53
 56 -72 56 -72 60 -73 c 0,54,55
 63 -74 63 -74 66.5 -72 c 128,-1,56
 70 -70 70 -70 75 -60 c 256,44,45
EndSplineSet
EndChar

StartChar: asterisk.telu
Encoding: 42 42 10
Width: 551
Flags: W
LayerCount: 2
Fore
SplineSet
322 760 m 1,0,-1
 302 568 l 1,1,-1
 494 622 l 1,2,-1
 508 530 l 1,3,-1
 324 515 l 1,4,-1
 443 357 l 1,5,-1
 357 310 l 1,6,-1
 272 485 l 1,7,-1
 195 310 l 1,8,-1
 106 357 l 1,9,-1
 223 515 l 1,10,-1
 41 530 l 1,11,-1
 55 622 l 1,12,-1
 245 568 l 1,13,-1
 224 760 l 1,14,-1
 322 760 l 1,0,-1
EndSplineSet
EndChar

StartChar: plus.telu
Encoding: 43 43 11
Width: 572
Flags: W
LayerCount: 2
Fore
SplineSet
321 388 m 1,0,-1
 520 388 l 1,1,-1
 520 317 l 1,2,-1
 321 317 l 1,3,-1
 321 111 l 1,4,-1
 249 111 l 1,5,-1
 249 317 l 1,6,-1
 50 317 l 1,7,-1
 50 388 l 1,8,-1
 249 388 l 1,9,-1
 249 595 l 1,10,-1
 321 595 l 1,11,-1
 321 388 l 1,0,-1
EndSplineSet
EndChar

StartChar: comma.telu
Encoding: 44 44 12
Width: 268
Flags: W
LayerCount: 2
Fore
SplineSet
192 105 m 1,0,1
 183 70 183 70 169 29 c 128,-1,2
 155 -12 155 -12 138.5 -52.5 c 128,-1,3
 122 -93 122 -93 106 -129 c 1,4,-1
 41 -129 l 1,5,6
 51 -91 51 -91 60.5 -47.5 c 128,-1,7
 70 -4 70 -4 78 38.5 c 128,-1,8
 86 81 86 81 91 116 c 1,9,-1
 185 116 l 1,10,-1
 192 105 l 1,0,1
EndSplineSet
EndChar

StartChar: hyphen.telu
Encoding: 45 45 13
Width: 322
Flags: W
LayerCount: 2
Fore
SplineSet
40 229 m 1,0,-1
 40 307 l 1,1,-1
 282 307 l 1,2,-1
 282 229 l 1,3,-1
 40 229 l 1,0,-1
EndSplineSet
EndChar

StartChar: period.telu
Encoding: 46 46 14
Width: 263
Flags: W
LayerCount: 2
Fore
SplineSet
124 -8 m 0,0,1
 84 -8 84 -8 55.5 20 c 128,-1,2
 27 48 27 48 27 92 c 0,3,4
 27 116 27 116 35.5 137.5 c 128,-1,5
 44 159 44 159 59 174.5 c 128,-1,6
 74 190 74 190 95 199.5 c 128,-1,7
 116 209 116 209 141 209 c 0,8,9
 161 209 161 209 178 200.5 c 128,-1,10
 195 192 195 192 207 177 c 128,-1,11
 219 162 219 162 225.5 143 c 128,-1,12
 232 124 232 124 232 103 c 0,13,14
 232 76 232 76 223.5 55.5 c 128,-1,15
 215 35 215 35 200 21 c 128,-1,16
 185 7 185 7 165.5 -0.5 c 128,-1,17
 146 -8 146 -8 124 -8 c 0,0,1
87 165 m 0,18,19
 94 172 94 172 95.5 177 c 128,-1,20
 97 182 97 182 95 182 c 0,21,22
 87 182 87 182 78 174.5 c 128,-1,23
 69 167 69 167 61.5 156.5 c 128,-1,24
 54 146 54 146 49 134 c 128,-1,25
 44 122 44 122 44 112 c 0,26,27
 44 110 44 110 45.5 104 c 128,-1,28
 47 98 47 98 50 98 c 0,29,30
 54 98 54 98 60 120 c 0,31,32
 63 134 63 134 71 145.5 c 128,-1,33
 79 157 79 157 87 165 c 0,18,19
128 49 m 0,34,35
 140 49 140 49 156.5 63 c 128,-1,36
 173 77 173 77 173 103 c 0,37,38
 173 123 173 123 162.5 136.5 c 128,-1,39
 152 150 152 150 135 150 c 256,40,41
 118 150 118 150 104 136.5 c 128,-1,42
 90 123 90 123 90 99 c 256,43,44
 90 75 90 75 101 62 c 128,-1,45
 112 49 112 49 128 49 c 0,34,35
EndSplineSet
EndChar

StartChar: slash.telu
Encoding: 47 47 15
Width: 399
Flags: W
LayerCount: 2
Fore
SplineSet
82 -77 m 0,0,1
 78 -77 78 -77 66.5 -75 c 128,-1,2
 55 -73 55 -73 43 -68.5 c 128,-1,3
 31 -64 31 -64 22 -57 c 128,-1,4
 13 -50 13 -50 13 -41 c 4,5,6
 13 -38 13 -38 23.5 -9.5 c 132,-1,7
 34 19 34 19 51 64 c 132,-1,8
 68 109 68 109 90.5 166 c 128,-1,9
 113 223 113 223 137 283 c 128,-1,10
 161 343 161 343 185 402 c 128,-1,11
 209 461 209 461 229 509.5 c 128,-1,12
 249 558 249 558 264 592 c 128,-1,13
 279 626 279 626 285 636 c 0,14,15
 292 647 292 647 303.5 656.5 c 128,-1,16
 315 666 315 666 329 666 c 0,17,18
 336 666 336 666 344.5 663.5 c 128,-1,19
 353 661 353 661 360.5 656.5 c 128,-1,20
 368 652 368 652 373 646 c 128,-1,21
 378 640 378 640 378 633 c 0,22,23
 378 625 378 625 369.5 599.5 c 128,-1,24
 361 574 361 574 349.5 544.5 c 128,-1,25
 338 515 338 515 326.5 487.5 c 128,-1,26
 315 460 315 460 309 447 c 0,27,28
 305 438 305 438 294 410.5 c 128,-1,29
 283 383 283 383 268 344.5 c 128,-1,30
 253 306 253 306 235 259.5 c 128,-1,31
 217 213 217 213 198 166.5 c 128,-1,32
 179 120 179 120 160.5 76 c 132,-1,33
 142 32 142 32 126.5 -2 c 132,-1,34
 111 -36 111 -36 99 -56.5 c 128,-1,35
 87 -77 87 -77 82 -77 c 0,0,1
57 -37 m 4,36,37
 61 -25 61 -25 69 -7 c 132,-1,38
 77 11 77 11 84 27.5 c 132,-1,39
 91 44 91 44 94.5 56.5 c 132,-1,40
 98 69 98 69 93 70 c 4,41,42
 91 71 91 71 86 71 c 132,-1,43
 81 71 81 71 78 66 c 4,44,45
 76 62 76 62 69.5 48.5 c 132,-1,46
 63 35 63 35 56.5 19.5 c 132,-1,47
 50 4 50 4 45 -10.5 c 132,-1,48
 40 -25 40 -25 40 -31 c 4,49,50
 40 -38 40 -38 47.5 -40 c 132,-1,51
 55 -42 55 -42 57 -37 c 4,36,37
EndSplineSet
EndChar

StartChar: zero.telu
Encoding: 48 48 16
Width: 396
Flags: W
LayerCount: 2
Fore
SplineSet
203 -17 m 0,0,1
 151 -17 151 -17 116.5 11.5 c 128,-1,2
 82 40 82 40 61 86 c 128,-1,3
 40 132 40 132 31.5 190 c 128,-1,4
 23 248 23 248 23 307 c 256,5,6
 23 366 23 366 33 422.5 c 128,-1,7
 43 479 43 479 65.5 523 c 128,-1,8
 88 567 88 567 124 594 c 128,-1,9
 160 621 160 621 211 621 c 0,10,11
 245 621 245 621 270 604 c 128,-1,12
 295 587 295 587 313 560 c 128,-1,13
 331 533 331 533 343 499 c 128,-1,14
 355 465 355 465 361.5 430 c 128,-1,15
 368 395 368 395 370.5 362.5 c 128,-1,16
 373 330 373 330 373 307 c 0,17,18
 373 258 373 258 364 201 c 128,-1,19
 355 144 355 144 335 95.5 c 128,-1,20
 315 47 315 47 282.5 15 c 128,-1,21
 250 -17 250 -17 203 -17 c 0,0,1
96 512 m 0,22,23
 105 531 105 531 110 540.5 c 128,-1,24
 115 550 115 550 115 553 c 0,25,26
 115 555 115 555 111 555.5 c 128,-1,27
 107 556 107 556 102 549 c 0,28,29
 98 543 98 543 91 530.5 c 128,-1,30
 84 518 84 518 77 504 c 128,-1,31
 70 490 70 490 65.5 476.5 c 128,-1,32
 61 463 61 463 61 456 c 256,33,34
 61 449 61 449 66 451 c 128,-1,35
 71 453 71 453 74 460 c 0,36,37
 77 468 77 468 82 481 c 128,-1,38
 87 494 87 494 96 512 c 0,22,23
204 59 m 0,39,40
 235 59 235 59 253 85 c 128,-1,41
 271 111 271 111 280.5 150 c 128,-1,42
 290 189 290 189 292.5 234 c 128,-1,43
 295 279 295 279 295 316 c 0,44,45
 295 339 295 339 292 377 c 128,-1,46
 289 415 289 415 280 451.5 c 128,-1,47
 271 488 271 488 254.5 514.5 c 128,-1,48
 238 541 238 541 211 541 c 0,49,50
 189 541 189 541 173 514 c 128,-1,51
 157 487 157 487 146.5 449.5 c 128,-1,52
 136 412 136 412 131 371 c 128,-1,53
 126 330 126 330 126 301 c 0,54,55
 126 286 126 286 126 262.5 c 128,-1,56
 126 239 126 239 128 212 c 128,-1,57
 130 185 130 185 134.5 158 c 128,-1,58
 139 131 139 131 147.5 109 c 128,-1,59
 156 87 156 87 170 73 c 128,-1,60
 184 59 184 59 204 59 c 0,39,40
EndSplineSet
EndChar

StartChar: one.telu
Encoding: 49 49 17
Width: 245
Flags: W
LayerCount: 2
Fore
SplineSet
159 0 m 0,0,1
 114 0 114 0 114 47 c 2,2,-1
 114 450 l 2,3,4
 114 459 114 459 113.5 466 c 128,-1,5
 113 473 113 473 111 473 c 0,6,7
 108 473 108 473 102 465.5 c 128,-1,8
 96 458 96 458 88.5 448.5 c 128,-1,9
 81 439 81 439 72.5 429.5 c 128,-1,10
 64 420 64 420 56 416 c 0,11,12
 47 411 47 411 37 411 c 0,13,14
 23 411 23 411 14 421 c 128,-1,15
 5 431 5 431 5 445 c 0,16,17
 5 450 5 450 14.5 463 c 128,-1,18
 24 476 24 476 31 486 c 0,19,20
 40 499 40 499 58 521 c 128,-1,21
 76 543 76 543 96.5 564 c 128,-1,22
 117 585 117 585 136 600.5 c 128,-1,23
 155 616 155 616 167 616 c 0,24,25
 173 616 173 616 181 615 c 128,-1,26
 189 614 189 614 196.5 611 c 128,-1,27
 204 608 204 608 209 602.5 c 128,-1,28
 214 597 214 597 214 587 c 2,29,-1
 214 48 l 2,30,31
 214 30 214 30 197.5 15 c 128,-1,32
 181 0 181 0 159 0 c 0,0,1
158 592 m 0,33,34
 163 600 163 600 166 602.5 c 128,-1,35
 169 605 169 605 166 606 c 0,36,37
 164 606 164 606 157 603.5 c 128,-1,38
 150 601 150 601 144 595 c 0,39,40
 139 590 139 590 131 583 c 128,-1,41
 123 576 123 576 123 572 c 0,42,43
 123 569 123 569 127 568 c 0,44,45
 134 567 134 567 144 577 c 128,-1,46
 154 587 154 587 158 592 c 0,33,34
147 45 m 0,47,48
 147 53 147 53 144.5 58 c 128,-1,49
 142 63 142 63 142 74 c 0,50,51
 142 79 142 79 141.5 83 c 128,-1,52
 141 87 141 87 136 87 c 0,53,54
 132 87 132 87 130 77.5 c 128,-1,55
 128 68 128 68 128 57 c 128,-1,56
 128 46 128 46 130 36.5 c 128,-1,57
 132 27 132 27 136 27 c 0,58,59
 147 27 147 27 147 45 c 0,47,48
EndSplineSet
EndChar

StartChar: two.telu
Encoding: 50 50 18
Width: 344
Flags: W
LayerCount: 2
Fore
SplineSet
45 0 m 2,0,1
 36 0 36 0 28.5 13 c 128,-1,2
 21 26 21 26 23 38 c 256,3,4
 25 50 25 50 39 68 c 128,-1,5
 53 86 53 86 69 106 c 0,6,7
 105 151 105 151 134 198.5 c 128,-1,8
 163 246 163 246 183.5 292.5 c 128,-1,9
 204 339 204 339 215 383 c 128,-1,10
 226 427 226 427 226 465 c 0,11,12
 226 506 226 506 208.5 520 c 128,-1,13
 191 534 191 534 171 534 c 256,14,15
 151 534 151 534 136 517.5 c 128,-1,16
 121 501 121 501 121 464 c 0,17,18
 121 442 121 442 126 430.5 c 128,-1,19
 131 419 131 419 131 403 c 0,20,21
 131 389 131 389 115.5 383 c 128,-1,22
 100 377 100 377 89 377 c 0,23,24
 63 377 63 377 45.5 403.5 c 128,-1,25
 28 430 28 430 28 470 c 0,26,27
 28 502 28 502 38.5 529.5 c 128,-1,28
 49 557 49 557 68.5 577.5 c 128,-1,29
 88 598 88 598 114.5 610 c 128,-1,30
 141 622 141 622 172 622 c 0,31,32
 202 622 202 622 230.5 610.5 c 128,-1,33
 259 599 259 599 281 577.5 c 128,-1,34
 303 556 303 556 316 525.5 c 128,-1,35
 329 495 329 495 329 457 c 0,36,37
 329 410 329 410 317 364 c 128,-1,38
 305 318 305 318 286.5 277 c 128,-1,39
 268 236 268 236 247 201 c 128,-1,40
 226 166 226 166 207.5 140 c 128,-1,41
 189 114 189 114 177 98 c 128,-1,42
 165 82 165 82 165 79 c 1,43,44
 168 79 168 79 173 79 c 2,45,-1
 197 79 l 1,46,-1
 284 82 l 2,47,48
 302 83 302 83 311 79 c 128,-1,49
 320 75 320 75 324 67.5 c 128,-1,50
 328 60 328 60 328 50 c 128,-1,51
 328 40 328 40 328 29 c 0,52,53
 328 11 328 11 317.5 5.5 c 128,-1,54
 307 0 307 0 275 0 c 2,55,-1
 45 0 l 2,0,1
61 488 m 0,56,57
 62 500 62 500 60 507 c 128,-1,58
 58 514 58 514 55 513 c 0,59,60
 51 513 51 513 48.5 506.5 c 128,-1,61
 46 500 46 500 45.5 491.5 c 128,-1,62
 45 483 45 483 45 475.5 c 128,-1,63
 45 468 45 468 45 465 c 0,64,65
 47 452 47 452 50 450 c 0,66,67
 55 445 55 445 57 452 c 128,-1,68
 59 459 59 459 61 488 c 0,56,57
63 424 m 0,69,70
 63 431 63 431 56 431 c 256,71,72
 49 431 49 431 49 423 c 0,73,74
 49 421 49 421 51 418 c 128,-1,75
 53 415 53 415 55 415 c 0,76,77
 59 415 59 415 61 418 c 128,-1,78
 63 421 63 421 63 424 c 0,69,70
62 50 m 0,79,80
 70 69 70 69 67 69 c 0,81,82
 60 69 60 69 52.5 60 c 128,-1,83
 45 51 45 51 45 40 c 0,84,85
 45 32 45 32 49 32 c 0,86,87
 54 32 54 32 62 50 c 0,79,80
EndSplineSet
EndChar

StartChar: three.telu
Encoding: 51 51 19
Width: 347
Flags: W
LayerCount: 2
Fore
SplineSet
223 486 m 0,0,1
 223 515 223 515 209 527.5 c 128,-1,2
 195 540 195 540 167 540 c 0,3,4
 134 540 134 540 118 514.5 c 128,-1,5
 102 489 102 489 102 430 c 0,6,7
 102 416 102 416 91.5 410 c 128,-1,8
 81 404 81 404 70 404 c 0,9,10
 9 404 9 404 9 493 c 0,11,12
 9 520 9 520 22.5 543.5 c 128,-1,13
 36 567 36 567 57.5 584.5 c 128,-1,14
 79 602 79 602 107 612 c 128,-1,15
 135 622 135 622 163 622 c 0,16,17
 207 622 207 622 238.5 611 c 128,-1,18
 270 600 270 600 290 581 c 128,-1,19
 310 562 310 562 320 537.5 c 128,-1,20
 330 513 330 513 330 487 c 0,21,22
 330 447 330 447 312.5 418 c 128,-1,23
 295 389 295 389 273.5 368.5 c 128,-1,24
 252 348 252 348 234.5 336 c 128,-1,25
 217 324 217 324 217 318 c 256,26,27
 217 312 217 312 235 305.5 c 128,-1,28
 253 299 253 299 275 284 c 128,-1,29
 297 269 297 269 315 241.5 c 128,-1,30
 333 214 333 214 333 167 c 0,31,32
 333 121 333 121 315.5 88.5 c 128,-1,33
 298 56 298 56 269.5 35 c 128,-1,34
 241 14 241 14 205 4 c 128,-1,35
 169 -6 169 -6 132 -6 c 0,36,37
 116 -6 116 -6 96 -1.5 c 128,-1,38
 76 3 76 3 58.5 12.5 c 128,-1,39
 41 22 41 22 29 36.5 c 128,-1,40
 17 51 17 51 17 71 c 0,41,42
 17 86 17 86 23 95.5 c 128,-1,43
 29 105 29 105 40 105 c 0,44,45
 53 105 53 105 63.5 100.5 c 128,-1,46
 74 96 74 96 84.5 90.5 c 128,-1,47
 95 85 95 85 107 80.5 c 128,-1,48
 119 76 119 76 134 76 c 0,49,50
 161 76 161 76 179 84 c 128,-1,51
 197 92 197 92 207.5 105 c 128,-1,52
 218 118 218 118 222 134 c 128,-1,53
 226 150 226 150 226 166 c 0,54,55
 226 198 226 198 208 220 c 128,-1,56
 190 242 190 242 161 242 c 0,57,58
 119 242 119 242 102 257 c 128,-1,59
 85 272 85 272 85 292 c 0,60,61
 85 311 85 311 106.5 334.5 c 128,-1,62
 128 358 128 358 154 383 c 128,-1,63
 180 408 180 408 201.5 434.5 c 128,-1,64
 223 461 223 461 223 486 c 0,0,1
50 515 m 0,65,66
 51 527 51 527 49 534 c 128,-1,67
 47 541 47 541 44 540 c 0,68,69
 40 540 40 540 36.5 534 c 128,-1,70
 33 528 33 528 30.5 520 c 128,-1,71
 28 512 28 512 26.5 504 c 128,-1,72
 25 496 25 496 26 492 c 0,73,74
 28 479 28 479 31 477 c 0,75,76
 36 472 36 472 42 479 c 128,-1,77
 48 486 48 486 50 515 c 0,65,66
44 451 m 0,78,79
 44 458 44 458 37 458 c 256,80,81
 30 458 30 458 30 450 c 0,82,83
 30 448 30 448 32 445 c 128,-1,84
 34 442 34 442 36 442 c 0,85,86
 40 442 40 442 42 445 c 128,-1,87
 44 448 44 448 44 451 c 0,78,79
118 291 m 0,88,89
 120 296 120 296 124 304 c 128,-1,90
 128 312 128 312 133 319 c 0,91,92
 137 325 137 325 138 330 c 128,-1,93
 139 335 139 335 137 335 c 0,94,95
 133 335 133 335 127 329 c 128,-1,96
 121 323 121 323 115.5 315 c 128,-1,97
 110 307 110 307 106 298.5 c 128,-1,98
 102 290 102 290 102 284 c 0,99,100
 102 275 102 275 107 275 c 256,101,102
 112 275 112 275 118 291 c 0,88,89
48 80 m 0,103,104
 48 101 48 101 39 92 c 0,105,106
 34 87 34 87 32 78 c 128,-1,107
 30 69 30 69 31 62 c 0,108,109
 32 58 32 58 34 56.5 c 128,-1,110
 36 55 36 55 38 55 c 256,111,112
 40 55 40 55 44 63.5 c 128,-1,113
 48 72 48 72 48 80 c 0,103,104
EndSplineSet
EndChar

StartChar: four.telu
Encoding: 52 52 20
Width: 387
Flags: W
LayerCount: 2
Fore
SplineSet
299 0 m 0,0,1
 275 0 275 0 266.5 19.5 c 128,-1,2
 258 39 258 39 258 62 c 2,3,-1
 258 130 l 2,4,5
 258 142 258 142 245 142 c 2,6,-1
 64 142 l 2,7,8
 42 142 42 142 31.5 152 c 128,-1,9
 21 162 21 162 21 173 c 0,10,11
 21 178 21 178 29.5 209.5 c 128,-1,12
 38 241 38 241 50.5 286 c 128,-1,13
 63 331 63 331 78 382 c 128,-1,14
 93 433 93 433 106.5 478 c 128,-1,15
 120 523 120 523 130 555 c 128,-1,16
 140 587 140 587 143 592 c 0,17,18
 151 607 151 607 161 610.5 c 128,-1,19
 171 614 171 614 181 614 c 0,20,21
 186 614 186 614 195 612 c 128,-1,22
 204 610 204 610 212.5 606.5 c 128,-1,23
 221 603 221 603 227.5 598 c 128,-1,24
 234 593 234 593 234 587 c 256,25,26
 234 581 234 581 229 558.5 c 128,-1,27
 224 536 224 536 216 503.5 c 128,-1,28
 208 471 208 471 198 433 c 128,-1,29
 188 395 188 395 178 358.5 c 128,-1,30
 168 322 168 322 159 291.5 c 128,-1,31
 150 261 150 261 144 243 c 0,32,33
 142 238 142 238 141 235 c 128,-1,34
 140 232 140 232 140 229 c 0,35,36
 140 224 140 224 148 224 c 2,37,-1
 245 224 l 2,38,39
 253 224 253 224 255.5 226.5 c 128,-1,40
 258 229 258 229 258 235 c 2,41,-1
 258 536 l 2,42,43
 258 561 258 561 262.5 576.5 c 128,-1,44
 267 592 267 592 274 601 c 128,-1,45
 281 610 281 610 290 613 c 128,-1,46
 299 616 299 616 309 616 c 0,47,48
 336 616 336 616 349 597 c 128,-1,49
 362 578 362 578 362 550 c 2,50,-1
 362 70 l 2,51,52
 362 49 362 49 357 35 c 128,-1,53
 352 21 352 21 343 13.5 c 128,-1,54
 334 6 334 6 322.5 3 c 128,-1,55
 311 0 311 0 299 0 c 0,0,1
278 541 m 256,56,57
 282 541 282 541 285.5 547 c 128,-1,58
 289 553 289 553 291.5 561 c 128,-1,59
 294 569 294 569 295.5 577.5 c 128,-1,60
 297 586 297 586 297 591 c 0,61,62
 297 598 297 598 290 598 c 0,63,64
 287 598 287 598 284 593.5 c 128,-1,65
 281 589 281 589 278.5 582.5 c 128,-1,66
 276 576 276 576 274 569.5 c 128,-1,67
 272 563 272 563 272 558 c 0,68,69
 272 552 272 552 273 546.5 c 128,-1,70
 274 541 274 541 278 541 c 256,56,57
65 215 m 0,71,72
 69 228 69 228 71.5 235 c 128,-1,73
 74 242 74 242 73 251 c 0,74,75
 73 259 73 259 68 259 c 0,76,77
 65 259 65 259 61.5 251.5 c 128,-1,78
 58 244 58 244 54.5 234 c 128,-1,79
 51 224 51 224 49 214 c 128,-1,80
 47 204 47 204 47 199 c 0,81,82
 47 188 47 188 52 188 c 0,83,84
 59 189 59 189 65 215 c 0,71,72
55 169 m 0,85,86
 55 179 55 179 47 179 c 256,87,88
 39 179 39 179 39 169 c 0,89,90
 39 167 39 167 40 166 c 0,91,92
 44 162 44 162 47 162 c 0,93,94
 49 162 49 162 52 164 c 128,-1,95
 55 166 55 166 55 169 c 0,85,86
291 29 m 0,96,97
 288 35 288 35 285 37.5 c 128,-1,98
 282 40 282 40 282 45 c 0,99,100
 282 49 282 49 281 53 c 0,101,102
 281 61 281 61 276 61 c 0,103,104
 270 61 270 61 270 50 c 0,105,106
 270 42 270 42 274.5 28.5 c 128,-1,107
 279 15 279 15 285 15 c 0,108,109
 288 15 288 15 291 19.5 c 128,-1,110
 294 24 294 24 291 29 c 0,96,97
EndSplineSet
EndChar

StartChar: five.telu
Encoding: 53 53 21
Width: 376
Flags: W
LayerCount: 2
Fore
SplineSet
88 -8 m 0,0,1
 66 -8 66 -8 53.5 -1.5 c 128,-1,2
 41 5 41 5 35 14 c 128,-1,3
 29 23 29 23 27.5 32.5 c 128,-1,4
 26 42 26 42 26 48 c 0,5,6
 26 62 26 62 31.5 70 c 128,-1,7
 37 78 37 78 46 81.5 c 128,-1,8
 55 85 55 85 66 85.5 c 128,-1,9
 77 86 77 86 88 86 c 0,10,11
 175 86 175 86 211.5 112.5 c 128,-1,12
 248 139 248 139 248 196 c 0,13,14
 248 251 248 251 222 277 c 128,-1,15
 196 303 196 303 147 303 c 0,16,17
 128 303 128 303 116 300 c 128,-1,18
 104 297 104 297 95 293.5 c 128,-1,19
 86 290 86 290 78 287 c 128,-1,20
 70 284 70 284 60 284 c 256,21,22
 50 284 50 284 44 293 c 128,-1,23
 38 302 38 302 35 314.5 c 128,-1,24
 32 327 32 327 31.5 341.5 c 128,-1,25
 31 356 31 356 31 366 c 2,26,-1
 31 568 l 2,27,28
 31 595 31 595 44.5 605.5 c 128,-1,29
 58 616 58 616 77 616 c 2,30,-1
 310 616 l 2,31,32
 318 616 318 616 325 608.5 c 128,-1,33
 332 601 332 601 332 587 c 0,34,35
 332 569 332 569 324.5 552.5 c 128,-1,36
 317 536 317 536 308 536 c 2,37,-1
 140 535 l 2,38,39
 135 535 135 535 133 530.5 c 128,-1,40
 131 526 131 526 131 521 c 2,41,-1
 131 399 l 2,42,43
 131 383 131 383 134 381 c 128,-1,44
 137 379 137 379 144 379 c 2,45,-1
 168 380 l 2,46,47
 208 382 208 382 241.5 371.5 c 128,-1,48
 275 361 275 361 299 338 c 128,-1,49
 323 315 323 315 336.5 280 c 128,-1,50
 350 245 350 245 350 197 c 0,51,52
 350 158 350 158 334 121.5 c 128,-1,53
 318 85 318 85 285.5 56 c 128,-1,54
 253 27 253 27 204 9.5 c 128,-1,55
 155 -8 155 -8 88 -8 c 0,0,1
59 403 m 0,56,57
 59 422 59 422 58 432 c 128,-1,58
 57 442 57 442 51 436 c 0,59,60
 48 433 48 433 46 421 c 128,-1,61
 44 409 44 409 44 395 c 128,-1,62
 44 381 44 381 46 369 c 128,-1,63
 48 357 48 357 51 354 c 256,64,65
 54 351 54 351 55 351 c 0,66,67
 59 351 59 351 59 403 c 0,56,57
67 326 m 0,68,69
 67 336 67 336 62 336 c 0,70,71
 51 336 51 336 51 322 c 0,72,73
 51 315 51 315 59 315 c 0,74,75
 64 315 64 315 65.5 319.5 c 128,-1,76
 67 324 67 324 67 326 c 0,68,69
58 48 m 0,77,78
 57 50 57 50 57.5 54 c 128,-1,79
 58 58 58 58 58.5 61.5 c 128,-1,80
 59 65 59 65 58 67.5 c 128,-1,81
 57 70 57 70 53 70 c 0,82,83
 48 70 48 70 46 61.5 c 128,-1,84
 44 53 44 53 45 42 c 256,85,86
 46 31 46 31 49 21.5 c 128,-1,87
 52 12 52 12 58 12 c 0,88,89
 60 12 60 12 61.5 23 c 128,-1,90
 63 34 63 34 58 48 c 0,77,78
EndSplineSet
EndChar

StartChar: six.telu
Encoding: 54 54 22
Width: 407
Flags: W
LayerCount: 2
Fore
SplineSet
207 -11 m 0,0,1
 155 -11 155 -11 118.5 8.5 c 128,-1,2
 82 28 82 28 59 61 c 128,-1,3
 36 94 36 94 25.5 136.5 c 128,-1,4
 15 179 15 179 15 225 c 0,5,6
 15 276 15 276 23 328.5 c 128,-1,7
 31 381 31 381 48 429 c 128,-1,8
 65 477 65 477 92.5 518 c 128,-1,9
 120 559 120 559 159 587 c 0,10,11
 187 607 187 607 215 613.5 c 128,-1,12
 243 620 243 620 265 620 c 0,13,14
 270 620 270 620 277.5 618.5 c 128,-1,15
 285 617 285 617 292 614 c 128,-1,16
 299 611 299 611 304.5 606 c 128,-1,17
 310 601 310 601 310 593 c 0,18,19
 310 579 310 579 305 567.5 c 128,-1,20
 300 556 300 556 273 547 c 0,21,22
 247 538 247 538 226 521 c 128,-1,23
 205 504 205 504 188.5 482.5 c 128,-1,24
 172 461 172 461 160 435.5 c 128,-1,25
 148 410 148 410 139 385 c 0,26,27
 134 373 134 373 130 354.5 c 128,-1,28
 126 336 126 336 126 325 c 0,29,30
 126 315 126 315 130 315 c 0,31,32
 133 315 133 315 140 324.5 c 128,-1,33
 147 334 147 334 160 345 c 128,-1,34
 173 356 173 356 192 365.5 c 128,-1,35
 211 375 211 375 238 375 c 0,36,37
 315 375 315 375 355.5 323 c 128,-1,38
 396 271 396 271 396 187 c 0,39,40
 396 146 396 146 381 110 c 128,-1,41
 366 74 366 74 340 47 c 128,-1,42
 314 20 314 20 279.5 4.5 c 128,-1,43
 245 -11 245 -11 207 -11 c 0,0,1
202 80 m 0,44,45
 244 80 244 80 269.5 106.5 c 128,-1,46
 295 133 295 133 295 190 c 0,47,48
 295 207 295 207 292 224 c 128,-1,49
 289 241 289 241 281 255 c 128,-1,50
 273 269 273 269 259.5 277.5 c 128,-1,51
 246 286 246 286 225 286 c 0,52,53
 206 286 206 286 186.5 276 c 128,-1,54
 167 266 167 266 152 250.5 c 128,-1,55
 137 235 137 235 127.5 215.5 c 128,-1,56
 118 196 118 196 118 178 c 0,57,58
 118 137 118 137 135.5 108.5 c 128,-1,59
 153 80 153 80 202 80 c 0,44,45
76 107 m 0,60,61
 73 118 73 118 69 127.5 c 128,-1,62
 65 137 65 137 62 148 c 0,63,64
 60 154 60 154 58.5 159 c 128,-1,65
 57 164 57 164 53 163 c 0,66,67
 50 163 50 163 48 155 c 0,68,69
 47 148 47 148 50.5 135 c 128,-1,70
 54 122 54 122 59 110 c 128,-1,71
 64 98 64 98 69.5 89.5 c 128,-1,72
 75 81 75 81 77 81 c 0,73,74
 82 81 82 81 82 86 c 0,75,76
 82 90 82 90 80 95 c 128,-1,77
 78 100 78 100 76 107 c 0,60,61
EndSplineSet
EndChar

StartChar: seven.telu
Encoding: 55 55 23
Width: 318
Flags: W
LayerCount: 2
Fore
SplineSet
87 -2 m 0,0,1
 73 -2 73 -2 63.5 6.5 c 128,-1,2
 54 15 54 15 54 25 c 0,3,4
 54 34 54 34 64 70 c 128,-1,5
 74 106 74 106 89 156 c 128,-1,6
 104 206 104 206 122 263 c 128,-1,7
 140 320 140 320 156.5 371 c 128,-1,8
 173 422 173 422 186 461 c 128,-1,9
 199 500 199 500 204 514 c 0,10,11
 209 529 209 529 197 529 c 2,12,-1
 67 529 l 2,13,14
 40 529 40 529 25 537.5 c 128,-1,15
 10 546 10 546 10 573 c 256,16,17
 10 600 10 600 26.5 608 c 128,-1,18
 43 616 43 616 69 616 c 2,19,-1
 280 616 l 2,20,21
 297 616 297 616 309 605.5 c 128,-1,22
 321 595 321 595 321 581 c 0,23,24
 321 571 321 571 310 529 c 128,-1,25
 299 487 299 487 281.5 429 c 128,-1,26
 264 371 264 371 242.5 303.5 c 128,-1,27
 221 236 221 236 201 176 c 128,-1,28
 181 116 181 116 165 71 c 128,-1,29
 149 26 149 26 141 11 c 0,30,31
 139 6 139 6 124.5 2 c 128,-1,32
 110 -2 110 -2 87 -2 c 0,0,1
42 594 m 0,33,34
 42 602 42 602 37 602 c 256,35,36
 32 602 32 602 25.5 594.5 c 128,-1,37
 19 587 19 587 19 576 c 0,38,39
 19 556 19 556 27 556 c 0,40,41
 30 556 30 556 33 560.5 c 128,-1,42
 36 565 36 565 38 571 c 128,-1,43
 40 577 40 577 41 583.5 c 128,-1,44
 42 590 42 590 42 594 c 0,33,34
87 38 m 0,45,46
 89 48 89 48 91 58.5 c 128,-1,47
 93 69 93 69 95 73 c 0,48,49
 99 78 99 78 97.5 83 c 128,-1,50
 96 88 96 88 91 88 c 0,51,52
 88 88 88 88 84.5 81 c 128,-1,53
 81 74 81 74 78.5 64.5 c 128,-1,54
 76 55 76 55 74 45.5 c 128,-1,55
 72 36 72 36 72 31 c 0,56,57
 72 19 72 19 77 19 c 256,58,59
 82 19 82 19 87 38 c 0,45,46
EndSplineSet
EndChar

StartChar: eight.telu
Encoding: 56 56 24
Width: 407
Flags: W
LayerCount: 2
Fore
SplineSet
195 -6 m 0,0,1
 155 -6 155 -6 121.5 8.5 c 128,-1,2
 88 23 88 23 64.5 46.5 c 128,-1,3
 41 70 41 70 28 100.5 c 128,-1,4
 15 131 15 131 15 163 c 0,5,6
 15 201 15 201 32 228 c 128,-1,7
 49 255 49 255 69.5 274 c 128,-1,8
 90 293 90 293 107 305.5 c 128,-1,9
 124 318 124 318 124 325 c 0,10,11
 124 333 124 333 108.5 342 c 128,-1,12
 93 351 93 351 74 367 c 128,-1,13
 55 383 55 383 39.5 407.5 c 128,-1,14
 24 432 24 432 24 471 c 0,15,16
 24 503 24 503 38.5 531 c 128,-1,17
 53 559 53 559 78 580 c 128,-1,18
 103 601 103 601 135 613 c 128,-1,19
 167 625 167 625 202 625 c 0,20,21
 228 625 228 625 258 614.5 c 128,-1,22
 288 604 288 604 313.5 584.5 c 128,-1,23
 339 565 339 565 355.5 536 c 128,-1,24
 372 507 372 507 372 469 c 0,25,26
 372 432 372 432 358 409.5 c 128,-1,27
 344 387 344 387 327.5 373.5 c 128,-1,28
 311 360 311 360 297 353 c 128,-1,29
 283 346 283 346 283 340 c 0,30,31
 283 331 283 331 300 319.5 c 128,-1,32
 317 308 317 308 337.5 289.5 c 128,-1,33
 358 271 358 271 375 242 c 128,-1,34
 392 213 392 213 392 169 c 0,35,36
 392 136 392 136 376.5 104.5 c 128,-1,37
 361 73 361 73 334 48 c 128,-1,38
 307 23 307 23 271.5 8.5 c 128,-1,39
 236 -6 236 -6 195 -6 c 0,0,1
67 512 m 0,40,41
 68 518 68 518 73 525 c 128,-1,42
 78 532 78 532 84 538.5 c 128,-1,43
 90 545 90 545 95.5 550.5 c 128,-1,44
 101 556 101 556 104 559 c 0,45,46
 115 571 115 571 115 578 c 0,47,48
 115 582 115 582 111 582 c 0,49,50
 102 582 102 582 91.5 572.5 c 128,-1,51
 81 563 81 563 72 549.5 c 128,-1,52
 63 536 63 536 57 522.5 c 128,-1,53
 51 509 51 509 51 501 c 256,54,55
 51 493 51 493 55 493 c 0,56,57
 62 493 62 493 67 512 c 0,40,41
202 371 m 0,58,59
 215 371 215 371 227.5 379.5 c 128,-1,60
 240 388 240 388 250 402 c 128,-1,61
 260 416 260 416 266.5 433.5 c 128,-1,62
 273 451 273 451 273 469 c 0,63,64
 273 504 273 504 253 529.5 c 128,-1,65
 233 555 233 555 201 555 c 256,66,67
 169 555 169 555 146 533 c 128,-1,68
 123 511 123 511 123 473 c 0,69,70
 123 459 123 459 128 441.5 c 128,-1,71
 133 424 133 424 143 408 c 128,-1,72
 153 392 153 392 168 381.5 c 128,-1,73
 183 371 183 371 202 371 c 0,58,59
57 469 m 0,74,75
 57 478 57 478 50 478 c 0,76,77
 45 478 45 478 43.5 475 c 128,-1,78
 42 472 42 472 42 469 c 0,79,80
 42 467 42 467 43 465 c 0,81,82
 45 461 45 461 49 461 c 0,83,84
 51 461 51 461 54 463 c 128,-1,85
 57 465 57 465 57 469 c 0,74,75
197 73 m 0,86,87
 245 73 245 73 262.5 98 c 128,-1,88
 280 123 280 123 280 169 c 0,89,90
 280 188 280 188 272.5 208.5 c 128,-1,91
 265 229 265 229 253.5 246 c 128,-1,92
 242 263 242 263 229 274 c 128,-1,93
 216 285 216 285 205 285 c 0,94,95
 190 285 190 285 175 273.5 c 128,-1,96
 160 262 160 262 148 244.5 c 128,-1,97
 136 227 136 227 128.5 205.5 c 128,-1,98
 121 184 121 184 121 163 c 0,99,100
 121 147 121 147 126.5 131 c 128,-1,101
 132 115 132 115 141.5 102 c 128,-1,102
 151 89 151 89 165 81 c 128,-1,103
 179 73 179 73 197 73 c 0,86,87
61 222 m 256,104,105
 64 230 64 230 61 233 c 128,-1,106
 58 236 58 236 51 229 c 0,107,108
 48 226 48 226 43 218.5 c 128,-1,109
 38 211 38 211 33.5 202 c 128,-1,110
 29 193 29 193 25.5 183.5 c 128,-1,111
 22 174 22 174 22 166 c 0,112,113
 21 158 21 158 24.5 150.5 c 128,-1,114
 28 143 28 143 35 143 c 0,115,116
 43 143 43 143 42 155.5 c 128,-1,117
 41 168 41 168 43 179 c 0,118,119
 46 194 46 194 52 204 c 128,-1,120
 58 214 58 214 61 222 c 256,104,105
EndSplineSet
EndChar

StartChar: nine.telu
Encoding: 57 57 25
Width: 402
Flags: W
LayerCount: 2
Fore
SplineSet
200 623 m 0,0,1
 255 623 255 623 292 601.5 c 128,-1,2
 329 580 329 580 351 546 c 128,-1,3
 373 512 373 512 382.5 470 c 128,-1,4
 392 428 392 428 392 387 c 0,5,6
 392 336 392 336 380.5 284 c 128,-1,7
 369 232 369 232 348.5 185 c 128,-1,8
 328 138 328 138 300 99 c 128,-1,9
 272 60 272 60 239 34 c 0,10,11
 212 13 212 13 183.5 2.5 c 128,-1,12
 155 -8 155 -8 133 -8 c 0,13,14
 115 -8 115 -8 102.5 -1.5 c 128,-1,15
 90 5 90 5 90 21 c 0,16,17
 90 36 90 36 98 51.5 c 128,-1,18
 106 67 106 67 133 76 c 0,19,20
 159 85 159 85 179.5 100 c 128,-1,21
 200 115 200 115 216 135 c 128,-1,22
 232 155 232 155 243.5 178.5 c 128,-1,23
 255 202 255 202 264 227 c 0,24,25
 269 239 269 239 273 257.5 c 128,-1,26
 277 276 277 276 277 287 c 0,27,28
 277 297 277 297 273 297 c 0,29,30
 270 297 270 297 263.5 289 c 128,-1,31
 257 281 257 281 244 272 c 128,-1,32
 231 263 231 263 211 255 c 128,-1,33
 191 247 191 247 161 247 c 0,34,35
 91 247 91 247 51.5 295 c 128,-1,36
 12 343 12 343 12 425 c 0,37,38
 12 463 12 463 24 499 c 128,-1,39
 36 535 36 535 60 562.5 c 128,-1,40
 84 590 84 590 119 606.5 c 128,-1,41
 154 623 154 623 200 623 c 0,0,1
205 535 m 0,42,43
 163 535 163 535 137.5 508 c 128,-1,44
 112 481 112 481 112 432 c 0,45,46
 112 390 112 390 130.5 364.5 c 128,-1,47
 149 339 149 339 182 339 c 0,48,49
 202 339 202 339 220.5 347 c 128,-1,50
 239 355 239 355 253 368 c 128,-1,51
 267 381 267 381 276 398.5 c 128,-1,52
 285 416 285 416 285 434 c 0,53,54
 285 455 285 455 281.5 473 c 128,-1,55
 278 491 278 491 269 505 c 128,-1,56
 260 519 260 519 244.5 527 c 128,-1,57
 229 535 229 535 205 535 c 0,42,43
62 486 m 0,58,59
 64 496 64 496 66.5 503.5 c 128,-1,60
 69 511 69 511 69 517 c 0,61,62
 69 524 69 524 62 524 c 0,63,64
 59 524 59 524 53.5 511 c 128,-1,65
 48 498 48 498 43.5 480 c 128,-1,66
 39 462 39 462 36 444 c 128,-1,67
 33 426 33 426 35 415 c 0,68,69
 38 403 38 403 43 403 c 256,70,71
 48 403 48 403 50.5 410.5 c 128,-1,72
 53 418 53 418 55 426 c 0,73,74
 59 443 59 443 59 457 c 128,-1,75
 59 471 59 471 62 486 c 0,58,59
58 380 m 0,76,77
 58 385 58 385 56.5 388.5 c 128,-1,78
 55 392 55 392 52 392 c 0,79,80
 47 392 47 392 43 389 c 128,-1,81
 39 386 39 386 39 376 c 0,82,83
 39 373 39 373 41.5 370 c 128,-1,84
 44 367 44 367 48 367 c 0,85,86
 54 367 54 367 56 372.5 c 128,-1,87
 58 378 58 378 58 380 c 0,76,77
130 58 m 2,88,89
 130 61 130 61 125.5 60 c 128,-1,90
 121 59 121 59 116 55 c 128,-1,91
 111 51 111 51 107 44 c 128,-1,92
 103 37 103 37 103 28 c 0,93,94
 103 26 103 26 104.5 20 c 128,-1,95
 106 14 106 14 110 14 c 0,96,97
 113 14 113 14 116.5 20.5 c 128,-1,98
 120 27 120 27 123 35.5 c 128,-1,99
 126 44 126 44 128 51 c 128,-1,100
 130 58 130 58 130 58 c 2,88,89
EndSplineSet
EndChar

StartChar: semicolon.telu
Encoding: 59 59 27
Width: 268
Flags: W
LayerCount: 2
Fore
SplineSet
66.5595703125 -85.4501953125 m 0,0,1
 52.3203125 -85.4501953125 52.3203125 -85.4501953125 43.419921875 -78.275390625 c 0,2,3
 34.51953125 -71.099609375 34.51953125 -71.099609375 34.51953125 -50.599609375 c 0,4,5
 34.51953125 -40.349609375 34.51953125 -40.349609375 46.08984375 -34.2001953125 c 0,6,7
 57.66015625 -28.0498046875 57.66015625 -28.0498046875 75.4599609375 -23.9501953125 c 0,8,9
 100.379882812 -19.849609375 100.379882812 -19.849609375 103.049804688 0.650390625 c 0,10,11
 105.719726562 21.150390625 105.719726562 21.150390625 91.48046875 21.150390625 c 0,12,13
 71.900390625 21.150390625 71.900390625 21.150390625 59.4404296875 43.7001953125 c 0,14,15
 46.98046875 66.25 46.98046875 66.25 46.98046875 94.9501953125 c 0,16,17
 46.98046875 138 46.98046875 138 71.009765625 174.900390625 c 0,18,19
 95.0400390625 211.799804688 95.0400390625 211.799804688 141.3203125 211.799804688 c 0,20,21
 182.259765625 211.799804688 182.259765625 211.799804688 201.83984375 179 c 0,22,23
 221.419921875 146.200195312 221.419921875 146.200195312 221.419921875 107.25 c 0,24,25
 221.419921875 72.400390625 221.419921875 72.400390625 208.959960938 38.5751953125 c 0,26,27
 196.5 4.75 196.5 4.75 175.139648438 -22.9248046875 c 0,28,29
 153.780273438 -50.599609375 153.780273438 -50.599609375 126.190429688 -68.025390625 c 0,30,31
 98.599609375 -85.4501953125 98.599609375 -85.4501953125 66.5595703125 -85.4501953125 c 0,0,1
91.48046875 117.5 m 0,32,33
 93.259765625 127.75 93.259765625 127.75 99.490234375 138 c 0,34,35
 105.719726562 148.25 105.719726562 148.25 109.280273438 154.400390625 c 0,36,37
 112.83984375 162.599609375 112.83984375 162.599609375 112.83984375 172.849609375 c 0,38,39
 112.83984375 174.900390625 112.83984375 174.900390625 111.059570312 176.950195312 c 0,40,41
 96.8203125 176.950195312 96.8203125 176.950195312 84.3603515625 150.299804688 c 0,42,43
 71.900390625 123.650390625 71.900390625 123.650390625 71.900390625 107.25 c 0,44,45
 71.900390625 82.650390625 71.900390625 82.650390625 75.4599609375 82.650390625 c 0,46,47
 86.1396484375 82.650390625 86.1396484375 82.650390625 91.48046875 117.5 c 0,32,33
EndSplineSet
Refer: 14 46 N 1 0 0 1 6 392 2
EndChar

StartChar: less.telu
Encoding: 60 60 28
Width: 572
Flags: W
LayerCount: 2
Fore
SplineSet
521 116 m 1,0,-1
 50 323 l 1,1,-1
 50 373 l 1,2,-1
 521 608 l 1,3,-1
 521 530 l 1,4,-1
 144 352 l 1,5,-1
 521 194 l 1,6,-1
 521 116 l 1,0,-1
EndSplineSet
EndChar

StartChar: equal.telu
Encoding: 61 61 29
Width: 572
Flags: W
LayerCount: 2
Fore
SplineSet
56 416 m 1,0,-1
 56 487 l 1,1,-1
 514 487 l 1,2,-1
 514 416 l 1,3,-1
 56 416 l 1,0,-1
56 217 m 5,4,-1
 56 288 l 5,5,-1
 514 288 l 5,6,-1
 514 217 l 5,7,-1
 56 217 l 5,4,-1
EndSplineSet
EndChar

StartChar: greater.telu
Encoding: 62 62 30
Width: 572
Flags: W
LayerCount: 2
Fore
SplineSet
50 194 m 1,0,-1
 427 351 l 1,1,-1
 50 530 l 1,2,-1
 50 608 l 1,3,-1
 521 373 l 1,4,-1
 521 323 l 1,5,-1
 50 116 l 1,6,-1
 50 194 l 1,0,-1
EndSplineSet
EndChar

StartChar: question.telu
Encoding: 63 63 31
Width: 434
Flags: W
LayerCount: 2
Fore
SplineSet
140 199 m 6,0,1
 140 237 140 237 147.5 264.5 c 132,-1,2
 155 292 155 292 173.5 317 c 132,-1,3
 192 342 192 342 224 369 c 4,4,5
 263 402 263 402 284.5 424 c 132,-1,6
 306 446 306 446 315 467 c 132,-1,7
 324 488 324 488 324 518 c 4,8,9
 324 566 324 566 293 592 c 132,-1,10
 262 618 262 618 203 618 c 4,11,12
 154 618 154 618 116 605.5 c 132,-1,13
 78 593 78 593 43 576 c 5,14,-1
 12 646 l 5,15,16
 52 667 52 667 100.5 681 c 132,-1,17
 149 695 149 695 209 695 c 4,18,19
 304 695 304 695 356 648 c 132,-1,20
 408 601 408 601 408 520 c 4,21,22
 408 475 408 475 393.5 443.5 c 132,-1,23
 379 412 379 412 352.5 385.5 c 132,-1,24
 326 359 326 359 290 329 c 4,25,26
 257 301 257 301 239.5 280 c 132,-1,27
 222 259 222 259 216 238.5 c 132,-1,28
 210 218 210 218 210 189 c 6,29,-1
 210 172 l 5,30,-1
 140 172 l 5,31,-1
 140 199 l 6,0,1
117 25 m 4,32,33
 117 62 117 62 134.5 77 c 132,-1,34
 152 92 152 92 179 92 c 4,35,36
 204 92 204 92 222 77 c 132,-1,37
 240 62 240 62 240 25 c 4,38,39
 240 -11 240 -11 222 -27 c 132,-1,40
 204 -43 204 -43 179 -43 c 4,41,42
 152 -43 152 -43 134.5 -27 c 132,-1,43
 117 -11 117 -11 117 25 c 4,32,33
EndSplineSet
EndChar

StartChar: bracketleft.telu
Encoding: 91 91 32
Width: 266
VWidth: 1024
Flags: W
LayerCount: 2
Fore
SplineSet
45 -72 m 0,0,1
 42 -69 42 -69 40.5 -58 c 128,-1,2
 39 -47 39 -47 38 -12.5 c 128,-1,3
 37 22 37 22 37 89 c 128,-1,4
 37 156 37 156 37 272 c 0,5,6
 37 355 37 355 37 414.5 c 128,-1,7
 37 474 37 474 37 515.5 c 128,-1,8
 37 557 37 557 38 583.5 c 128,-1,9
 39 610 39 610 41 626 c 128,-1,10
 43 642 43 642 46 650 c 128,-1,11
 49 658 49 658 54 665 c 0,12,13
 58 670 58 670 70 673 c 128,-1,14
 82 676 82 676 98 677.5 c 128,-1,15
 114 679 114 679 134 679.5 c 128,-1,16
 154 680 154 680 174 680 c 0,17,18
 216 680 216 680 237 665.5 c 128,-1,19
 258 651 258 651 239 631 c 0,20,21
 234 625 234 625 219.5 620.5 c 128,-1,22
 205 616 205 616 174 616 c 0,23,24
 160 616 160 616 152 614 c 128,-1,25
 144 612 144 612 141 607 c 128,-1,26
 138 602 138 602 138 593.5 c 128,-1,27
 138 585 138 585 138 570 c 2,28,-1
 138 -20 l 1,29,-1
 157 -20 l 2,30,31
 201 -20 201 -20 215.5 -28 c 128,-1,32
 230 -36 230 -36 230 -57 c 0,33,34
 230 -67 230 -67 226.5 -73 c 128,-1,35
 223 -79 223 -79 212.5 -81.5 c 128,-1,36
 202 -84 202 -84 183.5 -84.5 c 128,-1,37
 165 -85 165 -85 134 -85 c 0,38,39
 106 -85 106 -85 90.5 -85 c 128,-1,40
 75 -85 75 -85 65.5 -83.5 c 128,-1,41
 56 -82 56 -82 52 -79.5 c 128,-1,42
 48 -77 48 -77 45 -72 c 0,0,1
83 631 m 256,43,44
 85 639 85 639 94 645 c 128,-1,45
 103 651 103 651 110 651 c 0,46,47
 119 651 119 651 119 658 c 0,48,49
 119 659 119 659 117.5 659 c 128,-1,50
 116 659 116 659 110 659 c 0,51,52
 95 659 95 659 80.5 649 c 128,-1,53
 66 639 66 639 66 625 c 0,54,55
 66 613 66 613 70 612 c 256,56,57
 74 612 74 612 77.5 617.5 c 128,-1,58
 81 623 81 623 83 631 c 256,43,44
EndSplineSet
EndChar

StartChar: backslash.telu
Encoding: 92 92 33
Width: 393
VWidth: 1024
Flags: W
LayerCount: 2
Fore
SplineSet
84 682 m 0,0,1
 91 682 91 682 109.5 645.5 c 128,-1,2
 128 609 128 609 152 554 c 128,-1,3
 176 499 176 499 202.5 433 c 128,-1,4
 229 367 229 367 252.5 307 c 128,-1,5
 276 247 276 247 293 202.5 c 128,-1,6
 310 158 310 158 316 145 c 0,7,8
 322 132 322 132 334 104 c 128,-1,9
 346 76 346 76 358 45.5 c 128,-1,10
 370 15 370 15 378.5 -11 c 128,-1,11
 387 -37 387 -37 387 -45 c 0,12,13
 387 -52 387 -52 382 -58.5 c 128,-1,14
 377 -65 377 -65 369 -69.5 c 128,-1,15
 361 -74 361 -74 352.5 -76.5 c 128,-1,16
 344 -79 344 -79 337 -79 c 0,17,18
 323 -79 323 -79 311 -69 c 128,-1,19
 299 -59 299 -59 292 -48 c 0,20,21
 286 -38 286 -38 270.5 -3 c 128,-1,22
 255 32 255 32 234.5 81.5 c 128,-1,23
 214 131 214 131 189.5 191.5 c 128,-1,24
 165 252 165 252 140.5 313.5 c 128,-1,25
 116 375 116 375 93 433.5 c 128,-1,26
 70 492 70 492 52.5 538 c 128,-1,27
 35 584 35 584 24 613 c 128,-1,28
 13 642 13 642 13 645 c 0,29,30
 13 654 13 654 22.5 661.5 c 128,-1,31
 32 669 32 669 44 673.5 c 128,-1,32
 56 678 56 678 68 680 c 128,-1,33
 80 682 80 682 84 682 c 0,0,1
58 641 m 0,34,35
 56 646 56 646 48.5 644 c 128,-1,36
 41 642 41 642 41 635 c 0,37,38
 41 629 41 629 46 614 c 128,-1,39
 51 599 51 599 58 583 c 128,-1,40
 65 567 65 567 71.5 553.5 c 128,-1,41
 78 540 78 540 80 536 c 0,42,43
 83 531 83 531 88 530.5 c 128,-1,44
 93 530 93 530 95 531 c 0,45,46
 100 532 100 532 96.5 545 c 128,-1,47
 93 558 93 558 86 575 c 128,-1,48
 79 592 79 592 70.5 610.5 c 128,-1,49
 62 629 62 629 58 641 c 0,34,35
EndSplineSet
EndChar

StartChar: bracketright.telu
Encoding: 93 93 34
Width: 244
VWidth: 1024
Flags: W
LayerCount: 2
Fore
SplineSet
51 -82 m 0,0,1
 36 -82 36 -82 25 -73.5 c 128,-1,2
 14 -65 14 -65 14 -56 c 0,3,4
 14 -33 14 -33 28 -25 c 128,-1,5
 42 -17 42 -17 62 -17 c 0,6,7
 87 -17 87 -17 101 -15 c 128,-1,8
 115 -13 115 -13 121.5 -8.5 c 128,-1,9
 128 -4 128 -4 129.5 3.5 c 128,-1,10
 131 11 131 11 131 22 c 2,11,-1
 131 564 l 2,12,13
 131 594 131 594 118.5 604 c 128,-1,14
 106 614 106 614 95 614 c 256,15,16
 84 614 84 614 71.5 612 c 128,-1,17
 59 610 59 610 48 610 c 0,18,19
 34 610 34 610 24 617.5 c 128,-1,20
 14 625 14 625 14 648 c 0,21,22
 14 660 14 660 31 669 c 128,-1,23
 48 678 48 678 78 678 c 0,24,25
 104 678 104 678 128.5 678 c 128,-1,26
 153 678 153 678 173 676.5 c 128,-1,27
 193 675 193 675 206 672 c 128,-1,28
 219 669 219 669 222 663 c 0,29,30
 225 658 225 658 225.5 641 c 128,-1,31
 226 624 226 624 226 584.5 c 128,-1,32
 226 545 226 545 226.5 477.5 c 128,-1,33
 227 410 227 410 228 302 c 0,34,35
 230 198 230 198 231 130.5 c 128,-1,36
 232 63 232 63 231 22 c 0,37,38
 231 -7 231 -7 227 -25.5 c 128,-1,39
 223 -44 223 -44 217 -55.5 c 128,-1,40
 211 -67 211 -67 202.5 -72 c 128,-1,41
 194 -77 194 -77 183 -78 c 0,42,43
 165 -80 165 -80 143 -81 c 128,-1,44
 121 -82 121 -82 101.5 -82 c 128,-1,45
 82 -82 82 -82 67.5 -82 c 128,-1,46
 53 -82 53 -82 51 -82 c 0,0,1
46 659 m 256,47,48
 42 664 42 664 35 660 c 128,-1,49
 28 656 28 656 28 648 c 0,50,51
 28 638 28 638 32 638 c 256,52,53
 36 638 36 638 36 645 c 0,54,55
 37 649 37 649 43.5 651.5 c 128,-1,56
 50 654 50 654 46 659 c 256,47,48
EndSplineSet
EndChar

StartChar: asciicircum.telu
Encoding: 94 94 35
Width: 585
VWidth: 1024
Flags: W
LayerCount: 2
Fore
SplineSet
39 273 m 1,0,-1
 256 736 l 1,1,-1
 307 736 l 1,2,-1
 547 273 l 1,3,-1
 467 273 l 1,4,-1
 283 641 l 1,5,-1
 119 273 l 1,6,-1
 39 273 l 1,0,-1
EndSplineSet
EndChar

StartChar: underscore.telu
Encoding: 95 95 36
Width: 454
VWidth: 1024
Flags: W
LayerCount: 2
Fore
SplineSet
457 -158 m 1,0,-1
 -2 -158 l 1,1,-1
 -2 -92 l 1,2,-1
 457 -92 l 1,3,-1
 457 -158 l 1,0,-1
EndSplineSet
EndChar

StartChar: braceleft.telu
Encoding: 123 123 37
Width: 322
Flags: W
LayerCount: 2
Fore
SplineSet
241 -77 m 0,0,1
 188 -77 188 -77 158 -62 c 128,-1,2
 128 -47 128 -47 112.5 -21 c 128,-1,3
 97 5 97 5 92.5 39 c 128,-1,4
 88 73 88 73 86 111 c 0,5,6
 84 156 84 156 73.5 178 c 128,-1,7
 63 200 63 200 51.5 213 c 128,-1,8
 40 226 40 226 31 238 c 128,-1,9
 22 250 22 250 22 276 c 256,10,11
 22 302 22 302 35 315.5 c 128,-1,12
 48 329 48 329 64 345 c 128,-1,13
 80 361 80 361 94 387.5 c 128,-1,14
 108 414 108 414 110 466 c 0,15,16
 112 505 112 505 115 540.5 c 128,-1,17
 118 576 118 576 131.5 602.5 c 128,-1,18
 145 629 145 629 173.5 644.5 c 128,-1,19
 202 660 202 660 256 660 c 0,20,21
 271 660 271 660 281 656 c 128,-1,22
 291 652 291 652 297 646 c 128,-1,23
 303 640 303 640 305 633.5 c 128,-1,24
 307 627 307 627 307 622 c 0,25,26
 307 606 307 606 294.5 602 c 128,-1,27
 282 598 282 598 265 596.5 c 128,-1,28
 248 595 248 595 230 591 c 128,-1,29
 212 587 212 587 200 572 c 0,30,31
 192 562 192 562 193 540.5 c 128,-1,32
 194 519 194 519 197 492.5 c 128,-1,33
 200 466 200 466 201.5 436 c 128,-1,34
 203 406 203 406 197 378 c 0,35,36
 194 364 194 364 180.5 348 c 128,-1,37
 167 332 167 332 153 318 c 128,-1,38
 139 304 139 304 127.5 293 c 128,-1,39
 116 282 116 282 116 277 c 256,40,41
 116 272 116 272 127 260.5 c 128,-1,42
 138 249 138 249 151 232 c 128,-1,43
 164 215 164 215 175 192.5 c 128,-1,44
 186 170 186 170 186 143 c 0,45,46
 186 135 186 135 185 115.5 c 128,-1,47
 184 96 184 96 183.5 74.5 c 128,-1,48
 183 53 183 53 184.5 34 c 128,-1,49
 186 15 186 15 191 9 c 0,50,51
 200 -2 200 -2 213 -10 c 128,-1,52
 226 -18 226 -18 243 -18 c 0,53,54
 251 -18 251 -18 260.5 -18.5 c 128,-1,55
 270 -19 270 -19 277.5 -21.5 c 128,-1,56
 285 -24 285 -24 290 -30 c 128,-1,57
 295 -36 295 -36 295 -47 c 0,58,59
 295 -56 295 -56 289.5 -62 c 128,-1,60
 284 -68 284 -68 276 -71.5 c 128,-1,61
 268 -75 268 -75 258.5 -76 c 128,-1,62
 249 -77 249 -77 241 -77 c 0,0,1
160 584 m 0,63,64
 167 594 167 594 175.5 601.5 c 128,-1,65
 184 609 184 609 191.5 615 c 128,-1,66
 199 621 199 621 203.5 626 c 128,-1,67
 208 631 208 631 208 636 c 0,68,69
 208 640 208 640 203 640 c 0,70,71
 196 640 196 640 185 633 c 128,-1,72
 174 626 174 626 164 616 c 128,-1,73
 154 606 154 606 147 594.5 c 128,-1,74
 140 583 140 583 140 574 c 0,75,76
 140 572 140 572 142 571 c 128,-1,77
 144 570 144 570 145 570 c 0,78,79
 150 570 150 570 153.5 575 c 128,-1,80
 157 580 157 580 160 584 c 0,63,64
EndSplineSet
EndChar

StartChar: bar.telu
Encoding: 124 124 38
Width: 179
Flags: W
LayerCount: 2
Fore
SplineSet
97 -99 m 256,0,1
 70 -99 70 -99 58.5 -80 c 128,-1,2
 47 -61 47 -61 47 -43 c 2,3,-1
 48 666 l 2,4,5
 48 682 48 682 58.5 694 c 128,-1,6
 69 706 69 706 89 706 c 0,7,8
 113 706 113 706 127 698 c 128,-1,9
 141 690 141 690 143 672 c 2,10,-1
 143 -38 l 2,11,12
 143 -60 143 -60 133.5 -79.5 c 128,-1,13
 124 -99 124 -99 97 -99 c 256,0,1
75 653 m 0,14,15
 75 664 75 664 77.5 671.5 c 128,-1,16
 80 679 80 679 81.5 683.5 c 128,-1,17
 83 688 83 688 83 690 c 128,-1,18
 83 692 83 692 78 692 c 0,19,20
 72 692 72 692 68.5 686.5 c 128,-1,21
 65 681 65 681 63 673.5 c 128,-1,22
 61 666 61 666 60.5 658.5 c 128,-1,23
 60 651 60 651 60 646 c 0,24,25
 60 633 60 633 63 622.5 c 128,-1,26
 66 612 66 612 72 612 c 0,27,28
 75 612 75 612 75.5 616.5 c 128,-1,29
 76 621 76 621 76 628 c 128,-1,30
 76 635 76 635 75.5 642 c 128,-1,31
 75 649 75 649 75 653 c 0,14,15
EndSplineSet
EndChar

StartChar: braceright.telu
Encoding: 125 125 39
Width: 313
Flags: W
LayerCount: 2
Fore
SplineSet
75 -74 m 0,0,1
 68 -74 68 -74 59 -72.5 c 128,-1,2
 50 -71 50 -71 41.5 -67 c 128,-1,3
 33 -63 33 -63 27 -57 c 128,-1,4
 21 -51 21 -51 21 -42 c 0,5,6
 21 -34 21 -34 26 -29.5 c 128,-1,7
 31 -25 31 -25 37.5 -23 c 128,-1,8
 44 -21 44 -21 52 -21 c 128,-1,9
 60 -21 60 -21 66 -21 c 0,10,11
 93 -21 93 -21 105 -12.5 c 128,-1,12
 117 -4 117 -4 121.5 10.5 c 128,-1,13
 126 25 126 25 126 43 c 128,-1,14
 126 61 126 61 128 80 c 0,15,16
 130 97 130 97 132 122.5 c 128,-1,17
 134 148 134 148 139.5 175 c 128,-1,18
 145 202 145 202 153.5 226.5 c 128,-1,19
 162 251 162 251 175 264 c 0,20,21
 177 267 177 267 185 271.5 c 128,-1,22
 193 276 193 276 193 280 c 0,23,24
 193 286 193 286 181.5 289.5 c 128,-1,25
 170 293 170 293 166 296 c 0,26,27
 150 306 150 306 139.5 334 c 128,-1,28
 129 362 129 362 123.5 395 c 128,-1,29
 118 428 118 428 115.5 459 c 128,-1,30
 113 490 113 490 112 505 c 0,31,32
 111 514 111 514 111.5 529 c 128,-1,33
 112 544 112 544 110.5 558 c 128,-1,34
 109 572 109 572 105.5 583 c 128,-1,35
 102 594 102 594 93 596 c 0,36,37
 75 601 75 601 57 599 c 0,38,39
 28 597 28 597 15.5 605.5 c 128,-1,40
 3 614 3 614 3 631 c 0,41,42
 3 653 3 653 25.5 660.5 c 128,-1,43
 48 668 48 668 81 663 c 0,44,45
 117 659 117 659 140.5 642.5 c 128,-1,46
 164 626 164 626 178 603 c 128,-1,47
 192 580 192 580 198.5 553.5 c 128,-1,48
 205 527 205 527 207 502 c 0,49,50
 209 472 209 472 210 443 c 128,-1,51
 211 414 211 414 215.5 389 c 128,-1,52
 220 364 220 364 230.5 344.5 c 128,-1,53
 241 325 241 325 262 315 c 0,54,55
 271 311 271 311 283 301.5 c 128,-1,56
 295 292 295 292 295 281 c 0,57,58
 295 273 295 273 289 267.5 c 128,-1,59
 283 262 283 262 277 257 c 0,60,61
 257 242 257 242 248 227.5 c 128,-1,62
 239 213 239 213 235.5 197.5 c 128,-1,63
 232 182 232 182 232 164.5 c 128,-1,64
 232 147 232 147 231 126 c 0,65,66
 229 87 229 87 225.5 51 c 128,-1,67
 222 15 222 15 207.5 -12.5 c 128,-1,68
 193 -40 193 -40 162 -57 c 128,-1,69
 131 -74 131 -74 75 -74 c 0,0,1
28 616 m 0,70,71
 31 616 31 616 34.5 620.5 c 128,-1,72
 38 625 38 625 40.5 630.5 c 128,-1,73
 43 636 43 636 44.5 641.5 c 128,-1,74
 46 647 46 647 46 649 c 0,75,76
 46 656 46 656 39 656 c 0,77,78
 33 656 33 656 29 652 c 128,-1,79
 25 648 25 648 22.5 643 c 128,-1,80
 20 638 20 638 19 632.5 c 128,-1,81
 18 627 18 627 19 625 c 0,82,83
 22 616 22 616 28 616 c 0,70,71
EndSplineSet
EndChar

StartChar: asciitilde.telu
Encoding: 126 126 40
Width: 572
Flags: W
LayerCount: 2
Fore
SplineSet
269 319 m 0,0,1
 233 335 233 335 209.5 340.5 c 128,-1,2
 186 346 186 346 164 346 c 0,3,4
 136 346 136 346 105 329 c 128,-1,5
 74 312 74 312 50 287 c 1,6,-1
 50 365 l 1,7,8
 74 391 74 391 104 404.5 c 128,-1,9
 134 418 134 418 170 418 c 0,10,11
 199 418 199 418 227.5 412 c 128,-1,12
 256 406 256 406 302 386 c 0,13,14
 338 370 338 370 361.5 364.5 c 128,-1,15
 385 359 385 359 406 359 c 0,16,17
 435 359 435 359 466 376 c 128,-1,18
 497 393 497 393 521 418 c 1,19,-1
 521 341 l 1,20,21
 497 315 497 315 467 301 c 128,-1,22
 437 287 437 287 401 287 c 0,23,24
 373 287 373 287 343.5 293.5 c 128,-1,25
 314 300 314 300 269 319 c 0,0,1
EndSplineSet
EndChar

StartChar: A
Encoding: 65 65 41
Width: 574
Flags: W
LayerCount: 2
Fore
SplineSet
245 221 m 0,0,1
 218.400390625 221 218.400390625 221 202.299804688 237.25 c 0,2,3
 186.200195312 253.5 186.200195312 253.5 186.200195312 280.799804688 c 0,4,5
 186.200195312 305.5 186.200195312 305.5 200.200195312 326.950195312 c 0,6,7
 214.200195312 348.400390625 214.200195312 348.400390625 245 348.400390625 c 0,8,9
 277.200195312 348.400390625 277.200195312 348.400390625 294 328.25 c 0,10,11
 310.799804688 308.100585938 310.799804688 308.100585938 310.799804688 280.799804688 c 0,12,13
 310.799804688 250.900390625 310.799804688 250.900390625 291.900390625 235.950195312 c 0,14,15
 273 221 273 221 245 221 c 0,0,1
219.799804688 288.600585938 m 0,16,17
 221.200195312 302.900390625 221.200195312 302.900390625 226.799804688 314.600585938 c 0,18,19
 232.400390625 326.299804688 232.400390625 326.299804688 225.400390625 326.299804688 c 0,20,21
 215.600585938 326.299804688 215.600585938 326.299804688 209.299804688 307.450195312 c 0,22,23
 203 288.600585938 203 288.600585938 203 274.299804688 c 0,24,25
 203 261.299804688 203 261.299804688 210 261.299804688 c 0,26,27
 215.600585938 261.299804688 215.600585938 261.299804688 217 271.049804688 c 0,28,29
 218.400390625 280.799804688 218.400390625 280.799804688 219.799804688 288.600585938 c 0,16,17
EndSplineSet
Refer: 67 97 S 1 0 0 1 0 0 2
EndChar

StartChar: B
Encoding: 66 66 42
Width: 750
Flags: W
LayerCount: 2
Fore
SplineSet
533 -12 m 0,0,1
 496 -12 496 -12 466 -2.5 c 128,-1,2
 436 7 436 7 411.5 29 c 128,-1,3
 387 51 387 51 365 90 c 1,4,-1
 386 90 l 1,5,6
 360 49 360 49 333 27 c 128,-1,7
 306 5 306 5 275 -3.5 c 128,-1,8
 244 -12 244 -12 205 -12 c 0,9,10
 150 -12 150 -12 113.5 7.5 c 128,-1,11
 77 27 77 27 59 59.5 c 128,-1,12
 41 92 41 92 41 130 c 0,13,14
 41 171 41 171 57.5 200 c 128,-1,15
 74 229 74 229 107 250.5 c 128,-1,16
 140 272 140 272 189 289 c 0,17,18
 230 304 230 304 254 321 c 128,-1,19
 278 338 278 338 278 371 c 0,20,21
 278 387 278 387 271 399.5 c 128,-1,22
 264 412 264 412 247.5 419.5 c 128,-1,23
 231 427 231 427 203 427 c 0,24,25
 160 427 160 427 139 410.5 c 128,-1,26
 118 394 118 394 118 365 c 0,27,28
 118 352 118 352 121.5 341 c 128,-1,29
 125 330 125 330 128 323 c 1,30,-1
 53 302 l 1,31,32
 45 317 45 317 40.5 335.5 c 128,-1,33
 36 354 36 354 36 375 c 0,34,35
 36 407 36 407 53 435.5 c 128,-1,36
 70 464 70 464 107 482 c 128,-1,37
 144 500 144 500 203 500 c 0,38,39
 263 500 263 500 297 480 c 128,-1,40
 331 460 331 460 345.5 430 c 128,-1,41
 360 400 360 400 360 370 c 0,42,43
 360 332 360 332 345 305.5 c 128,-1,44
 330 279 330 279 300.5 260 c 128,-1,45
 271 241 271 241 227 225 c 0,46,47
 174 205 174 205 148.5 184.5 c 128,-1,48
 123 164 123 164 123 131 c 0,49,50
 123 102 123 102 143.5 84.5 c 128,-1,51
 164 67 164 67 207 67 c 0,52,53
 249 67 249 67 276.5 81.5 c 128,-1,54
 304 96 304 96 318.5 123 c 128,-1,55
 333 150 333 150 336 185 c 1,56,-1
 414 185 l 1,57,58
 417 144 417 144 433 118 c 128,-1,59
 449 92 449 92 473 79.5 c 128,-1,60
 497 67 497 67 525 67 c 0,61,62
 580 67 580 67 606 99.5 c 128,-1,63
 632 132 632 132 632 193 c 0,64,65
 632 251 632 251 608.5 294.5 c 128,-1,66
 585 338 585 338 545.5 369.5 c 128,-1,67
 506 401 506 401 456 423 c 1,68,-1
 493 500 l 1,69,70
 555 474 555 474 605 430 c 128,-1,71
 655 386 655 386 685 328 c 128,-1,72
 715 270 715 270 715 199 c 0,73,74
 715 132 715 132 692.5 84.5 c 128,-1,75
 670 37 670 37 629.5 12.5 c 128,-1,76
 589 -12 589 -12 533 -12 c 0,0,1
EndSplineSet
EndChar

StartChar: C
Encoding: 67 67 43
Width: 537
Flags: W
LayerCount: 2
Fore
SplineSet
267.099609375 603.049804688 m 0,0,1
 240.5 603.049804688 240.5 603.049804688 224.399414062 619.299804688 c 0,2,3
 208.299804688 635.549804688 208.299804688 635.549804688 208.299804688 662.849609375 c 0,4,5
 208.299804688 687.549804688 208.299804688 687.549804688 222.299804688 709 c 0,6,7
 236.299804688 730.450195312 236.299804688 730.450195312 267.099609375 730.450195312 c 0,8,9
 299.299804688 730.450195312 299.299804688 730.450195312 316.099609375 710.299804688 c 0,10,11
 332.899414062 690.150390625 332.899414062 690.150390625 332.899414062 662.849609375 c 0,12,13
 332.899414062 632.950195312 332.899414062 632.950195312 314 618 c 0,14,15
 295.099609375 603.049804688 295.099609375 603.049804688 267.099609375 603.049804688 c 0,0,1
241.899414062 670.650390625 m 0,16,17
 243.299804688 684.950195312 243.299804688 684.950195312 248.899414062 696.650390625 c 0,18,19
 254.5 708.349609375 254.5 708.349609375 247.5 708.349609375 c 0,20,21
 237.700195312 708.349609375 237.700195312 708.349609375 231.399414062 689.5 c 0,22,23
 225.099609375 670.650390625 225.099609375 670.650390625 225.099609375 656.349609375 c 0,24,25
 225.099609375 643.349609375 225.099609375 643.349609375 232.099609375 643.349609375 c 0,26,27
 237.700195312 643.349609375 237.700195312 643.349609375 239.099609375 653.099609375 c 0,28,29
 240.5 662.849609375 240.5 662.849609375 241.899414062 670.650390625 c 0,16,17
EndSplineSet
Refer: 69 99 S 1 0 0 1 0 0 2
EndChar

StartChar: D
Encoding: 68 68 44
Width: 740
Flags: W
LayerCount: 2
Fore
SplineSet
344 425 m 4,0,1
 315 425 315 425 288.5 436 c 132,-1,2
 262 447 262 447 240 477.5 c 132,-1,3
 218 508 218 508 202 564 c 5,4,-1
 285 591 l 5,5,6
 300 536 300 536 314 518 c 132,-1,7
 328 500 328 500 350 500 c 4,8,9
 370 500 370 500 387.5 512.5 c 132,-1,10
 405 525 405 525 437 565 c 6,11,-1
 468 605 l 6,12,13
 502 649 502 649 530.5 675 c 132,-1,14
 559 701 559 701 591 713 c 132,-1,15
 623 725 623 725 667 725 c 5,16,-1
 673 648 l 5,17,18
 638 646 638 646 614.5 637 c 132,-1,19
 591 628 591 628 571.5 608.5 c 132,-1,20
 552 589 552 589 526 556 c 6,21,-1
 503 526 l 6,22,23
 475 490 475 490 450 468 c 132,-1,24
 425 446 425 446 399.5 435.5 c 132,-1,25
 374 425 374 425 344 425 c 4,0,1
546 -12 m 4,26,27
 491 -12 491 -12 452 -0.5 c 132,-1,28
 413 11 413 11 388 32.5 c 132,-1,29
 363 54 363 54 346 84 c 5,30,-1
 362 91 l 5,31,32
 341 48 341 48 315 25.5 c 132,-1,33
 289 3 289 3 260 -4.5 c 132,-1,34
 231 -12 231 -12 198 -12 c 4,35,36
 125 -12 125 -12 80 43 c 132,-1,37
 35 98 35 98 35 194 c 4,38,39
 35 291 35 291 77.5 359 c 132,-1,40
 120 427 120 427 198.5 463.5 c 132,-1,41
 277 500 277 500 383 500 c 4,42,43
 436 500 436 500 481 490.5 c 132,-1,44
 526 481 526 481 565.5 464 c 132,-1,45
 605 447 605 447 642 424 c 5,46,-1
 593 358 l 5,47,48
 559 380 559 380 526 395 c 132,-1,49
 493 410 493 410 457 417.5 c 132,-1,50
 421 425 421 425 377 425 c 4,51,52
 295 425 295 425 237 398.5 c 132,-1,53
 179 372 179 372 148.5 321 c 132,-1,54
 118 270 118 270 118 197 c 4,55,56
 118 127 118 127 142.5 97 c 132,-1,57
 167 67 167 67 210 67 c 4,58,59
 257 67 257 67 283.5 99.5 c 132,-1,60
 310 132 310 132 314 185 c 5,61,-1
 392 185 l 5,62,63
 394 146 394 146 410.5 116 c 132,-1,64
 427 86 427 86 463 76 c 4,65,66
 480 69 480 69 501.5 66 c 132,-1,67
 523 63 523 63 550 63 c 4,68,69
 591 63 591 63 611 80.5 c 132,-1,70
 631 98 631 98 631 129 c 260,71,72
 631 160 631 160 612.5 174 c 132,-1,73
 594 188 594 188 565 188 c 4,74,75
 538 188 538 188 518.5 173.5 c 132,-1,76
 499 159 499 159 499 124 c 4,77,78
 499 99 499 99 509 79 c 132,-1,79
 519 59 519 59 533 46 c 5,80,-1
 467 35 l 5,81,82
 453 57 453 57 441 83 c 132,-1,83
 429 109 429 109 429 141 c 4,84,85
 429 197 429 197 467.5 231 c 132,-1,86
 506 265 506 265 569 265 c 4,87,88
 611 265 611 265 643 248 c 132,-1,89
 675 231 675 231 693 201.5 c 132,-1,90
 711 172 711 172 711 135 c 4,91,92
 711 97 711 97 698.5 69.5 c 132,-1,93
 686 42 686 42 663.5 24 c 132,-1,94
 641 6 641 6 611 -3 c 132,-1,95
 581 -12 581 -12 546 -12 c 4,26,27
EndSplineSet
EndChar

StartChar: E
Encoding: 69 69 45
Width: 362
Flags: W
LayerCount: 2
Fore
SplineSet
195 -4 m 0,0,1
 157 -4 157 -4 125.5 1.5 c 128,-1,2
 94 7 94 7 71 21 c 128,-1,3
 48 35 48 35 35.5 58.5 c 128,-1,4
 23 82 23 82 23 118 c 2,5,-1
 23 527 l 2,6,7
 23 553 23 553 30.5 570.5 c 128,-1,8
 38 588 38 588 49.5 598 c 128,-1,9
 61 608 61 608 74.5 612 c 128,-1,10
 88 616 88 616 101 616 c 2,11,-1
 296 616 l 2,12,13
 314 616 314 616 323 602 c 128,-1,14
 332 588 332 588 332 571 c 256,15,16
 332 554 332 554 324 537.5 c 128,-1,17
 316 521 316 521 300 520 c 2,18,-1
 159 516 l 2,19,20
 149 516 149 516 143 509 c 128,-1,21
 137 502 137 502 137 492 c 2,22,-1
 137 400 l 2,23,24
 137 370 137 370 159 370 c 2,25,-1
 278 371 l 2,26,27
 298 371 298 371 304.5 355 c 128,-1,28
 311 339 311 339 311 319 c 0,29,30
 311 306 311 306 305 293 c 128,-1,31
 299 280 299 280 279 279 c 2,32,-1
 164 275 l 2,33,34
 148 274 148 274 142.5 267 c 128,-1,35
 137 260 137 260 137 244 c 2,36,-1
 137 178 l 2,37,38
 137 157 137 157 138 140.5 c 128,-1,39
 139 124 139 124 145 112.5 c 128,-1,40
 151 101 151 101 164.5 95 c 128,-1,41
 178 89 178 89 203 89 c 0,42,43
 220 89 220 89 236.5 93.5 c 128,-1,44
 253 98 253 98 268.5 104 c 128,-1,45
 284 110 284 110 297 114.5 c 128,-1,46
 310 119 310 119 320 119 c 0,47,48
 327 119 327 119 332 113.5 c 128,-1,49
 337 108 337 108 340 99.5 c 128,-1,50
 343 91 343 91 344.5 82 c 128,-1,51
 346 73 346 73 346 65 c 0,52,53
 346 45 346 45 328 31.5 c 128,-1,54
 310 18 310 18 285.5 10 c 128,-1,55
 261 2 261 2 235.5 -1 c 128,-1,56
 210 -4 210 -4 195 -4 c 0,0,1
87 60 m 0,57,58
 75 76 75 76 66 91.5 c 128,-1,59
 57 107 57 107 55 122 c 0,60,61
 52 136 52 136 46 135 c 0,62,63
 38 135 38 135 41 117 c 0,64,65
 42 108 42 108 46.5 95 c 128,-1,66
 51 82 51 82 57 71 c 128,-1,67
 63 60 63 60 71 52.5 c 128,-1,68
 79 45 79 45 88 46 c 0,69,70
 96 48 96 48 87 60 c 0,57,58
EndSplineSet
EndChar

StartChar: F
Encoding: 70 70 46
Width: 711
Flags: W
LayerCount: 2
Fore
SplineSet
197 425 m 4,0,1
 168 425 168 425 141.5 436 c 132,-1,2
 115 447 115 447 93 477.5 c 132,-1,3
 71 508 71 508 55 564 c 5,4,-1
 138 591 l 5,5,6
 153 536 153 536 167 518 c 132,-1,7
 181 500 181 500 203 500 c 4,8,9
 223 500 223 500 240.5 512.5 c 132,-1,10
 258 525 258 525 290 565 c 6,11,-1
 321 605 l 6,12,13
 355 649 355 649 383.5 675 c 132,-1,14
 412 701 412 701 444 713 c 132,-1,15
 476 725 476 725 520 725 c 5,16,-1
 526 648 l 5,17,18
 491 646 491 646 467.5 637 c 132,-1,19
 444 628 444 628 424.5 608.5 c 132,-1,20
 405 589 405 589 379 556 c 6,21,-1
 356 526 l 6,22,23
 328 490 328 490 303 468 c 132,-1,24
 278 446 278 446 252.5 435.5 c 132,-1,25
 227 425 227 425 197 425 c 4,0,1
485 -12 m 4,26,27
 437 -12 437 -12 401.5 6 c 132,-1,28
 366 24 366 24 336 56 c 132,-1,29
 306 88 306 88 273 131 c 4,30,31
 244 171 244 171 223 189 c 132,-1,32
 202 207 202 207 172 207 c 4,33,34
 144 207 144 207 125.5 189 c 132,-1,35
 107 171 107 171 107 136 c 4,36,37
 107 105 107 105 126.5 84 c 132,-1,38
 146 63 146 63 180 63 c 260,39,40
 214 63 214 63 236.5 83 c 132,-1,41
 259 103 259 103 275 141 c 5,42,-1
 328 81 l 5,43,44
 309 54 309 54 288 33 c 132,-1,45
 267 12 267 12 240.5 0 c 132,-1,46
 214 -12 214 -12 175 -12 c 4,47,48
 122 -12 122 -12 90 10 c 132,-1,49
 58 32 58 32 43.5 66.5 c 132,-1,50
 29 101 29 101 29 138 c 4,51,52
 29 182 29 182 48 214 c 132,-1,53
 67 246 67 246 99 264 c 132,-1,54
 131 282 131 282 170 282 c 4,55,56
 206 282 206 282 234 269.5 c 132,-1,57
 262 257 262 257 289 230.5 c 132,-1,58
 316 204 316 204 348 161 c 4,59,60
 375 126 375 126 396 105 c 132,-1,61
 417 84 417 84 439 75.5 c 132,-1,62
 461 67 461 67 490 67 c 4,63,64
 540 67 540 67 566.5 99.5 c 132,-1,65
 593 132 593 132 593 193 c 4,66,67
 593 251 593 251 570 294.5 c 132,-1,68
 547 338 547 338 507 369.5 c 132,-1,69
 467 401 467 401 417 423 c 5,70,-1
 455 500 l 5,71,72
 517 474 517 474 567 430 c 132,-1,73
 617 386 617 386 646.5 327.5 c 132,-1,74
 676 269 676 269 676 198 c 4,75,76
 676 132 676 132 653.5 85 c 132,-1,77
 631 38 631 38 588.5 13 c 132,-1,78
 546 -12 546 -12 485 -12 c 4,26,27
280 -125 m 5,79,-1
 287 16 l 5,80,-1
 362 16 l 5,81,-1
 370 -125 l 5,82,-1
 280 -125 l 5,79,-1
EndSplineSet
EndChar

StartChar: G
Encoding: 71 71 47
Width: 462
Flags: W
LayerCount: 2
Fore
SplineSet
221 1 m 0,0,1
 158 1 158 1 117.5 34 c 128,-1,2
 77 67 77 67 54 117 c 128,-1,3
 31 167 31 167 22.5 225 c 128,-1,4
 14 283 14 283 14 334 c 0,5,6
 14 390 14 390 27.5 443.5 c 128,-1,7
 41 497 41 497 69.5 538.5 c 128,-1,8
 98 580 98 580 143.5 605.5 c 128,-1,9
 189 631 189 631 253 631 c 0,10,11
 280 631 280 631 309.5 625 c 128,-1,12
 339 619 339 619 363.5 602.5 c 128,-1,13
 388 586 388 586 404.5 558 c 128,-1,14
 421 530 421 530 421 486 c 0,15,16
 421 470 421 470 414.5 460.5 c 128,-1,17
 408 451 408 451 398.5 445.5 c 128,-1,18
 389 440 389 440 379 438.5 c 128,-1,19
 369 437 369 437 363 437 c 0,20,21
 349 437 349 437 336.5 447 c 128,-1,22
 324 457 324 457 324 486 c 0,23,24
 324 509 324 509 316 521 c 128,-1,25
 308 533 308 533 297 538.5 c 128,-1,26
 286 544 286 544 275.5 545 c 128,-1,27
 265 546 265 546 259 546 c 0,28,29
 233 546 233 546 210 530.5 c 128,-1,30
 187 515 187 515 169.5 486 c 128,-1,31
 152 457 152 457 142 415 c 128,-1,32
 132 373 132 373 132 320 c 0,33,34
 132 291 132 291 135.5 251 c 128,-1,35
 139 211 139 211 151 175 c 128,-1,36
 163 139 163 139 185 113.5 c 128,-1,37
 207 88 207 88 243 88 c 0,38,39
 266 88 266 88 283 103 c 128,-1,40
 300 118 300 118 311.5 140 c 128,-1,41
 323 162 323 162 329 186.5 c 128,-1,42
 335 211 335 211 334 230 c 0,43,44
 333 246 333 246 314.5 247.5 c 128,-1,45
 296 249 296 249 273 249 c 2,46,-1
 211 249 l 2,47,48
 205 249 205 249 200 255 c 128,-1,49
 195 261 195 261 192 269.5 c 128,-1,50
 189 278 189 278 187 287 c 128,-1,51
 185 296 185 296 185 302 c 0,52,53
 185 318 185 318 195.5 330.5 c 128,-1,54
 206 343 206 343 229 343 c 2,55,-1
 354 342 l 2,56,57
 367 342 367 342 380.5 336.5 c 128,-1,58
 394 331 394 331 404.5 320.5 c 128,-1,59
 415 310 415 310 422 293.5 c 128,-1,60
 429 277 429 277 429 254 c 0,61,62
 429 219 429 219 429.5 189 c 128,-1,63
 430 159 430 159 430 115 c 0,64,65
 430 81 430 81 427.5 60 c 128,-1,66
 425 39 425 39 419 27 c 128,-1,67
 413 15 413 15 404.5 10.5 c 128,-1,68
 396 6 396 6 384 6 c 0,69,70
 367 6 367 6 359 18.5 c 128,-1,71
 351 31 351 31 347.5 46 c 128,-1,72
 344 61 344 61 343 73.5 c 128,-1,73
 342 86 342 86 339 86 c 256,74,75
 336 86 336 86 330 72.5 c 128,-1,76
 324 59 324 59 311 43.5 c 128,-1,77
 298 28 298 28 277 14.5 c 128,-1,78
 256 1 256 1 221 1 c 0,0,1
126 82 m 0,79,80
 126 87 126 87 110 110 c 0,81,82
 103 121 103 121 96 135.5 c 128,-1,83
 89 150 89 150 84 164 c 128,-1,84
 79 178 79 178 76 190 c 128,-1,85
 73 202 73 202 74 206 c 0,86,87
 75 211 75 211 72 213.5 c 128,-1,88
 69 216 69 216 68 216 c 0,89,90
 60 216 60 216 58 205 c 256,91,92
 56 194 56 194 61.5 173 c 128,-1,93
 67 152 67 152 76.5 131 c 128,-1,94
 86 110 86 110 97.5 94 c 128,-1,95
 109 78 109 78 118 77 c 0,96,97
 125 75 125 75 126 82 c 0,79,80
389 31 m 0,98,99
 389 39 389 39 381 44.5 c 128,-1,100
 373 50 373 50 372 62 c 0,101,102
 372 65 372 65 371.5 73 c 128,-1,103
 371 81 371 81 366 81 c 256,104,105
 361 81 361 81 360 74.5 c 128,-1,106
 359 68 359 68 359 63 c 256,107,108
 359 58 359 58 360.5 50.5 c 128,-1,109
 362 43 362 43 365 36.5 c 128,-1,110
 368 30 368 30 372 25 c 128,-1,111
 376 20 376 20 381 20 c 256,112,113
 386 20 386 20 387.5 24 c 128,-1,114
 389 28 389 28 389 31 c 0,98,99
146 65 m 0,115,116
 147 68 147 68 144.5 70.5 c 128,-1,117
 142 73 142 73 140 73 c 0,118,119
 136 74 136 74 134.5 71 c 128,-1,120
 133 68 133 68 132 66 c 0,121,122
 131 61 131 61 133.5 59.5 c 128,-1,123
 136 58 136 58 138 58 c 0,124,125
 144 58 144 58 146 65 c 0,115,116
EndSplineSet
EndChar

StartChar: H
Encoding: 72 72 48
Width: 401
Flags: W
LayerCount: 2
Fore
SplineSet
263 548 m 0,0,1
 236.400390625 548 236.400390625 548 220.299804688 564.25 c 0,2,3
 204.200195312 580.5 204.200195312 580.5 204.200195312 607.799804688 c 0,4,5
 204.200195312 632.5 204.200195312 632.5 218.200195312 653.950195312 c 0,6,7
 232.200195312 675.400390625 232.200195312 675.400390625 263 675.400390625 c 0,8,9
 295.200195312 675.400390625 295.200195312 675.400390625 312 655.25 c 0,10,11
 328.799804688 635.100585938 328.799804688 635.100585938 328.799804688 607.799804688 c 0,12,13
 328.799804688 577.900390625 328.799804688 577.900390625 309.900390625 562.950195312 c 0,14,15
 291 548 291 548 263 548 c 0,0,1
237.799804688 615.600585938 m 0,16,17
 239.200195312 629.900390625 239.200195312 629.900390625 244.799804688 641.600585938 c 0,18,19
 250.400390625 653.299804688 250.400390625 653.299804688 243.400390625 653.299804688 c 0,20,21
 233.600585938 653.299804688 233.600585938 653.299804688 227.299804688 634.450195312 c 0,22,23
 221 615.600585938 221 615.600585938 221 601.299804688 c 0,24,25
 221 588.299804688 221 588.299804688 228 588.299804688 c 0,26,27
 233.600585938 588.299804688 233.600585938 588.299804688 235 598.049804688 c 0,28,29
 236.400390625 607.799804688 236.400390625 607.799804688 237.799804688 615.600585938 c 0,16,17
EndSplineSet
Refer: 74 104 S 1 0 0 1 0 0 2
EndChar

StartChar: I
Encoding: 73 73 49
Width: 286
Flags: W
LayerCount: 2
Fore
SplineSet
6 484 m 1,0,-1
 116 792 l 1,1,-1
 166 792 l 1,2,-1
 272 484 l 1,3,-1
 194 484 l 1,4,-1
 142 699 l 1,5,-1
 84 484 l 1,6,-1
 6 484 l 1,0,-1
134 -4 m 256,7,8
 110 -4 110 -4 97 6.5 c 128,-1,9
 84 17 84 17 84 32 c 2,10,-1
 84 387 l 2,11,12
 84 396 84 396 86.5 408 c 128,-1,13
 89 420 89 420 94.5 430 c 128,-1,14
 100 440 100 440 109.5 447 c 128,-1,15
 119 454 119 454 134 454 c 256,16,17
 149 454 149 454 159.5 448 c 128,-1,18
 170 442 170 442 176.5 433 c 128,-1,19
 183 424 183 424 186.5 413 c 128,-1,20
 190 402 190 402 190 392 c 2,21,-1
 190 32 l 2,22,23
 190 16 190 16 174 6 c 128,-1,24
 158 -4 158 -4 134 -4 c 256,7,8
102 359 m 0,25,26
 105 359 105 359 106 365 c 128,-1,27
 107 371 107 371 107 379.5 c 128,-1,28
 107 388 107 388 107.5 397.5 c 128,-1,29
 108 407 108 407 110 413 c 0,30,31
 111 417 111 417 113 424 c 128,-1,32
 115 431 115 431 112 431 c 0,33,34
 107 431 107 431 103.5 425.5 c 128,-1,35
 100 420 100 420 97.5 412.5 c 128,-1,36
 95 405 95 405 94 396.5 c 128,-1,37
 93 388 93 388 93 383 c 0,38,39
 93 376 93 376 95 367.5 c 128,-1,40
 97 359 97 359 102 359 c 0,25,26
EndSplineSet
EndChar

StartChar: J
Encoding: 74 74 50
Width: 778
Flags: W
LayerCount: 2
Fore
SplineSet
394 -12 m 0,0,1
 273 -12 273 -12 193.5 20.5 c 0,2,3
 114 53 114 53 75 109.5 c 0,4,5
 36 166 36 166 36 237 c 0,6,7
 36 293 36 293 59.5 335.5 c 0,8,9
 83 378 83 378 124 401.5 c 0,10,11
 165 425 165 425 218 425 c 0,12,13
 260 425 260 425 290 409.5 c 0,14,15
 320 394 320 394 336 366 c 0,16,17
 352 338 352 338 352 301 c 0,18,19
 352 240 352 240 310.5 203.5 c 0,20,21
 269 167 269 167 194 167 c 0,22,23
 172 167 172 167 152 171.5 c 0,24,25
 132 176 132 176 115 183 c 0,26,27
 98 190 98 190 83 199 c 1,28,-1
 90 270 l 1,29,30
 110 255 110 255 132.5 246 c 0,31,32
 155 237 155 237 182 237 c 0,33,34
 231 237 231 237 251.5 255 c 0,35,36
 272 273 272 273 272 301 c 0,37,38
 272 327 272 327 256.5 340.5 c 0,39,40
 241 354 241 354 213 354 c 0,41,42
 183 354 183 354 159.5 340 c 0,43,44
 136 326 136 326 122 302 c 0,45,46
 108 278 108 278 108 246 c 2,47,-1
 108 241 l 2,48,49
 108 198 108 198 128.5 165.5 c 0,50,51
 149 133 149 133 186 111 c 0,52,53
 223 89 223 89 274.5 78 c 0,54,55
 326 67 326 67 389 67 c 0,56,57
 472 67 472 67 526.5 84 c 0,58,59
 581 101 581 101 612 128 c 0,60,61
 643 155 643 155 655.5 186 c 0,62,63
 668 217 668 217 668 246 c 2,64,-1
 668 290 l 1,65,66
 659 317 659 317 635 335.5 c 0,67,68
 611 354 611 354 576 354 c 0,69,70
 551 354 551 354 530.5 339.5 c 0,71,72
 510 325 510 325 510 293 c 0,73,74
 510 271 510 271 526 254 c 0,75,76
 542 237 542 237 576 237 c 0,77,78
 602 237 602 237 621 246.5 c 0,79,80
 640 256 640 256 651.5 273.5 c 0,81,82
 663 291 663 291 668 314 c 1,83,-1
 684 224 l 1,84,85
 669 206 669 206 651.5 193 c 0,86,87
 634 180 634 180 612.5 173.5 c 0,88,89
 591 167 591 167 563 167 c 0,90,91
 525 167 525 167 495 182 c 0,92,93
 465 197 465 197 448 224.5 c 0,94,95
 431 252 431 252 431 290 c 0,96,97
 431 346 431 346 466.5 377.5 c 0,98,99
 502 409 502 409 561 409 c 0,100,101
 567 409 567 409 574.5 408 c 0,102,103
 582 407 582 407 591 405 c 0,104,105
 600 403 600 403 608 400 c 1,106,-1
 596 399 l 1,107,108
 576 409 576 409 545 415 c 0,109,110
 514 421 514 421 482.5 424.5 c 0,111,112
 451 428 451 428 429 428 c 1,113,-1
 449 496 l 1,114,115
 526 489 526 489 582 467.5 c 0,116,117
 638 446 638 446 673.5 413 c 0,118,119
 709 380 709 380 726 337.5 c 0,120,121
 743 295 743 295 743 245 c 0,122,123
 743 190 743 190 722.5 143 c 0,124,125
 702 96 702 96 659.5 61.5 c 0,126,127
 617 27 617 27 551 7.5 c 0,128,129
 485 -12 485 -12 394 -12 c 0,0,1
409 425 m 0,130,131
 380 425 380 425 353.5 436 c 0,132,133
 327 447 327 447 305 477.5 c 0,134,135
 283 508 283 508 267 564 c 1,136,-1
 350 591 l 1,137,138
 365 536 365 536 379 518 c 0,139,140
 393 500 393 500 415 500 c 0,141,142
 435 500 435 500 452.5 512.5 c 0,143,144
 470 525 470 525 502 565 c 2,145,-1
 533 605 l 2,146,147
 567 649 567 649 595.5 675 c 0,148,149
 624 701 624 701 656 713 c 0,150,151
 688 725 688 725 732 725 c 1,152,-1
 738 648 l 1,153,154
 703 646 703 646 679.5 637 c 0,155,156
 656 628 656 628 636.5 608.5 c 0,157,158
 617 589 617 589 591 556 c 2,159,-1
 568 526 l 2,160,161
 540 490 540 490 515 468 c 0,162,163
 490 446 490 446 464.5 435.5 c 0,164,165
 439 425 439 425 409 425 c 0,130,131
EndSplineSet
EndChar

StartChar: K
Encoding: 75 75 51
Width: 522
Flags: W
LayerCount: 2
Fore
SplineSet
234 425 m 4,0,1
 205 425 205 425 178.5 436 c 132,-1,2
 152 447 152 447 130 477.5 c 132,-1,3
 108 508 108 508 92 564 c 5,4,-1
 175 591 l 5,5,6
 190 536 190 536 204 518 c 132,-1,7
 218 500 218 500 240 500 c 4,8,9
 260 500 260 500 277.5 512.5 c 132,-1,10
 295 525 295 525 327 565 c 6,11,-1
 358 605 l 6,12,13
 392 649 392 649 420.5 675 c 132,-1,14
 449 701 449 701 481 713 c 132,-1,15
 513 725 513 725 557 725 c 5,16,-1
 563 648 l 5,17,18
 528 646 528 646 504.5 637 c 132,-1,19
 481 628 481 628 461.5 608.5 c 132,-1,20
 442 589 442 589 416 556 c 6,21,-1
 393 526 l 6,22,23
 365 490 365 490 340 468 c 132,-1,24
 315 446 315 446 289.5 435.5 c 132,-1,25
 264 425 264 425 234 425 c 4,0,1
264 -12 m 4,26,27
 200 -12 200 -12 148.5 6 c 132,-1,28
 97 24 97 24 63.5 59 c 132,-1,29
 30 94 30 94 18 146 c 5,30,-1
 104 169 l 5,31,32
 113 138 113 138 131.5 115 c 132,-1,33
 150 92 150 92 182.5 79.5 c 132,-1,34
 215 67 215 67 267 67 c 4,35,36
 320 67 320 67 350.5 76.5 c 132,-1,37
 381 86 381 86 394.5 102.5 c 132,-1,38
 408 119 408 119 408 141 c 4,39,40
 408 161 408 161 398 176 c 132,-1,41
 388 191 388 191 364 200.5 c 132,-1,42
 340 210 340 210 297 213 c 6,43,-1
 232 218 l 6,44,45
 180 222 180 222 142.5 230.5 c 132,-1,46
 105 239 105 239 81 258 c 4,47,48
 60 274 60 274 48.5 298.5 c 132,-1,49
 37 323 37 323 37 357 c 4,50,51
 37 398 37 398 61 430.5 c 132,-1,52
 85 463 85 463 132.5 481.5 c 132,-1,53
 180 500 180 500 252 500 c 4,54,55
 318 500 318 500 362.5 487.5 c 132,-1,56
 407 475 407 475 436.5 444.5 c 132,-1,57
 466 414 466 414 484 360 c 5,58,-1
 398 338 l 5,59,60
 389 367 389 367 372.5 386.5 c 132,-1,61
 356 406 356 406 327 415.5 c 132,-1,62
 298 425 298 425 252 425 c 4,63,64
 202 425 202 425 173 416 c 132,-1,65
 144 407 144 407 132 392 c 132,-1,66
 120 377 120 377 120 358 c 4,67,68
 120 331 120 331 142.5 315.5 c 132,-1,69
 165 300 165 300 231 295 c 6,70,-1
 308 290 l 6,71,72
 360 286 360 286 392.5 275 c 132,-1,73
 425 264 425 264 446 247 c 4,74,75
 469 228 469 228 480 201 c 132,-1,76
 491 174 491 174 491 142 c 4,77,78
 491 92 491 92 465.5 57.5 c 132,-1,79
 440 23 440 23 389.5 5.5 c 132,-1,80
 339 -12 339 -12 264 -12 c 4,26,27
EndSplineSet
EndChar

StartChar: L
Encoding: 76 76 52
Width: 709
Flags: W
LayerCount: 2
Fore
SplineSet
356 -12 m 0,0,1
 251 -12 251 -12 179.5 24 c 128,-1,2
 108 60 108 60 71.5 123.5 c 128,-1,3
 35 187 35 187 35 269 c 0,4,5
 35 343 35 343 60.5 394.5 c 128,-1,6
 86 446 86 446 129 473 c 128,-1,7
 172 500 172 500 225 500 c 0,8,9
 265 500 265 500 294.5 484.5 c 128,-1,10
 324 469 324 469 340.5 440.5 c 128,-1,11
 357 412 357 412 357 373 c 0,12,13
 357 333 357 333 340 301.5 c 128,-1,14
 323 270 323 270 288.5 252.5 c 128,-1,15
 254 235 254 235 201 235 c 0,16,17
 168 235 168 235 140 246 c 128,-1,18
 112 257 112 257 91.5 273 c 128,-1,19
 71 289 71 289 58 304 c 1,20,-1
 81 366 l 1,21,22
 89 355 89 355 103.5 340.5 c 128,-1,23
 118 326 118 326 141 315.5 c 128,-1,24
 164 305 164 305 196 305 c 0,25,26
 237 305 237 305 257.5 322 c 128,-1,27
 278 339 278 339 278 369 c 0,28,29
 278 398 278 398 262 413.5 c 128,-1,30
 246 429 246 429 220 429 c 0,31,32
 172 429 172 429 143 390 c 128,-1,33
 114 351 114 351 114 284 c 2,34,-1
 114 266 l 2,35,36
 114 226 114 226 128.5 190.5 c 128,-1,37
 143 155 143 155 172 127 c 128,-1,38
 201 99 201 99 246.5 83 c 128,-1,39
 292 67 292 67 353 67 c 0,40,41
 463 67 463 67 527 113 c 128,-1,42
 591 159 591 159 591 245 c 0,43,44
 591 303 591 303 558.5 349 c 128,-1,45
 526 395 526 395 457 423 c 1,46,-1
 497 500 l 1,47,48
 580 464 580 464 627 400 c 128,-1,49
 674 336 674 336 674 250 c 0,50,51
 674 176 674 176 641 116.5 c 128,-1,52
 608 57 608 57 537.5 22.5 c 128,-1,53
 467 -12 467 -12 356 -12 c 0,0,1
EndSplineSet
EndChar

StartChar: M
Encoding: 77 77 53
Width: 1058
Flags: W
LayerCount: 2
Fore
SplineSet
828 -12 m 4,0,1
 761 -12 761 -12 710.5 22 c 132,-1,2
 660 56 660 56 621 111 c 5,3,-1
 661 176 l 5,4,5
 689 139 689 139 716.5 115 c 132,-1,6
 744 91 744 91 773.5 79 c 132,-1,7
 803 67 803 67 835 67 c 4,8,9
 886 67 886 67 913 99.5 c 132,-1,10
 940 132 940 132 940 193 c 4,11,12
 940 251 940 251 916.5 294.5 c 132,-1,13
 893 338 893 338 853.5 369.5 c 132,-1,14
 814 401 814 401 764 423 c 5,15,-1
 801 500 l 5,16,17
 863 474 863 474 913 430 c 132,-1,18
 963 386 963 386 993 328 c 132,-1,19
 1023 270 1023 270 1023 199 c 4,20,21
 1023 100 1023 100 973 44 c 132,-1,22
 923 -12 923 -12 828 -12 c 4,0,1
481 -12 m 4,23,24
 435 -12 435 -12 400 6 c 132,-1,25
 365 24 365 24 335.5 56 c 132,-1,26
 306 88 306 88 273 131 c 4,27,28
 244 171 244 171 223 189 c 132,-1,29
 202 207 202 207 172 207 c 4,30,31
 144 207 144 207 125.5 189 c 132,-1,32
 107 171 107 171 107 136 c 4,33,34
 107 105 107 105 126.5 84 c 132,-1,35
 146 63 146 63 180 63 c 260,36,37
 214 63 214 63 236.5 83 c 132,-1,38
 259 103 259 103 275 141 c 5,39,-1
 328 81 l 5,40,41
 309 54 309 54 288 33 c 132,-1,42
 267 12 267 12 240.5 0 c 132,-1,43
 214 -12 214 -12 175 -12 c 4,44,45
 122 -12 122 -12 90 10 c 132,-1,46
 58 32 58 32 43.5 66.5 c 132,-1,47
 29 101 29 101 29 138 c 4,48,49
 29 182 29 182 48 214 c 132,-1,50
 67 246 67 246 99 264 c 132,-1,51
 131 282 131 282 170 282 c 4,52,53
 206 282 206 282 234 269.5 c 132,-1,54
 262 257 262 257 289 230.5 c 132,-1,55
 316 204 316 204 348 161 c 4,56,57
 375 126 375 126 396 105 c 132,-1,58
 417 84 417 84 438 75.5 c 132,-1,59
 459 67 459 67 486 67 c 4,60,61
 539 67 539 67 566 99 c 132,-1,62
 593 131 593 131 593 192 c 4,63,64
 593 249 593 249 570 292.5 c 132,-1,65
 547 336 547 336 506 365.5 c 132,-1,66
 465 395 465 395 410 410 c 132,-1,67
 355 425 355 425 292 425 c 6,68,-1
 243 425 l 5,69,-1
 326 500 l 5,70,71
 437 493 437 493 515.5 452.5 c 132,-1,72
 594 412 594 412 635 345.5 c 132,-1,73
 676 279 676 279 676 194 c 4,74,75
 676 135 676 135 655 88 c 132,-1,76
 634 41 634 41 590.5 14.5 c 132,-1,77
 547 -12 547 -12 481 -12 c 4,23,24
239 425 m 4,78,79
 210 425 210 425 183.5 436 c 132,-1,80
 157 447 157 447 135 477.5 c 132,-1,81
 113 508 113 508 97 564 c 5,82,-1
 180 591 l 5,83,84
 195 536 195 536 209 518 c 132,-1,85
 223 500 223 500 245 500 c 4,86,87
 265 500 265 500 282.5 512.5 c 132,-1,88
 300 525 300 525 332 565 c 6,89,-1
 363 605 l 6,90,91
 397 649 397 649 425.5 675 c 132,-1,92
 454 701 454 701 486 713 c 132,-1,93
 518 725 518 725 562 725 c 5,94,-1
 568 648 l 5,95,96
 533 646 533 646 509.5 637 c 132,-1,97
 486 628 486 628 466.5 608.5 c 132,-1,98
 447 589 447 589 421 556 c 6,99,-1
 398 526 l 6,100,101
 370 490 370 490 345 468 c 132,-1,102
 320 446 320 446 294.5 435.5 c 132,-1,103
 269 425 269 425 239 425 c 4,78,79
EndSplineSet
EndChar

StartChar: N
Encoding: 78 78 54
Width: 702
Flags: W
LayerCount: 2
Fore
SplineSet
472 -12 m 0,0,1
 425 -12 425 -12 390 3.5 c 128,-1,2
 355 19 355 19 324 51.5 c 128,-1,3
 293 84 293 84 256 133 c 0,4,5
 235 162 235 162 220.5 178.5 c 128,-1,6
 206 195 206 195 193.5 202 c 128,-1,7
 181 209 181 209 164 209 c 0,8,9
 141 209 141 209 126 190.5 c 128,-1,10
 111 172 111 172 111 143 c 0,11,12
 111 108 111 108 123 77 c 128,-1,13
 135 46 135 46 159 14 c 1,14,-1
 78 -13 l 1,15,16
 56 22 56 22 42.5 59.5 c 128,-1,17
 29 97 29 97 29 143 c 0,18,19
 29 184 29 184 46.5 216 c 128,-1,20
 64 248 64 248 94.5 267 c 128,-1,21
 125 286 125 286 165 286 c 0,22,23
 204 286 204 286 230.5 272.5 c 128,-1,24
 257 259 257 259 279.5 234.5 c 128,-1,25
 302 210 302 210 328 175 c 0,26,27
 358 136 358 136 380.5 112 c 128,-1,28
 403 88 403 88 425.5 77.5 c 128,-1,29
 448 67 448 67 478 67 c 0,30,31
 530 67 530 67 557 100 c 128,-1,32
 584 133 584 133 584 194 c 0,33,34
 584 250 584 250 561 293 c 128,-1,35
 538 336 538 336 497 365.5 c 128,-1,36
 456 395 456 395 401 410 c 128,-1,37
 346 425 346 425 282 425 c 2,38,-1
 238 425 l 1,39,-1
 316 500 l 1,40,41
 428 493 428 493 506 452.5 c 128,-1,42
 584 412 584 412 625.5 345.5 c 128,-1,43
 667 279 667 279 667 194 c 0,44,45
 667 132 667 132 645 85.5 c 128,-1,46
 623 39 623 39 580 13.5 c 128,-1,47
 537 -12 537 -12 472 -12 c 0,0,1
236 425 m 0,48,49
 207 425 207 425 180.5 436 c 128,-1,50
 154 447 154 447 132 477.5 c 128,-1,51
 110 508 110 508 94 564 c 1,52,-1
 177 591 l 1,53,54
 192 536 192 536 206 518 c 128,-1,55
 220 500 220 500 242 500 c 0,56,57
 262 500 262 500 279.5 512.5 c 128,-1,58
 297 525 297 525 329 565 c 2,59,-1
 360 605 l 2,60,61
 394 649 394 649 422.5 675 c 128,-1,62
 451 701 451 701 483 713 c 128,-1,63
 515 725 515 725 559 725 c 1,64,-1
 565 648 l 1,65,66
 530 646 530 646 506.5 637 c 128,-1,67
 483 628 483 628 463.5 608.5 c 128,-1,68
 444 589 444 589 418 556 c 2,69,-1
 395 526 l 2,70,71
 367 490 367 490 342 468 c 128,-1,72
 317 446 317 446 291.5 435.5 c 128,-1,73
 266 425 266 425 236 425 c 0,48,49
EndSplineSet
EndChar

StartChar: O
Encoding: 79 79 55
Width: 612
Flags: W
LayerCount: 2
Fore
SplineSet
178 341.5 m 0,0,1
 165 346 165 346 156.5 355 c 128,-1,2
 148 364 148 364 145.5 374 c 128,-1,3
 143 384 143 384 146.5 394.5 c 0,4,5
 151 406 151 406 160 411.5 c 0,6,7
 165 414 165 414 172.5 416.5 c 0,8,9
 180 418 180 418 193.5 420 c 128,-1,10
 207 422 207 422 227 422 c 0,11,12
 287 422 287 422 318 422.5 c 0,13,14
 390 422 390 422 415 421 c 128,-1,15
 440 420 440 420 452.5 414.5 c 0,16,17
 465 410 465 410 468 400.5 c 0,18,19
 471 392 471 392 471 376.5 c 0,20,21
 471 364 471 364 465.5 357 c 128,-1,22
 460 350 460 350 446 345 c 128,-1,23
 432 340 432 340 408 338.5 c 0,24,25
 384 336 384 336 318 336.5 c 0,26,27
 240 336 240 336 211.5 338 c 128,-1,28
 183 340 183 340 178 341.5 c 0,0,1
186 402.5 m 0,29,30
 186 404 186 404 183.5 406 c 0,31,32
 182 407 182 407 177 404.5 c 128,-1,33
 172 402 172 402 169.5 392.5 c 0,34,35
 167 384 167 384 167 376.5 c 256,36,37
 167 370 167 370 169 369.5 c 0,38,39
 172 370 172 370 177 382.5 c 0,40,41
 183 396 183 396 183 396.5 c 0,42,43
 186 399 186 399 186 402.5 c 0,29,30
176 180.5 m 0,44,45
 157 184 157 184 147.5 198 c 128,-1,46
 138 212 138 212 145 226.5 c 0,47,48
 150 236 150 236 157.5 240.5 c 0,49,50
 165 246 165 246 180.5 248 c 0,51,52
 204 251 204 251 221 251 c 0,53,54
 285 251 285 251 338.5 251.5 c 128,-1,55
 392 252 392 252 417.5 250 c 128,-1,56
 443 248 443 248 457 245 c 128,-1,57
 471 242 471 242 476.5 235 c 128,-1,58
 482 228 482 228 482 217.5 c 0,59,60
 482 204 482 204 476 195.5 c 0,61,62
 470 186 470 186 454.5 181.5 c 0,63,64
 439 176 439 176 413 174 c 0,65,66
 376 171 376 171 319 171.5 c 0,67,68
 241 172 241 172 212.5 175 c 128,-1,69
 184 178 184 178 176 180.5 c 0,44,45
179 229.5 m 0,70,71
 179 232 179 232 176 232.5 c 256,72,73
 173 232 173 232 172 231.5 c 0,74,75
 170 230 170 230 167 226 c 128,-1,76
 164 222 164 222 164 214.5 c 0,77,78
 164 206 164 206 165.5 204.5 c 0,79,80
 167 204 167 204 172 208.5 c 0,81,82
 176 212 176 212 177.5 218.5 c 0,83,84
 179 224 179 224 179 229.5 c 0,70,71
302 -10 m 0,85,86
 230 -10 230 -10 176.5 17.5 c 128,-1,87
 123 45 123 45 88 88.5 c 128,-1,88
 53 132 53 132 35.5 186 c 128,-1,89
 18 240 18 240 18 294 c 0,90,91
 18 360 18 360 38 416 c 128,-1,92
 58 472 58 472 95.5 512.5 c 128,-1,93
 133 553 133 553 187 576 c 128,-1,94
 241 599 241 599 308 599 c 0,95,96
 370 599 370 599 422 576.5 c 128,-1,97
 474 554 474 554 511.5 514.5 c 128,-1,98
 549 475 549 475 570 420.5 c 128,-1,99
 591 366 591 366 591 303 c 0,100,101
 591 239 591 239 569.5 182 c 128,-1,102
 548 125 548 125 509.5 82.5 c 128,-1,103
 471 40 471 40 418 15 c 128,-1,104
 365 -10 365 -10 302 -10 c 0,85,86
304 67 m 0,105,106
 405 67 405 67 456.5 130.5 c 128,-1,107
 508 194 508 194 508 303 c 0,108,109
 508 347 508 347 494.5 387.5 c 128,-1,110
 481 428 481 428 455 459 c 128,-1,111
 429 490 429 490 392 508.5 c 128,-1,112
 355 527 355 527 308 527 c 0,113,114
 263 527 263 527 225.5 509 c 128,-1,115
 188 491 188 491 161 461 c 128,-1,116
 134 431 134 431 119 391 c 128,-1,117
 104 351 104 351 104 306 c 256,118,119
 104 261 104 261 117.5 218 c 128,-1,120
 131 175 131 175 156.5 141.5 c 128,-1,121
 182 108 182 108 219 87.5 c 128,-1,122
 256 67 256 67 304 67 c 0,105,106
EndSplineSet
EndChar

StartChar: P
Encoding: 80 80 56
Width: 711
Flags: W
LayerCount: 2
Fore
SplineSet
197 425 m 4,0,1
 168 425 168 425 141.5 436 c 132,-1,2
 115 447 115 447 93 477.5 c 132,-1,3
 71 508 71 508 55 564 c 5,4,-1
 138 591 l 5,5,6
 153 536 153 536 167 518 c 132,-1,7
 181 500 181 500 203 500 c 4,8,9
 223 500 223 500 240.5 512.5 c 132,-1,10
 258 525 258 525 290 565 c 6,11,-1
 321 605 l 6,12,13
 355 649 355 649 383.5 675 c 132,-1,14
 412 701 412 701 444 713 c 132,-1,15
 476 725 476 725 520 725 c 5,16,-1
 526 648 l 5,17,18
 491 646 491 646 467.5 637 c 132,-1,19
 444 628 444 628 424.5 608.5 c 132,-1,20
 405 589 405 589 379 556 c 6,21,-1
 356 526 l 6,22,23
 328 490 328 490 303 468 c 132,-1,24
 278 446 278 446 252.5 435.5 c 132,-1,25
 227 425 227 425 197 425 c 4,0,1
485 -12 m 4,26,27
 437 -12 437 -12 401.5 6 c 132,-1,28
 366 24 366 24 336 56 c 132,-1,29
 306 88 306 88 273 131 c 4,30,31
 244 171 244 171 223 189 c 132,-1,32
 202 207 202 207 172 207 c 4,33,34
 144 207 144 207 125.5 189 c 132,-1,35
 107 171 107 171 107 136 c 4,36,37
 107 105 107 105 126.5 84 c 132,-1,38
 146 63 146 63 180 63 c 260,39,40
 214 63 214 63 236.5 83 c 132,-1,41
 259 103 259 103 275 141 c 5,42,-1
 328 81 l 5,43,44
 309 54 309 54 288 33 c 132,-1,45
 267 12 267 12 240.5 0 c 132,-1,46
 214 -12 214 -12 175 -12 c 4,47,48
 122 -12 122 -12 90 10 c 132,-1,49
 58 32 58 32 43.5 66.5 c 132,-1,50
 29 101 29 101 29 138 c 4,51,52
 29 182 29 182 48 214 c 132,-1,53
 67 246 67 246 99 264 c 132,-1,54
 131 282 131 282 170 282 c 4,55,56
 206 282 206 282 234 269.5 c 132,-1,57
 262 257 262 257 289 230.5 c 132,-1,58
 316 204 316 204 348 161 c 4,59,60
 375 126 375 126 396 105 c 132,-1,61
 417 84 417 84 439 75.5 c 132,-1,62
 461 67 461 67 490 67 c 4,63,64
 540 67 540 67 566.5 99.5 c 132,-1,65
 593 132 593 132 593 193 c 4,66,67
 593 251 593 251 570 294.5 c 132,-1,68
 547 338 547 338 507 369.5 c 132,-1,69
 467 401 467 401 417 423 c 5,70,-1
 455 500 l 5,71,72
 517 474 517 474 567 430 c 132,-1,73
 617 386 617 386 646.5 327.5 c 132,-1,74
 676 269 676 269 676 198 c 4,75,76
 676 132 676 132 653.5 85 c 132,-1,77
 631 38 631 38 588.5 13 c 132,-1,78
 546 -12 546 -12 485 -12 c 4,26,27
EndSplineSet
EndChar

StartChar: Q
Encoding: 81 81 57
Width: 706
Flags: W
LayerCount: 2
Fore
SplineSet
323 425 m 4,0,1
 294 425 294 425 267.5 436 c 4,2,3
 241 447 241 447 219 477.5 c 4,4,5
 197 508 197 508 181 564 c 5,6,-1
 264 591 l 5,7,8
 279 536 279 536 293 518 c 4,9,10
 307 500 307 500 329 500 c 4,11,12
 349 500 349 500 366.5 512.5 c 4,13,14
 384 525 384 525 416 565 c 6,15,-1
 447 605 l 6,16,17
 481 649 481 649 509.5 675 c 4,18,19
 538 701 538 701 570 713 c 4,20,21
 602 725 602 725 646 725 c 5,22,-1
 652 648 l 5,23,24
 617 646 617 646 593.5 637 c 4,25,26
 570 628 570 628 550.5 608.5 c 4,27,28
 531 589 531 589 505 556 c 6,29,-1
 482 526 l 6,30,31
 454 490 454 490 429 468 c 4,32,33
 404 446 404 446 378.5 435.5 c 4,34,35
 353 425 353 425 323 425 c 4,0,1
504 -12 m 4,36,37
 467 -12 467 -12 438 -2 c 4,38,39
 409 8 409 8 386.5 30.5 c 4,40,41
 364 53 364 53 343 90 c 5,42,-1
 362 92 l 5,43,44
 341 49 341 49 315 26.5 c 4,45,46
 289 4 289 4 260 -4 c 4,47,48
 231 -12 231 -12 198 -12 c 4,49,50
 125 -12 125 -12 80 44 c 4,51,52
 35 100 35 100 35 200 c 4,53,54
 35 289 35 289 74 356.5 c 4,55,56
 113 424 113 424 185 462 c 4,57,58
 257 500 257 500 357 500 c 260,59,60
 457 500 457 500 527 461.5 c 4,61,62
 597 423 597 423 634 355.5 c 4,63,64
 671 288 671 288 671 200 c 4,65,66
 671 132 671 132 650.5 84.5 c 4,67,68
 630 37 630 37 592.5 12.5 c 4,69,70
 555 -12 555 -12 504 -12 c 4,36,37
496 67 m 4,71,72
 538 67 538 67 563 98 c 4,73,74
 588 129 588 129 588 202 c 4,75,76
 588 267 588 267 563.5 317 c 4,77,78
 539 367 539 367 489.5 396 c 4,79,80
 440 425 440 425 364 425 c 6,81,-1
 349 425 l 6,82,83
 274 425 274 425 222.5 397.5 c 4,84,85
 171 370 171 370 144.5 320.5 c 4,86,87
 118 271 118 271 118 205 c 4,88,89
 118 130 118 130 142.5 98.5 c 4,90,91
 167 67 167 67 210 67 c 4,92,93
 255 67 255 67 282.5 99.5 c 4,94,95
 310 132 310 132 314 185 c 5,96,-1
 392 185 l 5,97,98
 396 124 396 124 427.5 95.5 c 4,99,100
 459 67 459 67 496 67 c 4,71,72
EndSplineSet
EndChar

StartChar: R
Encoding: 82 82 58
Width: 593
Flags: W
LayerCount: 2
Fore
SplineSet
265 425 m 4,0,1
 236 425 236 425 209.5 436 c 132,-1,2
 183 447 183 447 161 477.5 c 132,-1,3
 139 508 139 508 123 564 c 5,4,-1
 206 591 l 5,5,6
 221 536 221 536 235 518 c 132,-1,7
 249 500 249 500 271 500 c 4,8,9
 291 500 291 500 308.5 512.5 c 132,-1,10
 326 525 326 525 358 565 c 6,11,-1
 389 605 l 6,12,13
 423 649 423 649 451.5 675 c 132,-1,14
 480 701 480 701 512 713 c 132,-1,15
 544 725 544 725 588 725 c 5,16,-1
 594 648 l 5,17,18
 559 646 559 646 535.5 637 c 132,-1,19
 512 628 512 628 492.5 608.5 c 132,-1,20
 473 589 473 589 447 556 c 6,21,-1
 424 526 l 6,22,23
 396 490 396 490 371 468 c 132,-1,24
 346 446 346 446 320.5 435.5 c 132,-1,25
 295 425 295 425 265 425 c 4,0,1
35 236 m 4,26,27
 35 314 35 314 68 373.5 c 132,-1,28
 101 433 101 433 159.5 466.5 c 132,-1,29
 218 500 218 500 296 500 c 4,30,31
 375 500 375 500 433.5 467.5 c 132,-1,32
 492 435 492 435 525 376 c 132,-1,33
 558 317 558 317 558 237 c 4,34,35
 558 163 558 163 526 106.5 c 132,-1,36
 494 50 494 50 435 19 c 132,-1,37
 376 -12 376 -12 296 -12 c 4,38,39
 217 -12 217 -12 158.5 19 c 132,-1,40
 100 50 100 50 67.5 105.5 c 132,-1,41
 35 161 35 161 35 236 c 4,26,27
118 248 m 4,42,43
 118 167 118 167 163 117 c 132,-1,44
 208 67 208 67 296 67 c 4,45,46
 356 67 356 67 395.5 89.5 c 132,-1,47
 435 112 435 112 455 152 c 132,-1,48
 475 192 475 192 475 242 c 4,49,50
 475 293 475 293 455.5 334.5 c 132,-1,51
 436 376 436 376 396.5 400.5 c 132,-1,52
 357 425 357 425 296 425 c 260,53,54
 235 425 235 425 195.5 400.5 c 132,-1,55
 156 376 156 376 137 336 c 132,-1,56
 118 296 118 296 118 248 c 4,42,43
EndSplineSet
EndChar

StartChar: S
Encoding: 83 83 59
Width: 702
Flags: W
LayerCount: 2
Fore
SplineSet
197 425 m 4,0,1
 168 425 168 425 141.5 436 c 132,-1,2
 115 447 115 447 93 477.5 c 132,-1,3
 71 508 71 508 55 564 c 5,4,-1
 138 591 l 5,5,6
 153 536 153 536 167 518 c 132,-1,7
 181 500 181 500 203 500 c 4,8,9
 223 500 223 500 240.5 512.5 c 132,-1,10
 258 525 258 525 290 565 c 6,11,-1
 321 605 l 6,12,13
 355 649 355 649 383.5 675 c 132,-1,14
 412 701 412 701 444 713 c 132,-1,15
 476 725 476 725 520 725 c 5,16,-1
 526 648 l 5,17,18
 491 646 491 646 467.5 637 c 132,-1,19
 444 628 444 628 424.5 608.5 c 132,-1,20
 405 589 405 589 379 556 c 6,21,-1
 356 526 l 6,22,23
 328 490 328 490 303 468 c 132,-1,24
 278 446 278 446 252.5 435.5 c 132,-1,25
 227 425 227 425 197 425 c 4,0,1
472 -12 m 4,26,27
 425 -12 425 -12 390 3.5 c 132,-1,28
 355 19 355 19 324 51.5 c 132,-1,29
 293 84 293 84 256 133 c 4,30,31
 235 162 235 162 220.5 178.5 c 132,-1,32
 206 195 206 195 193.5 202 c 132,-1,33
 181 209 181 209 164 209 c 4,34,35
 141 209 141 209 126 190.5 c 132,-1,36
 111 172 111 172 111 143 c 4,37,38
 111 108 111 108 123 77 c 132,-1,39
 135 46 135 46 159 14 c 5,40,-1
 78 -13 l 5,41,42
 56 22 56 22 42.5 59.5 c 132,-1,43
 29 97 29 97 29 143 c 4,44,45
 29 184 29 184 46.5 216 c 132,-1,46
 64 248 64 248 94.5 267 c 132,-1,47
 125 286 125 286 165 286 c 4,48,49
 204 286 204 286 230.5 272.5 c 132,-1,50
 257 259 257 259 279.5 234.5 c 132,-1,51
 302 210 302 210 328 175 c 4,52,53
 358 136 358 136 380 112.5 c 132,-1,54
 402 89 402 89 425 78 c 132,-1,55
 448 67 448 67 480 67 c 4,56,57
 530 67 530 67 557 99.5 c 132,-1,58
 584 132 584 132 584 193 c 4,59,60
 584 251 584 251 561 294.5 c 132,-1,61
 538 338 538 338 498 369.5 c 132,-1,62
 458 401 458 401 408 423 c 5,63,-1
 446 500 l 5,64,65
 508 474 508 474 558 430 c 132,-1,66
 608 386 608 386 637.5 327.5 c 132,-1,67
 667 269 667 269 667 198 c 4,68,69
 667 133 667 133 644.5 85.5 c 132,-1,70
 622 38 622 38 579 13 c 132,-1,71
 536 -12 536 -12 472 -12 c 4,26,27
EndSplineSet
EndChar

StartChar: T
Encoding: 84 84 60
Width: 772
Flags: W
LayerCount: 2
Fore
SplineSet
555 -12 m 0,0,1
 518 -12 518 -12 488 -2.5 c 128,-1,2
 458 7 458 7 433.5 29 c 128,-1,3
 409 51 409 51 387 90 c 1,4,-1
 408 91 l 1,5,6
 385 49 385 49 358 26.5 c 128,-1,7
 331 4 331 4 300.5 -4 c 128,-1,8
 270 -12 270 -12 236 -12 c 0,9,10
 188 -12 188 -12 151.5 5.5 c 128,-1,11
 115 23 115 23 90 55.5 c 128,-1,12
 65 88 65 88 52 133 c 128,-1,13
 39 178 39 178 39 232 c 0,14,15
 39 301 39 301 56.5 352 c 128,-1,16
 74 403 74 403 104 435.5 c 128,-1,17
 134 468 134 468 170.5 484 c 128,-1,18
 207 500 207 500 245 500 c 0,19,20
 288 500 288 500 318.5 484.5 c 128,-1,21
 349 469 349 469 365.5 440.5 c 128,-1,22
 382 412 382 412 382 373 c 0,23,24
 382 333 382 333 365.5 301.5 c 128,-1,25
 349 270 349 270 315 252.5 c 128,-1,26
 281 235 281 235 227 235 c 0,27,28
 194 235 194 235 164 246 c 128,-1,29
 134 257 134 257 111.5 273 c 128,-1,30
 89 289 89 289 76 304 c 1,31,-1
 100 366 l 1,32,33
 108 355 108 355 124.5 340.5 c 128,-1,34
 141 326 141 326 165.5 315.5 c 128,-1,35
 190 305 190 305 222 305 c 0,36,37
 262 305 262 305 282.5 322 c 128,-1,38
 303 339 303 339 303 369 c 0,39,40
 303 398 303 398 287 413.5 c 128,-1,41
 271 429 271 429 244 429 c 0,42,43
 209 429 209 429 180.5 407 c 128,-1,44
 152 385 152 385 135 343.5 c 128,-1,45
 118 302 118 302 118 242 c 2,46,-1
 118 234 l 2,47,48
 118 193 118 193 128.5 154.5 c 128,-1,49
 139 116 139 116 165.5 91.5 c 128,-1,50
 192 67 192 67 238 67 c 0,51,52
 277 67 277 67 302.5 81.5 c 128,-1,53
 328 96 328 96 341.5 123 c 128,-1,54
 355 150 355 150 358 185 c 1,55,-1
 436 185 l 1,56,57
 439 144 439 144 455 118 c 128,-1,58
 471 92 471 92 495 79.5 c 128,-1,59
 519 67 519 67 547 67 c 0,60,61
 602 67 602 67 628 99.5 c 128,-1,62
 654 132 654 132 654 193 c 0,63,64
 654 251 654 251 630.5 294.5 c 128,-1,65
 607 338 607 338 567.5 369.5 c 128,-1,66
 528 401 528 401 478 423 c 1,67,-1
 515 500 l 1,68,69
 577 474 577 474 627 430 c 128,-1,70
 677 386 677 386 707 328 c 128,-1,71
 737 270 737 270 737 199 c 0,72,73
 737 132 737 132 714.5 84.5 c 128,-1,74
 692 37 692 37 651.5 12.5 c 128,-1,75
 611 -12 611 -12 555 -12 c 0,0,1
282 624 m 1,76,-1
 275 478 l 1,77,-1
 199 478 l 1,78,-1
 192 624 l 1,79,-1
 282 624 l 1,76,-1
EndSplineSet
EndChar

StartChar: U
Encoding: 85 85 61
Width: 446
Flags: W
LayerCount: 2
Fore
SplineSet
220 -4 m 0,0,1
 175 -4 175 -4 138.5 12.5 c 128,-1,2
 102 29 102 29 77 58.5 c 128,-1,3
 52 88 52 88 38.5 129.5 c 128,-1,4
 25 171 25 171 25 221 c 2,5,-1
 25 530 l 2,6,7
 25 540 25 540 27 555 c 128,-1,8
 29 570 29 570 35 583.5 c 128,-1,9
 41 597 41 597 51.5 606.5 c 128,-1,10
 62 616 62 616 78 616 c 0,11,12
 111 616 111 616 125 599 c 128,-1,13
 139 582 139 582 139 528 c 2,14,-1
 139 228 l 2,15,16
 139 204 139 204 139 179.5 c 128,-1,17
 139 155 139 155 146.5 135.5 c 128,-1,18
 154 116 154 116 171.5 103.5 c 128,-1,19
 189 91 189 91 224 91 c 0,20,21
 257 91 257 91 274 110 c 128,-1,22
 291 129 291 129 298.5 157.5 c 128,-1,23
 306 186 306 186 306.5 220 c 128,-1,24
 307 254 307 254 307 284 c 2,25,-1
 307 531 l 2,26,27
 307 541 307 541 309 556 c 128,-1,28
 311 571 311 571 316.5 584.5 c 128,-1,29
 322 598 322 598 331.5 608 c 128,-1,30
 341 618 341 618 357 618 c 0,31,32
 388 618 388 618 404 597.5 c 128,-1,33
 420 577 420 577 420 532 c 2,34,-1
 420 246 l 2,35,36
 420 189 420 189 407.5 143 c 128,-1,37
 395 97 395 97 369.5 64.5 c 128,-1,38
 344 32 344 32 307 14 c 128,-1,39
 270 -4 270 -4 220 -4 c 0,0,1
335 556 m 0,40,41
 335 560 335 560 338 568 c 128,-1,42
 341 576 341 576 348 584 c 0,43,44
 356 595 356 595 356.5 599 c 128,-1,45
 357 603 357 603 348 603 c 0,46,47
 343 603 343 603 338.5 598 c 128,-1,48
 334 593 334 593 331 588 c 0,49,50
 329 583 329 583 325.5 575 c 128,-1,51
 322 567 322 567 321 558 c 0,52,53
 321 553 321 553 322 548.5 c 128,-1,54
 323 544 323 544 328 544 c 256,55,56
 333 544 333 544 334 547.5 c 128,-1,57
 335 551 335 551 335 556 c 0,40,41
67 570 m 0,58,59
 71 579 71 579 76.5 585 c 128,-1,60
 82 591 82 591 82 598 c 0,61,62
 82 603 82 603 79 603 c 256,63,64
 76 603 76 603 70 600.5 c 128,-1,65
 64 598 64 598 59 590 c 0,66,67
 44 569 44 569 42 552 c 128,-1,68
 40 535 40 535 46 535 c 0,69,70
 51 535 51 535 56.5 545.5 c 128,-1,71
 62 556 62 556 67 570 c 0,58,59
136 48 m 0,72,73
 136 51 136 51 128.5 57 c 128,-1,74
 121 63 121 63 113 72 c 0,75,76
 105 80 105 80 94.5 93.5 c 128,-1,77
 84 107 84 107 77 122 c 0,78,79
 72 132 72 132 67.5 136 c 128,-1,80
 63 140 63 140 61 140 c 0,81,82
 57 140 57 140 57 133 c 0,83,84
 57 125 57 125 65 109.5 c 128,-1,85
 73 94 73 94 84 79 c 128,-1,86
 95 64 95 64 107.5 53 c 128,-1,87
 120 42 120 42 130 42 c 0,88,89
 136 42 136 42 136 48 c 0,72,73
159 39 m 0,90,91
 159 40 159 40 156.5 43 c 128,-1,92
 154 46 154 46 151 46 c 0,93,94
 146 45 146 45 144 42 c 128,-1,95
 142 39 142 39 142 37 c 0,96,97
 143 34 143 34 144 31.5 c 128,-1,98
 145 29 145 29 150 30 c 0,99,100
 159 30 159 30 159 39 c 0,90,91
EndSplineSet
EndChar

StartChar: V
Encoding: 86 86 62
Width: 1033
Flags: W
LayerCount: 2
Fore
SplineSet
197 425 m 4,0,1
 168 425 168 425 141.5 436 c 4,2,3
 115 447 115 447 93 477.5 c 4,4,5
 71 508 71 508 55 564 c 5,6,-1
 138 591 l 5,7,8
 153 536 153 536 167 518 c 4,9,10
 181 500 181 500 203 500 c 4,11,12
 223 500 223 500 240.5 512.5 c 4,13,14
 258 525 258 525 290 565 c 6,15,-1
 321 605 l 6,16,17
 355 649 355 649 383.5 675 c 4,18,19
 412 701 412 701 444 713 c 4,20,21
 476 725 476 725 520 725 c 5,22,-1
 526 648 l 5,23,24
 491 646 491 646 467.5 637 c 4,25,26
 444 628 444 628 424.5 608.5 c 4,27,28
 405 589 405 589 379 556 c 6,29,-1
 356 526 l 6,30,31
 328 490 328 490 303 468 c 4,32,33
 278 446 278 446 252.5 435.5 c 4,34,35
 227 425 227 425 197 425 c 4,0,1
485 -12 m 4,36,37
 437 -12 437 -12 401.5 6 c 4,38,39
 366 24 366 24 336 56 c 4,40,41
 306 88 306 88 273 131 c 4,42,43
 244 171 244 171 223 189 c 4,44,45
 202 207 202 207 172 207 c 4,46,47
 144 207 144 207 125.5 189 c 4,48,49
 107 171 107 171 107 136 c 4,50,51
 107 105 107 105 126.5 84 c 4,52,53
 146 63 146 63 180 63 c 260,54,55
 214 63 214 63 236.5 83 c 4,56,57
 259 103 259 103 275 141 c 5,58,-1
 328 81 l 5,59,60
 309 54 309 54 288 33 c 4,61,62
 267 12 267 12 240.5 0 c 4,63,64
 214 -12 214 -12 175 -12 c 4,65,66
 122 -12 122 -12 90 10 c 4,67,68
 58 32 58 32 43.5 66.5 c 4,69,70
 29 101 29 101 29 138 c 4,71,72
 29 182 29 182 48 214 c 4,73,74
 67 246 67 246 99 264 c 4,75,76
 131 282 131 282 170 282 c 4,77,78
 206 282 206 282 234 269.5 c 4,79,80
 262 257 262 257 289 230.5 c 4,81,82
 316 204 316 204 348 161 c 4,83,84
 375 126 375 126 396 105 c 4,85,86
 417 84 417 84 439 75.5 c 4,87,88
 461 67 461 67 490 67 c 4,89,90
 540 67 540 67 566.5 99 c 4,91,92
 593 131 593 131 593 189 c 4,93,94
 593 244 593 244 569.5 288 c 4,95,96
 546 332 546 332 506 366.5 c 4,97,98
 466 401 466 401 418 425 c 5,99,-1
 454 500 l 5,100,101
 464 496 464 496 479 487.5 c 4,102,103
 494 479 494 479 503 471 c 6,104,-1
 523 446 l 5,105,106
 566 421 566 421 600.5 383 c 4,107,108
 635 345 635 345 655.5 297 c 4,109,110
 676 249 676 249 676 193 c 4,111,112
 676 130 676 130 654 84 c 4,113,114
 632 38 632 38 589.5 13 c 4,115,116
 547 -12 547 -12 485 -12 c 4,36,37
877 220 m 4,117,118
 840 220 840 220 813.5 231 c 4,119,120
 787 242 787 242 771 260.5 c 4,121,122
 755 279 755 279 747.5 301 c 4,123,124
 740 323 740 323 740 344 c 4,125,126
 740 376 740 376 749.5 399 c 4,127,128
 759 422 759 422 773 443 c 5,129,-1
 861 450 l 5,130,131
 836 425 836 425 824.5 401.5 c 4,132,133
 813 378 813 378 813 353 c 4,134,135
 813 323 813 323 830.5 304.5 c 4,136,137
 848 286 848 286 881 286 c 4,138,139
 916 286 916 286 930.5 304.5 c 4,140,141
 945 323 945 323 945 350 c 4,142,143
 945 392 945 392 919.5 408.5 c 4,144,145
 894 425 894 425 848 425 c 6,146,-1
 444 425 l 5,147,-1
 454 500 l 5,148,-1
 806 500 l 6,149,150
 849 500 849 500 879 496.5 c 4,151,152
 909 493 909 493 931 485 c 4,153,154
 953 477 953 477 971 462 c 4,155,156
 992 446 992 446 1005 418.5 c 4,157,158
 1018 391 1018 391 1018 353 c 4,159,160
 1018 290 1018 290 980 255 c 4,161,162
 942 220 942 220 877 220 c 4,117,118
EndSplineSet
EndChar

StartChar: W
Encoding: 87 87 63
Width: 711
Flags: W
LayerCount: 2
Fore
SplineSet
239 425 m 4,0,1
 210 425 210 425 183.5 436 c 132,-1,2
 157 447 157 447 135 477.5 c 132,-1,3
 113 508 113 508 97 564 c 5,4,-1
 180 591 l 5,5,6
 195 536 195 536 209 518 c 132,-1,7
 223 500 223 500 245 500 c 4,8,9
 265 500 265 500 282.5 512.5 c 132,-1,10
 300 525 300 525 332 565 c 6,11,-1
 363 605 l 6,12,13
 397 649 397 649 425.5 675 c 132,-1,14
 454 701 454 701 486 713 c 132,-1,15
 518 725 518 725 562 725 c 5,16,-1
 568 648 l 5,17,18
 533 646 533 646 509.5 637 c 132,-1,19
 486 628 486 628 466.5 608.5 c 132,-1,20
 447 589 447 589 421 556 c 6,21,-1
 398 526 l 6,22,23
 370 490 370 490 345 468 c 132,-1,24
 320 446 320 446 294.5 435.5 c 132,-1,25
 269 425 269 425 239 425 c 4,0,1
481 -12 m 4,26,27
 435 -12 435 -12 400 6 c 132,-1,28
 365 24 365 24 335.5 56 c 132,-1,29
 306 88 306 88 273 131 c 4,30,31
 244 171 244 171 223 189 c 132,-1,32
 202 207 202 207 172 207 c 4,33,34
 144 207 144 207 125.5 189 c 132,-1,35
 107 171 107 171 107 136 c 4,36,37
 107 105 107 105 126.5 84 c 132,-1,38
 146 63 146 63 180 63 c 260,39,40
 214 63 214 63 236.5 83 c 132,-1,41
 259 103 259 103 275 141 c 5,42,-1
 328 81 l 5,43,44
 309 54 309 54 288 33 c 132,-1,45
 267 12 267 12 240.5 0 c 132,-1,46
 214 -12 214 -12 175 -12 c 4,47,48
 122 -12 122 -12 90 10 c 132,-1,49
 58 32 58 32 43.5 66.5 c 132,-1,50
 29 101 29 101 29 138 c 4,51,52
 29 182 29 182 48 214 c 132,-1,53
 67 246 67 246 99 264 c 132,-1,54
 131 282 131 282 170 282 c 4,55,56
 206 282 206 282 234 269.5 c 132,-1,57
 262 257 262 257 289 230.5 c 132,-1,58
 316 204 316 204 348 161 c 4,59,60
 375 126 375 126 396 105 c 132,-1,61
 417 84 417 84 438 75.5 c 132,-1,62
 459 67 459 67 486 67 c 4,63,64
 539 67 539 67 566 99 c 132,-1,65
 593 131 593 131 593 192 c 4,66,67
 593 249 593 249 570 292.5 c 132,-1,68
 547 336 547 336 506 365.5 c 132,-1,69
 465 395 465 395 410 410 c 132,-1,70
 355 425 355 425 292 425 c 6,71,-1
 243 425 l 5,72,-1
 326 500 l 5,73,74
 437 493 437 493 515.5 452.5 c 132,-1,75
 594 412 594 412 635 345.5 c 132,-1,76
 676 279 676 279 676 194 c 4,77,78
 676 135 676 135 655 88 c 132,-1,79
 634 41 634 41 590.5 14.5 c 132,-1,80
 547 -12 547 -12 481 -12 c 4,26,27
EndSplineSet
EndChar

StartChar: X
Encoding: 88 88 64
Width: 800
Flags: W
LayerCount: 2
Fore
SplineSet
390 -12 m 0,0,1
 300 -12 300 -12 233.5 9.5 c 0,2,3
 167 31 167 31 123 70 c 0,4,5
 79 109 79 109 57.5 161 c 0,6,7
 36 213 36 213 36 273 c 0,8,9
 36 345 36 345 61 396 c 0,10,11
 86 447 86 447 128.5 473.5 c 0,12,13
 171 500 171 500 225 500 c 0,14,15
 265 500 265 500 294.5 484.5 c 0,16,17
 324 469 324 469 340.5 440.5 c 0,18,19
 357 412 357 412 357 373 c 0,20,21
 357 333 357 333 340 301.5 c 0,22,23
 323 270 323 270 289 252.5 c 0,24,25
 255 235 255 235 202 235 c 0,26,27
 152 235 152 235 115 258 c 0,28,29
 78 281 78 281 58 304 c 1,30,-1
 82 366 l 1,31,32
 90 355 90 355 104.5 340.5 c 0,33,34
 119 326 119 326 142 315.5 c 0,35,36
 165 305 165 305 197 305 c 0,37,38
 237 305 237 305 257.5 322 c 0,39,40
 278 339 278 339 278 369 c 0,41,42
 278 398 278 398 262 413.5 c 0,43,44
 246 429 246 429 220 429 c 0,45,46
 173 429 173 429 144 390 c 0,47,48
 115 351 115 351 115 280 c 2,49,-1
 115 271 l 2,50,51
 115 220 115 220 142.5 173 c 0,52,53
 170 126 170 126 230.5 96.5 c 0,54,55
 291 67 291 67 390 67 c 0,56,57
 538 67 538 67 610 119.5 c 0,58,59
 682 172 682 172 682 285 c 0,60,61
 682 322 682 322 671 353.5 c 0,62,63
 660 385 660 385 637.5 405 c 0,64,65
 615 425 615 425 580 425 c 0,66,67
 557 425 557 425 537.5 409.5 c 0,68,69
 518 394 518 394 518 360 c 0,70,71
 518 321 518 321 544 295.5 c 0,72,73
 570 270 570 270 612 256 c 1,74,-1
 612 184 l 1,75,-1
 303 184 l 1,76,-1
 303 258 l 1,77,-1
 522 258 l 1,78,-1
 513 251 l 1,79,80
 478 268 478 268 458.5 300 c 0,81,82
 439 332 439 332 439 374 c 0,83,84
 439 404 439 404 454 433 c 0,85,86
 469 462 469 462 501.5 481 c 0,87,88
 534 500 534 500 584 500 c 0,89,90
 636 500 636 500 676.5 472 c 0,91,92
 717 444 717 444 741 395.5 c 0,93,94
 765 347 765 347 765 284 c 0,95,96
 765 209 765 209 739.5 153 c 0,97,98
 714 97 714 97 665.5 60.5 c 0,99,100
 617 24 617 24 547.5 6 c 0,101,102
 478 -12 478 -12 390 -12 c 0,0,1
EndSplineSet
EndChar

StartChar: Y
Encoding: 89 89 65
Width: 1286
Flags: W
LayerCount: 2
Fore
SplineSet
35 236 m 0,0,1
 35 314 35 314 68 373.5 c 128,-1,2
 101 433 101 433 159.5 466.5 c 128,-1,3
 218 500 218 500 296 500 c 0,4,5
 375 500 375 500 433.5 467.5 c 128,-1,6
 492 435 492 435 525 376 c 128,-1,7
 558 317 558 317 558 237 c 0,8,9
 558 163 558 163 526 106.5 c 128,-1,10
 494 50 494 50 435 19 c 128,-1,11
 376 -12 376 -12 296 -12 c 0,12,13
 217 -12 217 -12 158.5 19 c 128,-1,14
 100 50 100 50 67.5 105.5 c 128,-1,15
 35 161 35 161 35 236 c 0,0,1
118 245 m 0,16,17
 118 167 118 167 163 117 c 128,-1,18
 208 67 208 67 296 67 c 0,19,20
 356 67 356 67 395.5 89 c 128,-1,21
 435 111 435 111 455 150.5 c 128,-1,22
 475 190 475 190 475 240 c 256,23,24
 475 290 475 290 455.5 331 c 128,-1,25
 436 372 436 372 396.5 396.5 c 128,-1,26
 357 421 357 421 296 421 c 256,27,28
 235 421 235 421 195.5 396.5 c 128,-1,29
 156 372 156 372 137 332 c 128,-1,30
 118 292 118 292 118 245 c 0,16,17
709 -12 m 0,31,32
 642 -12 642 -12 591.5 22 c 128,-1,33
 541 56 541 56 502 111 c 1,34,-1
 542 176 l 1,35,36
 570 139 570 139 597.5 115 c 128,-1,37
 625 91 625 91 654.5 79 c 128,-1,38
 684 67 684 67 716 67 c 0,39,40
 767 67 767 67 794 99.5 c 128,-1,41
 821 132 821 132 821 193 c 0,42,43
 821 251 821 251 797.5 295 c 128,-1,44
 774 339 774 339 733.5 371 c 128,-1,45
 693 403 693 403 642 426 c 1,46,-1
 679 492 l 1,47,48
 741 466 741 466 792 422.5 c 128,-1,49
 843 379 843 379 873.5 322.5 c 128,-1,50
 904 266 904 266 904 199 c 0,51,52
 904 100 904 100 854 44 c 128,-1,53
 804 -12 804 -12 709 -12 c 0,31,32
1056 -12 m 0,54,55
 989 -12 989 -12 938.5 22 c 128,-1,56
 888 56 888 56 849 111 c 1,57,-1
 889 176 l 1,58,59
 917 139 917 139 944.5 115 c 128,-1,60
 972 91 972 91 1001.5 79 c 128,-1,61
 1031 67 1031 67 1063 67 c 0,62,63
 1114 67 1114 67 1141 99.5 c 128,-1,64
 1168 132 1168 132 1168 193 c 0,65,66
 1168 251 1168 251 1144.5 294.5 c 128,-1,67
 1121 338 1121 338 1081.5 369.5 c 128,-1,68
 1042 401 1042 401 992 423 c 1,69,-1
 1029 500 l 1,70,71
 1091 474 1091 474 1141 430 c 128,-1,72
 1191 386 1191 386 1221 328 c 128,-1,73
 1251 270 1251 270 1251 199 c 0,74,75
 1251 100 1251 100 1201 44 c 128,-1,76
 1151 -12 1151 -12 1056 -12 c 0,54,55
635 425 m 0,77,78
 606 425 606 425 579.5 436 c 128,-1,79
 553 447 553 447 531 477.5 c 128,-1,80
 509 508 509 508 493 564 c 1,81,-1
 576 591 l 1,82,83
 591 536 591 536 605 518 c 128,-1,84
 619 500 619 500 641 500 c 0,85,86
 661 500 661 500 678.5 512.5 c 128,-1,87
 696 525 696 525 728 565 c 2,88,-1
 759 605 l 2,89,90
 793 649 793 649 821.5 675 c 128,-1,91
 850 701 850 701 882 713 c 128,-1,92
 914 725 914 725 958 725 c 1,93,-1
 964 648 l 1,94,95
 929 646 929 646 905.5 637 c 128,-1,96
 882 628 882 628 862.5 608.5 c 128,-1,97
 843 589 843 589 817 556 c 2,98,-1
 794 526 l 2,99,100
 766 490 766 490 741 468 c 128,-1,101
 716 446 716 446 690.5 435.5 c 128,-1,102
 665 425 665 425 635 425 c 0,77,78
EndSplineSet
EndChar

StartChar: Z
Encoding: 90 90 66
Width: 731
Flags: W
LayerCount: 2
Fore
SplineSet
530 -12 m 0,0,1
 492 -12 492 -12 462.5 -1.5 c 128,-1,2
 433 9 433 9 409.5 31 c 128,-1,3
 386 53 386 53 366 89 c 1,4,-1
 386 90 l 1,5,6
 360 49 360 49 333 27 c 128,-1,7
 306 5 306 5 275 -3.5 c 128,-1,8
 244 -12 244 -12 205 -12 c 0,9,10
 150 -12 150 -12 113.5 7.5 c 128,-1,11
 77 27 77 27 59 59.5 c 128,-1,12
 41 92 41 92 41 130 c 0,13,14
 41 171 41 171 57.5 200 c 128,-1,15
 74 229 74 229 107 250.5 c 128,-1,16
 140 272 140 272 189 289 c 0,17,18
 230 304 230 304 254 321 c 128,-1,19
 278 338 278 338 278 371 c 0,20,21
 278 387 278 387 271 399.5 c 128,-1,22
 264 412 264 412 247.5 419.5 c 128,-1,23
 231 427 231 427 203 427 c 0,24,25
 160 427 160 427 139 410.5 c 128,-1,26
 118 394 118 394 118 365 c 0,27,28
 118 352 118 352 121.5 341 c 128,-1,29
 125 330 125 330 128 323 c 1,30,-1
 53 302 l 1,31,32
 45 317 45 317 40.5 335.5 c 128,-1,33
 36 354 36 354 36 375 c 0,34,35
 36 407 36 407 53 435.5 c 128,-1,36
 70 464 70 464 107 482 c 128,-1,37
 144 500 144 500 203 500 c 0,38,39
 263 500 263 500 297 480 c 128,-1,40
 331 460 331 460 345.5 430 c 128,-1,41
 360 400 360 400 360 370 c 0,42,43
 360 332 360 332 345 305.5 c 128,-1,44
 330 279 330 279 300.5 260 c 128,-1,45
 271 241 271 241 227 225 c 0,46,47
 174 205 174 205 148.5 184.5 c 128,-1,48
 123 164 123 164 123 131 c 0,49,50
 123 102 123 102 143.5 84.5 c 128,-1,51
 164 67 164 67 207 67 c 0,52,53
 249 67 249 67 276.5 81.5 c 128,-1,54
 304 96 304 96 318.5 123 c 128,-1,55
 333 150 333 150 336 185 c 1,56,-1
 414 185 l 1,57,58
 418 124 418 124 450 95.5 c 128,-1,59
 482 67 482 67 527 67 c 0,60,61
 574 67 574 67 596 87 c 128,-1,62
 618 107 618 107 618 142 c 0,63,64
 618 165 618 165 611 184 c 128,-1,65
 604 203 604 203 593 221 c 1,66,-1
 667 252 l 1,67,68
 682 230 682 230 691.5 198.5 c 128,-1,69
 701 167 701 167 701 135 c 0,70,71
 701 89 701 89 681 56 c 128,-1,72
 661 23 661 23 623 5.5 c 128,-1,73
 585 -12 585 -12 530 -12 c 0,0,1
673 377 m 0,74,75
 673 324 673 324 631.5 288 c 128,-1,76
 590 252 590 252 512 252 c 0,77,78
 458 252 458 252 416 267 c 128,-1,79
 374 282 374 282 345 306.5 c 128,-1,80
 316 331 316 331 299 357 c 1,81,-1
 335 414 l 1,82,83
 364 370 364 370 415 348.5 c 128,-1,84
 466 327 466 327 514 327 c 0,85,86
 541 327 541 327 558 333 c 128,-1,87
 575 339 575 339 583.5 350 c 128,-1,88
 592 361 592 361 592 376 c 0,89,90
 592 404 592 404 571 414.5 c 128,-1,91
 550 425 550 425 521 425 c 0,92,93
 503 425 503 425 488 423 c 128,-1,94
 473 421 473 421 460 419 c 1,95,-1
 450 491 l 1,96,97
 462 494 462 494 482 497 c 128,-1,98
 502 500 502 500 529 500 c 0,99,100
 565 500 565 500 598 489 c 128,-1,101
 631 478 631 478 652 451 c 128,-1,102
 673 424 673 424 673 377 c 0,74,75
EndSplineSet
EndChar

StartChar: a
Encoding: 97 97 67
Width: 574
Flags: W
LayerCount: 2
Fore
SplineSet
108 77 m 0,0,1
 96 93 96 93 87 108.5 c 128,-1,2
 78 124 78 124 76 139 c 0,3,4
 73 153 73 153 67 152 c 0,5,6
 59 152 59 152 62 134 c 0,7,8
 63 125 63 125 67.5 112 c 128,-1,9
 72 99 72 99 78 88 c 128,-1,10
 84 77 84 77 92 69.5 c 128,-1,11
 100 62 100 62 109 63 c 0,12,13
 117 65 117 65 108 77 c 0,0,1
219.5 -1 m 0,14,15
 158 -1 158 -1 111.5 30.5 c 0,16,17
 64 62 64 62 38 123.5 c 128,-1,18
 12 185 12 185 11.5 274 c 0,19,20
 12 368 12 368 44.5 433.5 c 0,21,22
 78 499 78 499 132 534 c 128,-1,23
 186 569 186 569 249.5 569 c 0,24,25
 284 569 284 569 316 555 c 128,-1,26
 348 541 348 541 375 509.5 c 128,-1,27
 402 478 402 478 416.5 426 c 1,28,-1
 419.5 426 l 1,29,-1
 442.5 509 l 1,30,-1
 532.5 509 l 1,31,32
 522 456 522 456 510 420 c 128,-1,33
 498 384 498 384 488 326.5 c 128,-1,34
 478 269 478 269 471 218.5 c 0,35,36
 465 178 465 178 464.5 131 c 0,37,38
 464 104 464 104 480 89.5 c 128,-1,39
 496 75 496 75 518.5 75 c 0,40,41
 528 75 528 75 537.5 77 c 0,42,43
 548 79 548 79 555.5 83 c 1,44,-1
 568.5 13 l 1,45,46
 558 8 558 8 540.5 3.5 c 0,47,48
 524 -1 524 -1 499.5 -1 c 0,49,50
 452 -1 452 -1 422 25.5 c 128,-1,51
 392 52 392 52 392.5 109 c 1,52,-1
 388.5 109 l 1,53,54
 326 -1 326 -1 219.5 -1 c 0,14,15
238.5 76 m 0,55,56
 274.5 76 274.5 76 307 98.5 c 128,-1,57
 339.5 121 339.5 121 361.5 159.5 c 128,-1,58
 383.5 198 383.5 198 386.5 244 c 2,59,-1
 395.5 347 l 1,60,61
 383.5 391 383.5 391 368 419.5 c 128,-1,62
 352.5 448 352.5 448 334.5 464 c 128,-1,63
 316.5 480 316.5 480 297 486 c 128,-1,64
 277.5 492 277.5 492 258.5 492 c 0,65,66
 219.5 492 219.5 492 184.5 467.5 c 128,-1,67
 149.5 443 149.5 443 127.5 395 c 128,-1,68
 105.5 347 105.5 347 105.5 275 c 0,69,70
 105.5 180 105.5 180 141 128 c 128,-1,71
 176.5 76 176.5 76 238.5 76 c 0,55,56
EndSplineSet
EndChar

StartChar: b
Encoding: 98 98 68
Width: 411
Flags: W
LayerCount: 2
Fore
SplineSet
82 655 m 0,0,1
 62 655 62 655 45 640 c 128,-1,2
 28 625 28 625 28 586 c 2,3,-1
 28 91 l 2,4,5
 28 70 28 70 36.5 53 c 128,-1,6
 45 36 45 36 59.5 24.5 c 128,-1,7
 74 13 74 13 92.5 7 c 128,-1,8
 111 1 111 1 131 1 c 2,9,-1
 190 1 l 2,10,11
 221 1 221 1 256.5 13 c 128,-1,12
 292 25 292 25 322 51 c 128,-1,13
 352 77 352 77 372 119 c 128,-1,14
 392 161 392 161 392 220 c 256,15,16
 392 279 392 279 372.5 325.5 c 128,-1,17
 353 372 353 372 324 403.5 c 128,-1,18
 295 435 295 435 261 451.5 c 128,-1,19
 227 468 227 468 197 468 c 2,20,-1
 168 468 l 2,21,22
 159 468 159 468 150.5 472 c 128,-1,23
 142 476 142 476 142 485 c 2,24,-1
 142 590 l 2,25,26
 142 608 142 608 136.5 620 c 128,-1,27
 131 632 131 632 122 640 c 128,-1,28
 113 648 113 648 102.5 651.5 c 128,-1,29
 92 655 92 655 82 655 c 0,0,1
186 379 m 2,30,31
 203 379 203 379 219 371 c 128,-1,32
 235 363 235 363 248.5 345.5 c 128,-1,33
 262 328 262 328 270 300 c 128,-1,34
 278 272 278 272 278 232 c 0,35,36
 278 189 278 189 270 160.5 c 128,-1,37
 262 132 262 132 249 115.5 c 128,-1,38
 236 99 236 99 220 92 c 128,-1,39
 204 85 204 85 189 85 c 2,40,-1
 167 85 l 2,41,42
 142 85 142 85 142 119 c 2,43,-1
 142 356 l 2,44,45
 142 379 142 379 173 379 c 2,46,-1
 186 379 l 2,30,31
68 620 m 256,47,48
 63 615 63 615 59.5 602 c 128,-1,49
 56 589 56 589 56 550.5 c 128,-1,50
 56 512 56 512 49 512 c 0,51,52
 44 512 44 512 42.5 520.5 c 128,-1,53
 41 529 41 529 41 541 c 0,54,55
 41 603 41 603 48 619 c 128,-1,56
 55 635 55 635 65 635 c 0,57,58
 67 635 67 635 70 633 c 128,-1,59
 73 631 73 631 73 629 c 0,60,61
 73 625 73 625 68 620 c 256,47,48
EndSplineSet
EndChar

StartChar: c
Encoding: 99 99 69
Width: 537
Flags: W
LayerCount: 2
Fore
SplineSet
374 17 m 0,0,1
 256 17 256 17 191 84 c 128,-1,2
 126 151 126 151 126 272 c 0,3,4
 126 352 126 352 155 407.5 c 128,-1,5
 184 463 184 463 238 492 c 1,6,-1
 10 492 l 1,7,-1
 10 564 l 1,8,-1
 520 564 l 1,9,-1
 520 492 l 1,10,-1
 418 492 l 2,11,12
 324 492 324 492 270.5 438.5 c 128,-1,13
 217 385 217 385 217 279 c 0,14,15
 217 192 217 192 260 141.5 c 128,-1,16
 303 91 303 91 383 91 c 0,17,18
 420 91 420 91 454 100.5 c 128,-1,19
 488 110 488 110 520 126 c 1,20,-1
 520 48 l 1,21,22
 491 32 491 32 456 24.5 c 128,-1,23
 421 17 421 17 374 17 c 0,0,1
EndSplineSet
EndChar

StartChar: d
Encoding: 100 100 70
Width: 409
Flags: W
LayerCount: 2
Fore
SplineSet
327 674 m 0,0,1
 347 674 347 674 364 659 c 128,-1,2
 381 644 381 644 381 548 c 2,3,-1
 381 91 l 2,4,5
 381 70 381 70 372.5 53 c 128,-1,6
 364 36 364 36 349.5 24.5 c 128,-1,7
 335 13 335 13 316.5 7 c 128,-1,8
 298 1 298 1 278 1 c 2,9,-1
 219 1 l 2,10,11
 188 1 188 1 152.5 13 c 128,-1,12
 117 25 117 25 87 51 c 128,-1,13
 57 77 57 77 37 119 c 128,-1,14
 17 161 17 161 17 220 c 256,15,16
 17 279 17 279 36.5 325.5 c 128,-1,17
 56 372 56 372 85 403.5 c 128,-1,18
 114 435 114 435 148 451.5 c 128,-1,19
 182 468 182 468 212 468 c 2,20,-1
 241 468 l 2,21,22
 250 468 250 468 258.5 472 c 128,-1,23
 267 476 267 476 267 485 c 2,24,-1
 267 609 l 2,25,26
 267 627 267 627 272.5 639 c 128,-1,27
 278 651 278 651 287 659 c 128,-1,28
 296 667 296 667 306.5 670.5 c 128,-1,29
 317 674 317 674 327 674 c 0,0,1
223 379 m 2,30,31
 206 379 206 379 190 371 c 128,-1,32
 174 363 174 363 160.5 345.5 c 128,-1,33
 147 328 147 328 139 300 c 128,-1,34
 131 272 131 272 131 232 c 0,35,36
 131 189 131 189 139 160.5 c 128,-1,37
 147 132 147 132 160 115.5 c 128,-1,38
 173 99 173 99 189 92 c 128,-1,39
 205 85 205 85 220 85 c 2,40,-1
 242 85 l 2,41,42
 267 85 267 85 267 119 c 2,43,-1
 267 356 l 2,44,45
 267 379 267 379 236 379 c 2,46,-1
 223 379 l 2,30,31
341 639 m 256,47,48
 346 634 346 634 349.5 621 c 128,-1,49
 353 608 353 608 353 537 c 0,50,51
 353 512 353 512 360 512 c 0,52,53
 365 512 365 512 366.5 520.5 c 128,-1,54
 368 529 368 529 368 541 c 0,55,56
 368 622 368 622 361 638 c 128,-1,57
 354 654 354 654 344 654 c 0,58,59
 342 654 342 654 339 652 c 128,-1,60
 336 650 336 650 336 648 c 0,61,62
 336 644 336 644 341 639 c 256,47,48
EndSplineSet
EndChar

StartChar: e
Encoding: 101 101 71
Width: 398
Flags: W
LayerCount: 2
Fore
SplineSet
214 -10 m 0,0,1
 169 -10 169 -10 132.5 11.5 c 128,-1,2
 96 33 96 33 70 73 c 128,-1,3
 44 113 44 113 29.5 168.5 c 128,-1,4
 15 224 15 224 15 292 c 0,5,6
 15 364 15 364 31 424.5 c 128,-1,7
 47 485 47 485 75.5 529.5 c 128,-1,8
 104 574 104 574 143.5 598.5 c 128,-1,9
 183 623 183 623 229 623 c 0,10,11
 263 623 263 623 291.5 610 c 128,-1,12
 320 597 320 597 340 573.5 c 128,-1,13
 360 550 360 550 370.5 518.5 c 128,-1,14
 381 487 381 487 379 450 c 0,15,16
 377 407 377 407 359 366.5 c 128,-1,17
 341 326 341 326 311 295 c 128,-1,18
 281 264 281 264 241.5 245.5 c 128,-1,19
 202 227 202 227 157 227 c 0,20,21
 140 227 140 227 140 213 c 0,22,23
 140 149 140 149 162.5 118.5 c 128,-1,24
 185 88 185 88 220 88 c 0,25,26
 246 88 246 88 263.5 107 c 128,-1,27
 281 126 281 126 281 155 c 0,28,29
 281 179 281 179 294 193.5 c 128,-1,30
 307 208 307 208 327 208 c 0,31,32
 350 208 350 208 363.5 189.5 c 128,-1,33
 377 171 377 171 377 139 c 0,34,35
 377 109 377 109 364 81.5 c 128,-1,36
 351 54 351 54 329 34 c 128,-1,37
 307 14 307 14 277 2 c 128,-1,38
 247 -10 247 -10 214 -10 c 0,0,1
84 477 m 0,39,40
 87 477 87 477 96.5 491.5 c 128,-1,41
 106 506 106 506 119 523.5 c 128,-1,42
 132 541 132 541 147 556.5 c 128,-1,43
 162 572 162 572 177 573 c 0,44,45
 182 574 182 574 186.5 576.5 c 128,-1,46
 191 579 191 579 190 582 c 0,47,48
 190 592 190 592 177 590 c 0,49,50
 160 589 160 589 142.5 576 c 128,-1,51
 125 563 125 563 110.5 545.5 c 128,-1,52
 96 528 96 528 87 510 c 128,-1,53
 78 492 78 492 79 481 c 0,54,55
 81 474 81 474 84 477 c 0,39,40
137 315 m 0,56,57
 140 311 140 311 151 311 c 0,58,59
 177 311 177 311 201 324 c 128,-1,60
 225 337 225 337 243 357 c 128,-1,61
 261 377 261 377 272 403 c 128,-1,62
 283 429 283 429 283 454 c 0,63,64
 283 486 283 486 267.5 507 c 128,-1,65
 252 528 252 528 229 528 c 0,66,67
 212 528 212 528 197.5 513.5 c 128,-1,68
 183 499 183 499 171.5 477.5 c 128,-1,69
 160 456 160 456 152 429.5 c 128,-1,70
 144 403 144 403 139.5 379.5 c 128,-1,71
 135 356 135 356 134 338 c 128,-1,72
 133 320 133 320 137 315 c 0,56,57
71 467 m 0,73,74
 66 466 66 466 63 459.5 c 128,-1,75
 60 453 60 453 61 445 c 0,76,77
 63 436 63 436 65 437 c 0,78,79
 70 437 70 437 74 446 c 128,-1,80
 78 455 78 455 76 462 c 0,81,82
 74 468 74 468 71 467 c 0,73,74
EndSplineSet
EndChar

StartChar: f
Encoding: 102 102 72
Width: 337
Flags: W
LayerCount: 2
Fore
SplineSet
85 0 m 0,0,1
 58 0 58 0 40.5 9.5 c 128,-1,2
 23 19 23 19 23 49 c 2,3,-1
 23 543 l 2,4,5
 23 582 23 582 51.5 599.5 c 128,-1,6
 80 617 80 617 125 617 c 2,7,-1
 295 616 l 2,8,9
 306 616 306 616 315 604.5 c 128,-1,10
 324 593 324 593 324 579 c 0,11,12
 324 572 324 572 322.5 561.5 c 128,-1,13
 321 551 321 551 318 541.5 c 128,-1,14
 315 532 315 532 310.5 525.5 c 128,-1,15
 306 519 306 519 300 519 c 2,16,-1
 163 520 l 2,17,18
 137 520 137 520 137 494 c 2,19,-1
 137 345 l 2,20,21
 137 335 137 335 143.5 330.5 c 128,-1,22
 150 326 150 326 160 326 c 2,23,-1
 266 329 l 2,24,25
 274 329 274 329 280 324 c 128,-1,26
 286 319 286 319 291 310.5 c 128,-1,27
 296 302 296 302 298.5 293 c 128,-1,28
 301 284 301 284 301 276 c 0,29,30
 301 237 301 237 263 236 c 2,31,-1
 157 233 l 2,32,33
 149 233 149 233 143 227 c 128,-1,34
 137 221 137 221 137 213 c 2,35,-1
 137 48 l 2,36,37
 137 32 137 32 132.5 22.5 c 128,-1,38
 128 13 128 13 120.5 8 c 128,-1,39
 113 3 113 3 103.5 1.5 c 128,-1,40
 94 0 94 0 85 0 c 0,0,1
73 26 m 0,41,42
 72 31 72 31 63.5 42 c 128,-1,43
 55 53 55 53 53 78 c 0,44,45
 51 91 51 91 47.5 94 c 128,-1,46
 44 97 44 97 42 97 c 256,47,48
 40 97 40 97 38.5 91 c 128,-1,49
 37 85 37 85 39 75 c 0,50,51
 39 70 39 70 41 60.5 c 128,-1,52
 43 51 43 51 46.5 41.5 c 128,-1,53
 50 32 50 32 55 25 c 128,-1,54
 60 18 60 18 67 19 c 0,55,56
 73 19 73 19 73 26 c 0,41,42
EndSplineSet
EndChar

StartChar: g
Encoding: 103 103 73
Width: 439
Flags: W
LayerCount: 2
Fore
SplineSet
241 -5 m 0,0,1
 174 -5 174 -5 130 28 c 128,-1,2
 86 61 86 61 60 111 c 128,-1,3
 34 161 34 161 24 219 c 128,-1,4
 14 277 14 277 14 328 c 0,5,6
 14 384 14 384 25.5 437.5 c 128,-1,7
 37 491 37 491 64 532.5 c 128,-1,8
 91 574 91 574 134.5 599.5 c 128,-1,9
 178 625 178 625 242 625 c 0,10,11
 273 625 273 625 301.5 616.5 c 128,-1,12
 330 608 330 608 352 589.5 c 128,-1,13
 374 571 374 571 387 540.5 c 128,-1,14
 400 510 400 510 400 466 c 0,15,16
 400 450 400 450 393.5 440.5 c 128,-1,17
 387 431 387 431 377.5 425.5 c 128,-1,18
 368 420 368 420 358 418.5 c 128,-1,19
 348 417 348 417 342 417 c 0,20,21
 328 417 328 417 315.5 427 c 128,-1,22
 303 437 303 437 303 466 c 0,23,24
 303 511 303 511 282.5 529 c 128,-1,25
 262 547 262 547 233 547 c 0,26,27
 213 547 213 547 194.5 530.5 c 128,-1,28
 176 514 176 514 162 483.5 c 128,-1,29
 148 453 148 453 140 410 c 128,-1,30
 132 367 132 367 132 314 c 0,31,32
 132 285 132 285 135.5 245 c 128,-1,33
 139 205 139 205 151 169 c 128,-1,34
 163 133 163 133 185 107.5 c 128,-1,35
 207 82 207 82 243 82 c 0,36,37
 272 82 272 82 288.5 96.5 c 128,-1,38
 305 111 305 111 312.5 132 c 128,-1,39
 320 153 320 153 321.5 175.5 c 128,-1,40
 323 198 323 198 322 214 c 256,41,42
 321 230 321 230 308.5 231.5 c 128,-1,43
 296 233 296 233 273 233 c 2,44,-1
 222 233 l 2,45,46
 216 233 216 233 211 239 c 128,-1,47
 206 245 206 245 203 253.5 c 128,-1,48
 200 262 200 262 198 271 c 128,-1,49
 196 280 196 280 196 286 c 0,50,51
 196 302 196 302 206.5 314.5 c 128,-1,52
 217 327 217 327 240 327 c 2,53,-1
 348 326 l 2,54,55
 379 326 379 326 404 306 c 128,-1,56
 429 286 429 286 429 249 c 0,57,58
 429 206 429 206 419.5 161 c 128,-1,59
 410 116 410 116 388 79 c 128,-1,60
 366 42 366 42 330 18.5 c 128,-1,61
 294 -5 294 -5 241 -5 c 0,0,1
146 58 m 0,62,63
 146 62 146 62 126 84 c 0,64,65
 117 93 117 93 108 106.5 c 128,-1,66
 99 120 99 120 91.5 133 c 128,-1,67
 84 146 84 146 79.5 157.5 c 128,-1,68
 75 169 75 169 75 173 c 0,69,70
 75 178 75 178 72 179.5 c 128,-1,71
 69 181 69 181 68 181 c 0,72,73
 60 181 60 181 60 170 c 256,74,75
 60 159 60 159 69 139 c 128,-1,76
 78 119 78 119 90.5 99.5 c 128,-1,77
 103 80 103 80 116.5 66 c 128,-1,78
 130 52 130 52 140 52 c 0,79,80
 146 52 146 52 146 58 c 0,62,63
169 45 m 0,81,82
 169 52 169 52 162 52 c 0,83,84
 158 52 158 52 156.5 49 c 128,-1,85
 155 46 155 46 155 44 c 0,86,87
 155 39 155 39 157.5 38 c 128,-1,88
 160 37 160 37 162 37 c 0,89,90
 169 37 169 37 169 45 c 0,81,82
EndSplineSet
EndChar

StartChar: h
Encoding: 104 104 74
Width: 401
Flags: W
LayerCount: 2
Fore
SplineSet
75 0 m 0,0,1
 50 0 50 0 40 14.5 c 128,-1,2
 30 29 30 29 30 65 c 2,3,-1
 30 343 l 2,4,5
 30 434 30 434 28 518 c 0,6,7
 27 616 27 616 78 616 c 0,8,9
 97 616 97 616 115 606.5 c 128,-1,10
 133 597 133 597 133 571 c 2,11,-1
 133 358 l 2,12,13
 133 318 133 318 137 318 c 256,14,15
 141 318 141 318 146 334 c 128,-1,16
 151 350 151 350 163 369.5 c 128,-1,17
 175 389 175 389 197 405 c 128,-1,18
 219 421 219 421 255 421 c 0,19,20
 319 421 319 421 348 358 c 128,-1,21
 377 295 377 295 377 157 c 2,22,-1
 377 31 l 2,23,24
 377 0 377 0 321 0 c 0,25,26
 294 0 294 0 282 11.5 c 128,-1,27
 270 23 270 23 270 34 c 2,28,-1
 270 148 l 2,29,30
 270 200 270 200 267 232 c 128,-1,31
 264 264 264 264 258 282 c 128,-1,32
 252 300 252 300 242.5 306.5 c 128,-1,33
 233 313 233 313 219 313 c 0,34,35
 198 313 198 313 182.5 293.5 c 128,-1,36
 167 274 167 274 157 241 c 128,-1,37
 147 208 147 208 142.5 163.5 c 0,38,39
 138 123 138 123 138 121 c 2,40,-1
 138 45 l 2,41,42
 138 30 138 30 130.5 21 c 128,-1,43
 123 12 123 12 113 7.5 c 128,-1,44
 103 3 103 3 92.5 1.5 c 128,-1,45
 82 0 82 0 75 0 c 0,0,1
50 316 m 0,46,47
 53 316 53 316 55 328 c 128,-1,48
 57 340 57 340 59 355 c 128,-1,49
 61 370 61 370 62 482 c 128,-1,50
 63 594 63 594 63 595 c 0,51,52
 63 597 63 597 62.5 600 c 128,-1,53
 62 603 62 603 60 603 c 0,54,55
 55 603 55 603 51.5 595.5 c 128,-1,56
 48 588 48 588 46 479 c 128,-1,57
 44 370 44 370 43 360.5 c 128,-1,58
 42 351 42 351 42 348 c 0,59,60
 42 340 42 340 44 328 c 128,-1,61
 46 316 46 316 50 316 c 0,46,47
307 29 m 0,62,63
 307 35 307 35 305 38 c 128,-1,64
 303 41 303 41 300.5 43 c 128,-1,65
 298 45 298 45 296 49 c 128,-1,66
 294 53 294 53 294 60 c 0,67,68
 294 76 294 76 292.5 80 c 128,-1,69
 291 84 291 84 286 84 c 256,70,71
 281 84 281 84 279.5 76.5 c 128,-1,72
 278 69 278 69 278 59 c 0,73,74
 278 39 278 39 284 27 c 128,-1,75
 290 15 290 15 298 15 c 0,76,77
 301 15 301 15 304 18.5 c 128,-1,78
 307 22 307 22 307 29 c 0,62,63
74 26 m 0,79,80
 74 31 74 31 71.5 33.5 c 128,-1,81
 69 36 69 36 66 38.5 c 128,-1,82
 63 41 63 41 60.5 45 c 128,-1,83
 58 49 58 49 58 56 c 0,84,85
 58 77 58 77 51 77 c 0,86,87
 49 77 49 77 47 69.5 c 128,-1,88
 45 62 45 62 45 51 c 0,89,90
 45 36 45 36 51.5 24 c 128,-1,91
 58 12 58 12 66 12 c 0,92,93
 68 12 68 12 71 16 c 128,-1,94
 74 20 74 20 74 26 c 0,79,80
EndSplineSet
EndChar

StartChar: i
Encoding: 105 105 75
Width: 215
Flags: W
LayerCount: 2
Fore
SplineSet
98 -4 m 256,0,1
 74 -4 74 -4 61 6.5 c 128,-1,2
 48 17 48 17 48 32 c 2,3,-1
 48 387 l 2,4,5
 48 396 48 396 50.5 408 c 128,-1,6
 53 420 53 420 58.5 430 c 128,-1,7
 64 440 64 440 73.5 447 c 128,-1,8
 83 454 83 454 98 454 c 256,9,10
 113 454 113 454 123.5 448 c 128,-1,11
 134 442 134 442 140.5 433 c 128,-1,12
 147 424 147 424 150.5 413 c 128,-1,13
 154 402 154 402 154 392 c 2,14,-1
 154 32 l 2,15,16
 154 16 154 16 138 6 c 128,-1,17
 122 -4 122 -4 98 -4 c 256,0,1
66 357 m 0,18,19
 69 357 69 357 70 363 c 128,-1,20
 71 369 71 369 71 377.5 c 128,-1,21
 71 386 71 386 71.5 395.5 c 128,-1,22
 72 405 72 405 74 411 c 0,23,24
 75 415 75 415 77 422 c 128,-1,25
 79 429 79 429 76 429 c 0,26,27
 71 429 71 429 67.5 423.5 c 128,-1,28
 64 418 64 418 61.5 410.5 c 128,-1,29
 59 403 59 403 58 395.5 c 128,-1,30
 57 388 57 388 57 383 c 0,31,32
 57 374 57 374 59 365.5 c 128,-1,33
 61 357 61 357 66 357 c 0,18,19
101.466796875 523.2265625 m 4,34,35
 66 523 66 523 41.001953125 552.055664062 c 132,-1,36
 16 581 16 581 15.8447265625 626.186523438 c 4,37,38
 16 651 16 651 23.34765625 673.033203125 c 4,39,40
 31 695 31 695 44.0908203125 711.12890625 c 4,41,42
 57 727 57 727 75.8681640625 736.868164062 c 4,43,44
 94 747 94 747 116.47265625 746.649414062 c 4,45,46
 134 747 134 747 149.131835938 737.8984375 c 4,47,48
 164 729 164 729 174.731445312 713.702148438 c 4,49,50
 185 698 185 698 191.060546875 678.696289062 c 4,51,52
 197 659 197 659 196.798828125 637.51171875 c 4,53,54
 197 610 197 610 189.294921875 588.606445312 c 4,55,56
 182 567 182 567 168.551757812 553.083984375 c 132,-1,57
 155 539 155 539 138.098632812 530.948242188 c 4,58,59
 120 523 120 523 101.466796875 523.2265625 c 4,34,35
68.806640625 701.34765625 m 4,60,61
 75 709 75 709 76.3095703125 713.702148438 c 4,62,63
 78 719 78 719 75.8681640625 718.850585938 c 4,64,65
 69 719 69 719 60.8623046875 711.12890625 c 4,66,67
 53 703 53 703 46.2978515625 692.595703125 c 4,68,69
 40 682 40 682 35.2646484375 669.4296875 c 4,70,71
 30 654 30 654 30.8505859375 646.778320312 c 4,72,73
 31 645 31 645 32.173828125 638.541015625 c 4,74,75
 33 632 33 632 36.1474609375 632.36328125 c 4,76,77
 40 633 40 633 44.9736328125 655.015625 c 4,78,79
 48 669 48 669 54.68359375 681.26953125 c 4,80,81
 61 693 61 693 68.806640625 701.34765625 c 4,60,61
104.997070312 581.913085938 m 4,82,83
 116 582 116 582 130.154296875 596.328125 c 4,84,85
 145 611 145 611 144.71875 637.51171875 c 4,86,87
 145 658 145 658 135.451171875 672.002929688 c 132,-1,88
 126 686 126 686 111.17578125 685.903320312 c 260,89,90
 96 686 96 686 83.8125 672.002929688 c 4,91,92
 71 657 71 657 71.4541015625 633.393554688 c 260,93,94
 72 609 72 609 81.1640625 595.298828125 c 4,95,96
 91 582 91 582 104.997070312 581.913085938 c 4,82,83
EndSplineSet
EndChar

StartChar: j
Encoding: 106 106 76
Width: 508
Flags: W
LayerCount: 2
Fore
SplineSet
210.5 7 m 0,0,1
 254 0 254 0 275 17.5 c 128,-1,2
 296 35 296 35 305.5 64 c 128,-1,3
 315 93 315 93 316.5 130 c 128,-1,4
 318 167 318 167 318 206 c 2,5,-1
 318 541 l 1,6,-1
 458 541 l 2,7,8
 480 541 480 541 488 552 c 128,-1,9
 496 563 496 563 496 580 c 256,10,11
 496 597 496 597 489.5 607 c 128,-1,12
 483 617 483 617 458 617 c 2,13,-1
 43 617 l 2,14,15
 25 617 25 617 17.5 608.5 c 128,-1,16
 10 600 10 600 10 586 c 0,17,18
 10 566 10 566 16.5 553.5 c 128,-1,19
 23 541 23 541 39 541 c 2,20,-1
 215 541 l 1,21,-1
 215 178 l 2,22,23
 215 141 215 141 212.5 118 c 128,-1,24
 210 95 210 95 199 95 c 2,25,-1
 191 95 l 1,26,-1
 105 77 l 0,27,28
 96 62 96 62 97 10 c 0,29,-1
 210.5 7 l 0,0,1
476 587 m 0,30,31
 476 592 476 592 474.5 598.5 c 128,-1,32
 473 605 473 605 475 605 c 0,33,34
 480 605 480 605 483.5 597.5 c 128,-1,35
 487 590 487 590 487 579 c 0,36,37
 487 572 487 572 484.5 564.5 c 128,-1,38
 482 557 482 557 477 557 c 256,39,40
 472 557 472 557 474 567.5 c 128,-1,41
 476 578 476 578 476 587 c 0,30,31
263 50 m 0,42,43
 263 54 263 54 271.5 70 c 128,-1,44
 280 86 280 86 281 100 c 0,45,46
 282 108 282 108 286 112.5 c 128,-1,47
 290 117 290 117 293 117 c 0,48,49
 299 117 299 117 299.5 108.5 c 128,-1,50
 300 100 300 100 300 95 c 0,51,52
 300 91 300 91 297.5 81.5 c 128,-1,53
 295 72 295 72 291 62.5 c 128,-1,54
 287 53 287 53 282 46 c 128,-1,55
 277 39 277 39 272 39 c 0,56,57
 269 39 269 39 266 43 c 128,-1,58
 263 47 263 47 263 50 c 0,42,43
EndSplineSet
EndChar

StartChar: k
Encoding: 107 107 77
Width: 434
Flags: W
LayerCount: 2
Fore
SplineSet
77 0 m 0,0,1
 56 0 56 0 46 11 c 128,-1,2
 36 22 36 22 32.5 38.5 c 128,-1,3
 29 55 29 55 29 73 c 128,-1,4
 29 91 29 91 29 105 c 2,5,-1
 29 204 l 1,6,-1
 28 402 l 1,7,-1
 28 501 l 2,8,9
 28 533 28 533 30 554 c 128,-1,10
 32 575 32 575 38 590 c 128,-1,11
 44 605 44 605 55.5 613 c 128,-1,12
 67 621 67 621 87 621 c 0,13,14
 110 621 110 621 127.5 602.5 c 128,-1,15
 145 584 145 584 145 554 c 0,16,17
 145 549 145 549 144.5 533 c 128,-1,18
 144 517 144 517 144 493.5 c 128,-1,19
 144 470 144 470 144 446.5 c 128,-1,20
 144 423 144 423 144 403.5 c 128,-1,21
 144 384 144 384 145.5 371 c 128,-1,22
 147 358 147 358 149 358 c 0,23,24
 153 358 153 358 165 377 c 128,-1,25
 177 396 177 396 193 425 c 128,-1,26
 209 454 209 454 228 487 c 128,-1,27
 247 520 247 520 266 549 c 128,-1,28
 285 578 285 578 301.5 597 c 128,-1,29
 318 616 318 616 329 616 c 0,30,31
 338 616 338 616 349 613 c 128,-1,32
 360 610 360 610 369 604 c 128,-1,33
 378 598 378 598 384 589 c 128,-1,34
 390 580 390 580 390 567 c 0,35,36
 390 559 390 559 379 538.5 c 128,-1,37
 368 518 368 518 352 492 c 128,-1,38
 336 466 336 466 316.5 437.5 c 128,-1,39
 297 409 297 409 281 385 c 128,-1,40
 265 361 265 361 254 344 c 128,-1,41
 243 327 243 327 243 324 c 0,42,43
 243 320 243 320 255.5 300.5 c 128,-1,44
 268 281 268 281 287 253.5 c 128,-1,45
 306 226 306 226 327.5 194 c 128,-1,46
 349 162 349 162 368 133 c 128,-1,47
 387 104 387 104 399.5 81 c 128,-1,48
 412 58 412 58 412 48 c 0,49,50
 412 35 412 35 403.5 26 c 128,-1,51
 395 17 395 17 383 11 c 128,-1,52
 371 5 371 5 359 2 c 128,-1,53
 347 -1 347 -1 339 -1 c 0,54,55
 325 -1 325 -1 310 18 c 0,56,57
 291 41 291 41 283 57 c 0,58,59
 279 65 279 65 265 87.5 c 128,-1,60
 251 110 251 110 235 136 c 0,61,62
 209 179 209 179 203 186 c 0,63,64
 186 210 186 210 178 223 c 0,65,66
 175 228 175 228 170 228 c 0,67,68
 166 229 166 229 161 223 c 2,69,-1
 151 210 l 2,70,71
 143 200 143 200 143 178 c 2,72,-1
 143 155 l 1,73,-1
 144 125 l 1,74,-1
 144 102 l 2,75,76
 144 51 144 51 128 25.5 c 128,-1,77
 112 0 112 0 77 0 c 0,0,1
47 566 m 0,78,79
 52 565 52 565 57 568.5 c 128,-1,80
 62 572 62 572 66.5 577.5 c 128,-1,81
 71 583 71 583 74.5 589 c 128,-1,82
 78 595 78 595 79 599 c 0,83,84
 80 602 80 602 77 604.5 c 128,-1,85
 74 607 74 607 71 607 c 0,86,87
 67 607 67 607 62.5 602.5 c 128,-1,88
 58 598 58 598 53.5 591.5 c 128,-1,89
 49 585 49 585 46.5 579 c 128,-1,90
 44 573 44 573 44 570 c 0,91,92
 44 566 44 566 47 566 c 0,78,79
303 558 m 0,93,94
 306 558 306 558 311.5 562.5 c 128,-1,95
 317 567 317 567 322 573.5 c 128,-1,96
 327 580 327 580 330.5 586.5 c 128,-1,97
 334 593 334 593 333 597 c 0,98,99
 333 601 333 601 329 601 c 0,100,101
 326 602 326 602 320 597.5 c 128,-1,102
 314 593 314 593 308.5 586.5 c 128,-1,103
 303 580 303 580 299 573.5 c 128,-1,104
 295 567 295 567 296 564 c 0,105,106
 298 559 298 559 303 558 c 0,93,94
62 81 m 0,107,108
 62 85 62 85 62 97.5 c 128,-1,109
 62 110 62 110 61 123.5 c 128,-1,110
 60 137 60 137 58 147.5 c 128,-1,111
 56 158 56 158 52 158 c 0,112,113
 49 158 49 158 46.5 153 c 128,-1,114
 44 148 44 148 43 141 c 128,-1,115
 42 134 42 134 41.5 127.5 c 128,-1,116
 41 121 41 121 41 119 c 0,117,118
 41 115 41 115 41 104.5 c 128,-1,119
 41 94 41 94 42.5 83 c 128,-1,120
 44 72 44 72 47 63 c 128,-1,121
 50 54 50 54 56 54 c 0,122,123
 58 54 58 54 59.5 58 c 128,-1,124
 61 62 61 62 61.5 66.5 c 128,-1,125
 62 71 62 71 62 75.5 c 128,-1,126
 62 80 62 80 62 81 c 0,107,108
342 21 m 0,127,128
 342 24 342 24 339 30.5 c 128,-1,129
 336 37 336 37 331.5 43 c 128,-1,130
 327 49 327 49 322 54 c 128,-1,131
 317 59 317 59 314 59 c 0,132,133
 312 59 312 59 311 55.5 c 128,-1,134
 310 52 310 52 310 50 c 0,135,136
 310 47 310 47 312.5 41 c 128,-1,137
 315 35 315 35 318.5 29 c 128,-1,138
 322 23 322 23 327 19 c 128,-1,139
 332 15 332 15 336 15 c 0,140,141
 342 15 342 15 342 21 c 0,127,128
71 31 m 0,142,143
 73 36 73 36 69 41 c 128,-1,144
 65 46 65 46 60 46 c 0,145,146
 54 46 54 46 50.5 41 c 128,-1,147
 47 36 47 36 49 31 c 0,148,149
 53 21 53 21 60 21 c 256,150,151
 67 21 67 21 71 31 c 0,142,143
EndSplineSet
EndChar

StartChar: l
Encoding: 108 108 78
Width: 388
Flags: W
LayerCount: 2
Fore
SplineSet
32 28 m 0,0,1
 32 35 32 35 33.5 40.5 c 128,-1,2
 35 46 35 46 38 53.5 c 128,-1,3
 41 61 41 61 45.5 71 c 128,-1,4
 50 81 50 81 56 96 c 256,5,6
 62 111 62 111 66 123.5 c 128,-1,7
 70 136 70 136 72.5 150 c 128,-1,8
 75 164 75 164 76.5 180.5 c 128,-1,9
 78 197 78 197 78 218 c 2,10,-1
 78 251 l 1,11,-1
 58 251 l 2,12,13
 39 251 39 251 29.5 260 c 128,-1,14
 20 269 20 269 20 281 c 0,15,16
 20 292 20 292 26.5 306 c 128,-1,17
 33 320 33 320 51 320 c 2,18,-1
 76 320 l 1,19,-1
 76 387 l 2,20,21
 76 433 76 433 83.5 475 c 128,-1,22
 91 517 91 517 109.5 549.5 c 128,-1,23
 128 582 128 582 159.5 601 c 128,-1,24
 191 620 191 620 239 620 c 0,25,26
 262 620 262 620 283.5 612.5 c 128,-1,27
 305 605 305 605 322 590.5 c 128,-1,28
 339 576 339 576 349.5 555 c 128,-1,29
 360 534 360 534 360 508 c 0,30,31
 360 464 360 464 337 464 c 0,32,33
 320 464 320 464 303 494 c 0,34,35
 292 513 292 513 277 527.5 c 128,-1,36
 262 542 262 542 244 542 c 0,37,38
 220 542 220 542 205.5 530 c 128,-1,39
 191 518 191 518 183 496.5 c 128,-1,40
 175 475 175 475 172 445 c 128,-1,41
 169 415 169 415 169 379 c 2,42,-1
 169 322 l 1,43,-1
 237 322 l 2,44,45
 261 322 261 322 274.5 318.5 c 128,-1,46
 288 315 288 315 295 309.5 c 128,-1,47
 302 304 302 304 304 296.5 c 128,-1,48
 306 289 306 289 306 280 c 0,49,50
 306 274 306 274 304.5 268.5 c 128,-1,51
 303 263 303 263 297.5 259.5 c 128,-1,52
 292 256 292 256 281 253.5 c 128,-1,53
 270 251 270 251 251 251 c 2,54,-1
 169 251 l 1,55,-1
 169 186 l 2,56,57
 169 139 169 139 159 115.5 c 128,-1,58
 149 92 149 92 143 79 c 0,59,60
 139 71 139 71 144 71.5 c 128,-1,61
 149 72 149 72 159 74 c 0,62,63
 165 75 165 75 170.5 76 c 128,-1,64
 176 77 176 77 183 77.5 c 128,-1,65
 190 78 190 78 200 78 c 128,-1,66
 210 78 210 78 226 78 c 2,67,-1
 283 78 l 2,68,69
 325 78 325 78 342 70.5 c 128,-1,70
 359 63 359 63 359 43 c 0,71,72
 359 17 359 17 346.5 8 c 128,-1,73
 334 -1 334 -1 306 1 c 0,74,75
 254 3 254 3 201.5 1.5 c 128,-1,76
 149 0 149 0 92 0 c 0,77,78
 66 0 66 0 49 7 c 128,-1,79
 32 14 32 14 32 28 c 0,0,1
111 460 m 0,80,81
 113 460 113 460 117 471 c 128,-1,82
 121 482 121 482 127.5 498 c 128,-1,83
 134 514 134 514 144 531.5 c 128,-1,84
 154 549 154 549 169 562 c 0,85,86
 182 574 182 574 183.5 579.5 c 128,-1,87
 185 585 185 585 182 585 c 0,88,89
 174 585 174 585 164 579.5 c 128,-1,90
 154 574 154 574 140 560 c 0,91,92
 132 552 132 552 125.5 540 c 128,-1,93
 119 528 119 528 114.5 515 c 128,-1,94
 110 502 110 502 108 490 c 128,-1,95
 106 478 106 478 106 469 c 256,96,97
 106 460 106 460 111 460 c 0,80,81
111 432 m 0,98,99
 111 436 111 436 108 438 c 128,-1,100
 105 440 105 440 102 440 c 0,101,102
 98 440 98 440 94 434 c 0,103,104
 93 431 93 431 92 428 c 0,105,106
 92 419 92 419 102 419 c 0,107,108
 111 419 111 419 111 432 c 0,98,99
EndSplineSet
EndChar

StartChar: m
Encoding: 109 109 79
Width: 606
Flags: W
LayerCount: 2
Fore
SplineSet
76 0 m 0,0,1
 61 0 61 0 52 5.5 c 128,-1,2
 43 11 43 11 38.5 20 c 128,-1,3
 34 29 34 29 32.5 40.5 c 128,-1,4
 31 52 31 52 31 65 c 2,5,-1
 31 542 l 2,6,7
 31 553 31 553 31.5 566 c 128,-1,8
 32 579 32 579 36 590 c 128,-1,9
 40 601 40 601 49 608.5 c 128,-1,10
 58 616 58 616 74 616 c 0,11,12
 94 616 94 616 104 601.5 c 128,-1,13
 114 587 114 587 118.5 569 c 128,-1,14
 123 551 123 551 124 536.5 c 128,-1,15
 125 522 125 522 127 522 c 256,16,17
 129 522 129 522 133 537.5 c 128,-1,18
 137 553 137 553 147.5 571 c 128,-1,19
 158 589 158 589 177 604.5 c 128,-1,20
 196 620 196 620 229 620 c 0,21,22
 257 620 257 620 275 605 c 128,-1,23
 293 590 293 590 304 571.5 c 128,-1,24
 315 553 315 553 321 538 c 128,-1,25
 327 523 327 523 330 523 c 256,26,27
 333 523 333 523 338.5 538 c 128,-1,28
 344 553 344 553 355 571.5 c 128,-1,29
 366 590 366 590 385.5 605 c 128,-1,30
 405 620 405 620 437 620 c 0,31,32
 478 620 478 620 504 600 c 128,-1,33
 530 580 530 580 544.5 544.5 c 128,-1,34
 559 509 559 509 564.5 460.5 c 128,-1,35
 570 412 570 412 570 356 c 2,36,-1
 570 27 l 2,37,38
 570 13 570 13 551 6.5 c 128,-1,39
 532 0 532 0 512 0 c 256,40,41
 492 0 492 0 481 5.5 c 128,-1,42
 470 11 470 11 470 26 c 2,43,-1
 470 347 l 2,44,45
 470 359 470 359 470 387.5 c 128,-1,46
 470 416 470 416 465.5 446 c 128,-1,47
 461 476 461 476 450.5 498.5 c 128,-1,48
 440 521 440 521 419 521 c 0,49,50
 401 521 401 521 389.5 507 c 128,-1,51
 378 493 378 493 371 468.5 c 128,-1,52
 364 444 364 444 360.5 409.5 c 128,-1,53
 357 375 357 375 355 333 c 0,54,55
 352 284 352 284 351 234 c 128,-1,56
 350 184 350 184 350.5 141.5 c 128,-1,57
 351 99 351 99 351.5 69.5 c 128,-1,58
 352 40 352 40 352 31 c 0,59,60
 352 17 352 17 335.5 8.5 c 128,-1,61
 319 0 319 0 295 0 c 256,62,63
 271 0 271 0 261 7 c 128,-1,64
 251 14 251 14 251 38 c 2,65,-1
 251 347 l 2,66,67
 251 358 251 358 251 387 c 128,-1,68
 251 416 251 416 247 446 c 128,-1,69
 243 476 243 476 233 499 c 128,-1,70
 223 522 223 522 203 522 c 0,71,72
 185 522 185 522 172.5 506.5 c 128,-1,73
 160 491 160 491 152 467 c 128,-1,74
 144 443 144 443 139.5 413 c 128,-1,75
 135 383 135 383 133 355 c 128,-1,76
 131 327 131 327 130.5 303 c 128,-1,77
 130 279 130 279 130 267 c 2,78,-1
 130 45 l 2,79,80
 130 26 130 26 114 13 c 128,-1,81
 98 0 98 0 76 0 c 0,0,1
55 522 m 0,82,83
 61 523 61 523 61.5 533.5 c 128,-1,84
 62 544 62 544 62 552 c 0,85,86
 62 559 62 559 64 567.5 c 128,-1,87
 66 576 66 576 67.5 583 c 128,-1,88
 69 590 69 590 69 595 c 128,-1,89
 69 600 69 600 65 600 c 0,90,91
 58 600 58 600 53.5 593.5 c 128,-1,92
 49 587 49 587 47 578 c 128,-1,93
 45 569 45 569 44 561 c 128,-1,94
 43 553 43 553 43 550 c 0,95,96
 43 542 43 542 45 531.5 c 128,-1,97
 47 521 47 521 55 522 c 0,82,83
286 23 m 0,98,99
 286 33 286 33 279.5 36.5 c 128,-1,100
 273 40 273 40 273 51 c 0,101,102
 273 53 273 53 273 58.5 c 128,-1,103
 273 64 273 64 272.5 69.5 c 128,-1,104
 272 75 272 75 270 79.5 c 128,-1,105
 268 84 268 84 265 84 c 0,106,107
 263 84 263 84 262 79.5 c 128,-1,108
 261 75 261 75 260.5 69 c 128,-1,109
 260 63 260 63 260 57.5 c 128,-1,110
 260 52 260 52 260 50 c 0,111,112
 260 38 260 38 263.5 24.5 c 128,-1,113
 267 11 267 11 277 11 c 0,114,115
 286 11 286 11 286 23 c 0,98,99
502 24 m 0,116,117
 502 34 502 34 496.5 41.5 c 128,-1,118
 491 49 491 49 491 60 c 0,119,120
 491 64 491 64 490.5 74 c 128,-1,121
 490 84 490 84 484 84 c 0,122,123
 479 84 479 84 478.5 73 c 128,-1,124
 478 62 478 62 478 59 c 256,125,126
 478 56 478 56 478.5 48 c 128,-1,127
 479 40 479 40 481 32.5 c 128,-1,128
 483 25 483 25 486 19 c 128,-1,129
 489 13 489 13 494 13 c 0,130,131
 498 13 498 13 500 17.5 c 128,-1,132
 502 22 502 22 502 24 c 0,116,117
74 24 m 0,133,134
 74 35 74 35 69.5 36 c 128,-1,135
 65 37 65 37 60 44 c 0,136,137
 59 46 59 46 58.5 51.5 c 128,-1,138
 58 57 58 57 58 62.5 c 128,-1,139
 58 68 58 68 56.5 72.5 c 128,-1,140
 55 77 55 77 52 77 c 0,141,142
 47 77 47 77 46.5 67.5 c 128,-1,143
 46 58 46 58 46 51 c 0,144,145
 46 47 46 47 47 41 c 128,-1,146
 48 35 48 35 50.5 29 c 128,-1,147
 53 23 53 23 56.5 18.5 c 128,-1,148
 60 14 60 14 65 14 c 0,149,150
 74 14 74 14 74 24 c 0,133,134
EndSplineSet
EndChar

StartChar: n
Encoding: 110 110 80
Width: 411
Flags: W
LayerCount: 2
Fore
SplineSet
75 0 m 0,0,1
 50 0 50 0 40 14.5 c 128,-1,2
 30 29 30 29 30 65 c 2,3,-1
 30 542 l 2,4,5
 30 586 30 586 39.5 601 c 128,-1,6
 49 616 49 616 78 616 c 0,7,8
 97 616 97 616 115 606.5 c 128,-1,9
 133 597 133 597 133 571 c 2,10,-1
 133 557 l 2,11,12
 133 517 133 517 137 517 c 256,13,14
 141 517 141 517 146 533 c 128,-1,15
 151 549 151 549 163 568.5 c 128,-1,16
 175 588 175 588 197 604 c 128,-1,17
 219 620 219 620 255 620 c 0,18,19
 319 620 319 620 348 557 c 128,-1,20
 377 494 377 494 377 356 c 2,21,-1
 377 31 l 2,22,23
 377 0 377 0 321 0 c 0,24,25
 294 0 294 0 282 11.5 c 128,-1,26
 270 23 270 23 270 34 c 2,27,-1
 270 347 l 2,28,29
 270 399 270 399 267 431 c 128,-1,30
 264 463 264 463 258 481 c 128,-1,31
 252 499 252 499 242.5 505.5 c 128,-1,32
 233 512 233 512 219 512 c 0,33,34
 198 512 198 512 182.5 492.5 c 128,-1,35
 167 473 167 473 157 440 c 128,-1,36
 147 407 147 407 142.5 362.5 c 128,-1,37
 138 318 138 318 138 267 c 2,38,-1
 138 45 l 2,39,40
 138 30 138 30 130.5 21 c 128,-1,41
 123 12 123 12 113 7.5 c 128,-1,42
 103 3 103 3 92.5 1.5 c 128,-1,43
 82 0 82 0 75 0 c 0,0,1
50 515 m 0,44,45
 53 515 53 515 55 527 c 128,-1,46
 57 539 57 539 59 554 c 128,-1,47
 61 569 61 569 62 581.5 c 128,-1,48
 63 594 63 594 63 595 c 0,49,50
 63 597 63 597 62.5 600 c 128,-1,51
 62 603 62 603 60 603 c 0,52,53
 55 603 55 603 51.5 595.5 c 128,-1,54
 48 588 48 588 46 578.5 c 128,-1,55
 44 569 44 569 43 559.5 c 128,-1,56
 42 550 42 550 42 547 c 0,57,58
 42 539 42 539 44 527 c 128,-1,59
 46 515 46 515 50 515 c 0,44,45
307 29 m 0,60,61
 307 35 307 35 305 38 c 128,-1,62
 303 41 303 41 300.5 43 c 128,-1,63
 298 45 298 45 296 49 c 128,-1,64
 294 53 294 53 294 60 c 0,65,66
 294 76 294 76 292.5 80 c 128,-1,67
 291 84 291 84 286 84 c 256,68,69
 281 84 281 84 279.5 76.5 c 128,-1,70
 278 69 278 69 278 59 c 0,71,72
 278 39 278 39 284 27 c 128,-1,73
 290 15 290 15 298 15 c 0,74,75
 301 15 301 15 304 18.5 c 128,-1,76
 307 22 307 22 307 29 c 0,60,61
74 26 m 0,77,78
 74 31 74 31 71.5 33.5 c 128,-1,79
 69 36 69 36 66 38.5 c 128,-1,80
 63 41 63 41 60.5 45 c 128,-1,81
 58 49 58 49 58 56 c 0,82,83
 58 77 58 77 51 77 c 0,84,85
 49 77 49 77 47 69.5 c 128,-1,86
 45 62 45 62 45 51 c 0,87,88
 45 36 45 36 51.5 24 c 128,-1,89
 58 12 58 12 66 12 c 0,90,91
 68 12 68 12 71 16 c 128,-1,92
 74 20 74 20 74 26 c 0,77,78
EndSplineSet
EndChar

StartChar: o
Encoding: 111 111 81
Width: 450
Flags: W
LayerCount: 2
Fore
SplineSet
130 266 m 1,0,-1
 130 330 l 1,1,-1
 326 330 l 1,2,-1
 326 266 l 1,3,-1
 130 266 l 1,0,-1
231 -9 m 0,4,5
 176 -9 176 -9 135.5 17.5 c 128,-1,6
 95 44 95 44 68.5 87.5 c 128,-1,7
 42 131 42 131 29 185.5 c 128,-1,8
 16 240 16 240 16 296 c 256,9,10
 16 352 16 352 28 410.5 c 128,-1,11
 40 469 40 469 66 516.5 c 128,-1,12
 92 564 92 564 133 594.5 c 128,-1,13
 174 625 174 625 232 625 c 0,14,15
 285 625 285 625 323 597.5 c 128,-1,16
 361 570 361 570 385.5 524 c 128,-1,17
 410 478 410 478 422 417.5 c 128,-1,18
 434 357 434 357 434 291 c 0,19,20
 434 236 434 236 422 182 c 128,-1,21
 410 128 410 128 385.5 85.5 c 128,-1,22
 361 43 361 43 322.5 17 c 128,-1,23
 284 -9 284 -9 231 -9 c 0,4,5
79 468 m 0,24,25
 82 468 82 468 86 473.5 c 128,-1,26
 90 479 90 479 94.5 487.5 c 128,-1,27
 99 496 99 496 104.5 505 c 128,-1,28
 110 514 110 514 115 521 c 0,29,30
 137 550 137 550 156.5 567 c 128,-1,31
 176 584 176 584 176 589 c 0,32,33
 176 592 176 592 171 593 c 0,34,35
 159 593 159 593 142.5 579 c 128,-1,36
 126 565 126 565 111 545.5 c 128,-1,37
 96 526 96 526 85.5 505.5 c 128,-1,38
 75 485 75 485 75 473 c 0,39,40
 75 468 75 468 79 468 c 0,24,25
231 71 m 0,41,42
 261 71 261 71 279.5 93.5 c 128,-1,43
 298 116 298 116 308.5 149.5 c 128,-1,44
 319 183 319 183 323 223 c 128,-1,45
 327 263 327 263 327 299 c 256,46,47
 327 335 327 335 324.5 376 c 128,-1,48
 322 417 322 417 312 452 c 128,-1,49
 302 487 302 487 283 510 c 128,-1,50
 264 533 264 533 232 533 c 0,51,52
 201 533 201 533 181 505 c 128,-1,53
 161 477 161 477 149.5 438.5 c 128,-1,54
 138 400 138 400 134 360 c 128,-1,55
 130 320 130 320 130 296 c 256,56,57
 130 272 130 272 133 233.5 c 128,-1,58
 136 195 136 195 146.5 159 c 128,-1,59
 157 123 157 123 177 97 c 128,-1,60
 197 71 197 71 231 71 c 0,41,42
80 446 m 256,61,62
 80 454 80 454 73 456 c 0,63,64
 70 456 70 456 65 452.5 c 128,-1,65
 60 449 60 449 60 441 c 0,66,67
 60 432 60 432 68 432 c 0,68,69
 71 432 71 432 75.5 435 c 128,-1,70
 80 438 80 438 80 446 c 256,61,62
EndSplineSet
EndChar

StartChar: p
Encoding: 112 112 82
Width: 411
Flags: W
LayerCount: 2
Fore
SplineSet
83 -14 m 0,0,1
 63 -14 63 -14 46 1 c 128,-1,2
 29 16 29 16 29 69 c 2,3,-1
 29 526 l 2,4,5
 29 547 29 547 37.5 564 c 128,-1,6
 46 581 46 581 60.5 592.5 c 128,-1,7
 75 604 75 604 93.5 610 c 128,-1,8
 112 616 112 616 132 616 c 2,9,-1
 191 616 l 2,10,11
 222 616 222 616 257.5 604 c 128,-1,12
 293 592 293 592 323 566 c 128,-1,13
 353 540 353 540 373 498 c 128,-1,14
 393 456 393 456 393 397 c 256,15,16
 393 338 393 338 373.5 291.5 c 128,-1,17
 354 245 354 245 325 213.5 c 128,-1,18
 296 182 296 182 262 165.5 c 128,-1,19
 228 149 228 149 198 149 c 2,20,-1
 169 149 l 2,21,22
 160 149 160 149 151.5 145 c 128,-1,23
 143 141 143 141 143 132 c 2,24,-1
 143 65 l 2,25,26
 143 33 143 33 137.5 21 c 128,-1,27
 132 9 132 9 123 1 c 128,-1,28
 114 -7 114 -7 103.5 -10.5 c 128,-1,29
 93 -14 93 -14 83 -14 c 0,0,1
187 238 m 2,30,31
 204 238 204 238 220 246 c 128,-1,32
 236 254 236 254 249.5 271.5 c 128,-1,33
 263 289 263 289 271 317 c 128,-1,34
 279 345 279 345 279 385 c 0,35,36
 279 428 279 428 271 456.5 c 128,-1,37
 263 485 263 485 250 501.5 c 128,-1,38
 237 518 237 518 221 525 c 128,-1,39
 205 532 205 532 190 532 c 2,40,-1
 168 532 l 2,41,42
 143 532 143 532 143 498 c 2,43,-1
 143 261 l 2,44,45
 143 238 143 238 174 238 c 2,46,-1
 187 238 l 2,30,31
69 21 m 256,47,48
 64 26 64 26 60.5 39 c 128,-1,49
 57 52 57 52 57 78.5 c 128,-1,50
 57 105 57 105 50 105 c 0,51,52
 45 105 45 105 43.5 96.5 c 128,-1,53
 42 88 42 88 42 76 c 0,54,55
 42 38 42 38 49 22 c 128,-1,56
 56 6 56 6 66 6 c 0,57,58
 68 6 68 6 71 8 c 128,-1,59
 74 10 74 10 74 12 c 0,60,61
 74 16 74 16 69 21 c 256,47,48
EndSplineSet
EndChar

StartChar: q
Encoding: 113 113 83
Width: 532
Flags: W
LayerCount: 2
Fore
SplineSet
75.4248046875 471.405273438 m 0,0,1
 79.978515625 473.8671875 79.978515625 473.8671875 104.2421875 454.36328125 c 128,-1,2
 128.505859375 434.857421875 128.505859375 434.857421875 162.892578125 403.82421875 c 128,-1,3
 197.274414062 372.791992188 197.274414062 372.791992188 237 335 c 128,-1,4
 276.724609375 297.205078125 276.724609375 297.205078125 312.375 262.72265625 c 128,-1,5
 348.026367188 228.241210938 348.026367188 228.241210938 374.142578125 202.390625 c 128,-1,6
 400.26171875 176.536132812 400.26171875 176.536132812 408.407226562 169.915039062 c 0,7,8
 416.909179688 162.5625 416.909179688 162.5625 434.115234375 146.595703125 c 128,-1,9
 451.321289062 130.626953125 451.321289062 130.626953125 469.235351562 113.205078125 c 128,-1,10
 487.150390625 95.783203125 487.150390625 95.783203125 501.6953125 80.21484375 c 128,-1,11
 516.244140625 64.6484375 516.244140625 64.6484375 519.073242188 58.826171875 c 0,12,13
 521.547851562 53.7333984375 521.547851562 53.7333984375 520.41796875 47.611328125 c 128,-1,14
 519.287109375 41.4873046875 519.287109375 41.4873046875 515.999023438 35.5791015625 c 128,-1,15
 512.7109375 29.6669921875 512.7109375 29.6669921875 508.065429688 24.861328125 c 128,-1,16
 503.420898438 20.0546875 503.420898438 20.0546875 498.8671875 17.5927734375 c 0,17,18
 489.758789062 12.6728515625 489.758789062 12.6728515625 478.91796875 15.5439453125 c 128,-1,19
 468.078125 18.4150390625 468.078125 18.4150390625 459.633789062 23.958984375 c 0,20,21
 452.194335938 29.1259765625 452.194335938 29.1259765625 430.412109375 48.5927734375 c 128,-1,22
 408.630859375 68.0615234375 408.630859375 68.0615234375 378.466796875 96.3212890625 c 128,-1,23
 348.3046875 124.58203125 348.3046875 124.58203125 311.826171875 159.075195312 c 128,-1,24
 275.348632812 193.571289062 275.348632812 193.571289062 238.515625 228.791992188 c 128,-1,25
 201.68359375 264.015625 201.68359375 264.015625 166.891601562 297.581054688 c 128,-1,26
 132.095703125 331.147460938 132.095703125 331.147460938 105.122070312 357.915039062 c 128,-1,27
 78.1474609375 384.684570312 78.1474609375 384.684570312 61.240234375 401.731445312 c 128,-1,28
 44.3291015625 418.778320312 44.3291015625 418.778320312 43.26953125 420.9609375 c 0,29,30
 40.0859375 427.509765625 40.0859375 427.509765625 43.4658203125 435.765625 c 128,-1,31
 46.84375 444.022460938 46.84375 444.022460938 53.0595703125 451.513671875 c 128,-1,32
 59.2744140625 459.0078125 59.2744140625 459.0078125 66.048828125 464.50390625 c 128,-1,33
 72.822265625 470 72.822265625 470 75.4248046875 471.405273438 c 0,0,1
73.3076171875 433.515625 m 0,34,35
 70.2373046875 436.450195312 70.2373046875 436.450195312 66.0654296875 432.359375 c 128,-1,36
 61.89453125 428.267578125 61.89453125 428.267578125 64.3701171875 423.173828125 c 0,37,38
 66.4921875 418.809570312 66.4921875 418.809570312 74.8720703125 410.016601562 c 128,-1,39
 83.251953125 401.22265625 83.251953125 401.22265625 92.962890625 392.228515625 c 128,-1,40
 102.671875 383.233398438 102.671875 383.233398438 111.67578125 375.697265625 c 128,-1,41
 120.678710938 368.159179688 120.678710938 368.159179688 123.393554688 365.950195312 c 0,42,43
 127.114257812 363.365234375 127.114257812 363.365234375 130.366210938 365.123046875 c 128,-1,44
 133.619140625 366.879882812 133.619140625 366.879882812 134.56640625 368.310546875 c 0,45,46
 137.465820312 370.796875 137.465820312 370.796875 130.768554688 378.662109375 c 128,-1,47
 124.071289062 386.528320312 124.071289062 386.528320312 113.681640625 396.071289062 c 128,-1,48
 103.291992188 405.619140625 103.291992188 405.619140625 91.72265625 415.904296875 c 128,-1,49
 80.1533203125 426.188476562 80.1533203125 426.188476562 73.3076171875 433.515625 c 0,34,35
118.993164062 0 m 2,50,51
 104.91796875 -1.1064453125 104.91796875 -1.1064453125 84.4931640625 4 c 0,52,53
 68.4931640625 8 68.4931640625 8 55.4931640625 18 c 0,54,55
 38.4931640625 31 38.4931640625 31 35.4931640625 45 c 0,56,57
 28.4931640625 88 28.4931640625 88 27.9931640625 88 c 2,58,-1
 27.9931640625 516 l 2,59,60
 28.4931640625 541 28.4931640625 541 37.4931640625 562.5 c 0,61,62
 46.4931640625 582 46.4931640625 582 62.4931640625 594.5 c 128,-1,63
 78.4931640625 607 78.4931640625 607 98.9931640625 612.5 c 0,64,65
 123.510742188 618.749023438 123.510742188 618.749023438 142.993164062 618 c 2,66,-1
 272.993164062 613 l 2,67,68
 320.493164062 611 320.493164062 611 355.993164062 593.5 c 0,69,70
 396.493164062 574 396.493164062 574 426.493164062 539 c 128,-1,71
 456.493164062 504 456.493164062 504 475.493164062 449.5 c 128,-1,72
 494.493164062 395 494.493164062 395 493.993164062 326 c 0,73,74
 494.493164062 257 494.493164062 257 474.993164062 192.5 c 128,-1,75
 455.493164062 128 455.493164062 128 423.993164062 89.5 c 0,76,77
 398.493164062 59 398.493164062 59 348.993164062 34.5 c 0,78,79
 309.416015625 14.9619140625 309.416015625 14.9619140625 258.993164062 11 c 2,80,-1
 118.993164062 0 l 2,50,51
212.993164062 96 m 2,81,82
 280.493164062 96 280.493164062 96 302.993164062 112.5 c 0,83,84
 326.493164062 129 326.493164062 129 342.493164062 159.5 c 128,-1,85
 358.493164062 190 358.493164062 190 368.493164062 233 c 128,-1,86
 378.493164062 276 378.493164062 276 377.993164062 329 c 0,87,88
 378.493164062 419 378.493164062 419 347.993164062 467 c 0,89,90
 313.493164062 520 313.493164062 520 269.993164062 520 c 2,91,-1
 254.993164062 520 l 2,92,93
 149.493164062 520 149.493164062 520 147.993164062 512.5 c 0,94,95
 142.493164062 481 142.493164062 481 141.993164062 480 c 2,96,-1
 141.993164062 132 l 2,97,98
 142.629882812 111.63671875 142.629882812 111.63671875 145.493164062 104 c 0,99,100
 148.493164062 96 148.493164062 96 199.993164062 96 c 2,101,-1
 212.993164062 96 l 2,81,82
58.9931640625 83 m 0,102,103
 63.4931640625 83 63.4931640625 83 64.4931640625 93.5 c 128,-1,104
 65.4931640625 104 65.4931640625 104 65.9931640625 117.5 c 0,105,106
 65.4931640625 131 65.4931640625 131 65.4931640625 143.5 c 128,-1,107
 65.4931640625 156 65.4931640625 156 64.9931640625 161 c 0,108,109
 65.4931640625 216 65.4931640625 216 58.9931640625 216 c 0,110,111
 55.4931640625 216 55.4931640625 216 52.9931640625 203.5 c 0,112,113
 49.4931640625 191 49.4931640625 191 49.9931640625 161 c 0,114,115
 49.4931640625 116 49.4931640625 116 50.4931640625 99.5 c 128,-1,116
 51.4931640625 83 51.4931640625 83 58.9931640625 83 c 0,102,103
57.9931640625 69 m 0,117,118
 51.4931640625 69 51.4931640625 69 50.9931640625 58 c 0,119,120
 51.4931640625 40 51.4931640625 40 58.9931640625 40 c 0,121,122
 61.4931640625 40 61.4931640625 40 63.9931640625 46 c 0,123,124
 65.4931640625 52 65.4931640625 52 65.9931640625 58 c 0,125,126
 65.4931640625 69 65.4931640625 69 57.9931640625 69 c 0,117,118
EndSplineSet
EndChar

StartChar: r
Encoding: 114 114 84
Width: 373
Flags: W
LayerCount: 2
Fore
SplineSet
69 26 m 0,0,1
 69 31 69 31 66.5 33.5 c 128,-1,2
 64 36 64 36 61 38.5 c 128,-1,3
 58 41 58 41 55.5 45 c 128,-1,4
 53 49 53 49 53 56 c 0,5,6
 53 77 53 77 46 77 c 0,7,8
 44 77 44 77 42 69.5 c 128,-1,9
 40 62 40 62 40 51 c 0,10,11
 40 36 40 36 46.5 24 c 128,-1,12
 53 12 53 12 61 12 c 0,13,14
 63 12 63 12 66 16 c 128,-1,15
 69 20 69 20 69 26 c 0,0,1
297 546 m 0,16,17
 312 546 312 546 329.5 544.5 c 128,-1,18
 347 543 347 543 360 540 c 1,19,-1
 349 436 l 1,20,21
 336 439 336 439 320.5 441 c 128,-1,22
 305 443 305 443 291 443 c 0,23,24
 260 443 260 443 232 430 c 128,-1,25
 204 417 204 417 182 393.5 c 128,-1,26
 160 370 160 370 147.5 337 c 128,-1,27
 135 304 135 304 135 263 c 2,28,-1
 135 0 l 1,29,-1
 25 0 l 1,30,-1
 25 536 l 1,31,-1
 119 536 l 1,32,-1
 129 438 l 1,33,-1
 133 438 l 1,34,35
 150 468 150 468 174 492.5 c 128,-1,36
 198 517 198 517 229 531.5 c 128,-1,37
 260 546 260 546 297 546 c 0,16,17
EndSplineSet
EndChar

StartChar: s
Encoding: 115 115 85
Width: 380
Flags: W
LayerCount: 2
Fore
SplineSet
189 -9 m 0,0,1
 158 -9 158 -9 127 4.5 c 128,-1,2
 96 18 96 18 71.5 43 c 128,-1,3
 47 68 47 68 32 105 c 128,-1,4
 17 142 17 142 17 188 c 0,5,6
 17 219 17 219 35 239 c 128,-1,7
 53 259 53 259 80 257 c 0,8,9
 97 256 97 256 104.5 244.5 c 128,-1,10
 112 233 112 233 112 207 c 0,11,12
 112 189 112 189 116.5 166 c 128,-1,13
 121 143 121 143 130 123 c 128,-1,14
 139 103 139 103 151.5 89.5 c 128,-1,15
 164 76 164 76 179 76 c 0,16,17
 243 76 243 76 243 141 c 0,18,19
 243 162 243 162 236.5 180 c 128,-1,20
 230 198 230 198 219.5 213 c 128,-1,21
 209 228 209 228 196 242 c 128,-1,22
 183 256 183 256 169 269 c 0,23,24
 97 341 97 341 66.5 389 c 128,-1,25
 36 437 36 437 36 477 c 0,26,27
 36 546 36 546 78.5 585 c 128,-1,28
 121 624 121 624 195 624 c 0,29,30
 229 624 229 624 257 609 c 128,-1,31
 285 594 285 594 305.5 570 c 128,-1,32
 326 546 326 546 337 516.5 c 128,-1,33
 348 487 348 487 348 459 c 0,34,35
 348 429 348 429 330.5 404.5 c 128,-1,36
 313 380 313 380 287 380 c 0,37,38
 275 380 275 380 261 390 c 128,-1,39
 247 400 247 400 247 417 c 0,40,41
 247 476 247 476 230 503.5 c 128,-1,42
 213 531 213 531 191 531 c 0,43,44
 149 531 149 531 149 483 c 0,45,46
 149 468 149 468 153 453.5 c 128,-1,47
 157 439 157 439 167.5 422 c 128,-1,48
 178 405 178 405 195.5 384.5 c 128,-1,49
 213 364 213 364 240 337 c 0,50,51
 273 304 273 304 295 278 c 128,-1,52
 317 252 317 252 330.5 230 c 128,-1,53
 344 208 344 208 349.5 189 c 128,-1,54
 355 170 355 170 355 151 c 0,55,56
 355 116 355 116 342.5 86.5 c 128,-1,57
 330 57 330 57 308 36 c 128,-1,58
 286 15 286 15 255.5 3 c 128,-1,59
 225 -9 225 -9 189 -9 c 0,0,1
94 543 m 0,60,61
 98 550 98 550 105 559.5 c 128,-1,62
 112 569 112 569 120 575 c 0,63,64
 128 580 128 580 130.5 586.5 c 128,-1,65
 133 593 133 593 130 593 c 0,66,67
 124 594 124 594 114 586.5 c 128,-1,68
 104 579 104 579 95 568 c 128,-1,69
 86 557 86 557 79 545 c 128,-1,70
 72 533 72 533 71 524 c 0,71,72
 71 518 71 518 77 518 c 0,73,74
 82 517 82 517 85 525 c 128,-1,75
 88 533 88 533 94 543 c 0,60,61
78 498 m 0,76,77
 78 505 78 505 72 505 c 0,78,79
 69 505 69 505 66.5 502 c 128,-1,80
 64 499 64 499 64 497 c 0,81,82
 64 492 64 492 71 491 c 0,83,84
 76 491 76 491 78 498 c 0,76,77
54 190 m 256,85,86
 59 204 59 204 64.5 213 c 128,-1,87
 70 222 70 222 71 230 c 0,88,89
 71 235 71 235 68 235 c 0,90,91
 60 236 60 236 53 229.5 c 128,-1,92
 46 223 46 223 41.5 213 c 128,-1,93
 37 203 37 203 36 190.5 c 128,-1,94
 35 178 35 178 39 166 c 0,95,96
 43 156 43 156 47 156 c 0,97,98
 52 156 52 156 50.5 166 c 128,-1,99
 49 176 49 176 54 190 c 256,85,86
EndSplineSet
EndChar

StartChar: t
Encoding: 116 116 86
Width: 316
Flags: W
LayerCount: 2
Fore
SplineSet
197 0 m 0,0,1
 159 0 159 0 138 17.5 c 128,-1,2
 117 35 117 35 107.5 64 c 128,-1,3
 98 93 98 93 96.5 130 c 128,-1,4
 95 167 95 167 95 206 c 2,5,-1
 95 378 l 1,6,-1
 47 378 l 2,7,8
 25 378 25 378 17 389 c 128,-1,9
 9 400 9 400 9 417 c 256,10,11
 9 434 9 434 15.5 444 c 128,-1,12
 22 454 22 454 47 454 c 2,13,-1
 95 454 l 1,14,-1
 95 552 l 2,15,16
 95 590 95 590 107.5 604 c 128,-1,17
 120 618 120 618 143 618 c 256,18,19
 166 618 166 618 182 602.5 c 128,-1,20
 198 587 198 587 198 549 c 2,21,-1
 198 454 l 1,22,-1
 272 454 l 2,23,24
 290 454 290 454 297.5 445.5 c 128,-1,25
 305 437 305 437 305 423 c 0,26,27
 305 403 305 403 298.5 390.5 c 128,-1,28
 292 378 292 378 276 378 c 2,29,-1
 198 378 l 1,30,-1
 198 190 l 2,31,32
 198 135 198 135 200.5 112 c 128,-1,33
 203 89 203 89 214 89 c 2,34,-1
 222 89 l 1,35,-1
 251 95 l 2,36,37
 269 99 269 99 280 82 c 0,38,39
 288 69 288 69 288 49 c 0,40,41
 288 42 288 42 286 33.5 c 128,-1,42
 284 25 284 25 276 18.5 c 128,-1,43
 268 12 268 12 252.5 7.5 c 0,44,45
 228 -0 228 -0 197 0 c 0,0,1
121 573 m 0,46,47
 125 584 125 584 130.5 594 c 128,-1,48
 136 604 136 604 128 604 c 0,49,50
 123 604 123 604 119 599.5 c 128,-1,51
 115 595 115 595 112.5 588.5 c 128,-1,52
 110 582 110 582 108.5 575.5 c 128,-1,53
 107 569 107 569 107 565 c 0,54,55
 107 544 107 544 112 544 c 0,56,57
 116 544 116 544 117.5 555 c 128,-1,58
 119 566 119 566 121 573 c 0,46,47
29 424 m 0,59,60
 29 429 29 429 30.5 435.5 c 128,-1,61
 32 442 32 442 30 442 c 0,62,63
 25 442 25 442 21.5 434.5 c 128,-1,64
 18 427 18 427 18 416 c 0,65,66
 18 409 18 409 20.5 401.5 c 128,-1,67
 23 394 23 394 28 394 c 256,68,69
 33 394 33 394 31 404.5 c 128,-1,70
 29 415 29 415 29 424 c 0,59,60
150 50 m 0,71,72
 150 54 150 54 141.5 70 c 128,-1,73
 133 86 133 86 132 100 c 0,74,75
 131 108 131 108 127 112.5 c 128,-1,76
 123 117 123 117 120 117 c 0,77,78
 114 117 114 117 113.5 108.5 c 128,-1,79
 113 100 113 100 113 95 c 0,80,81
 113 91 113 91 115.5 81.5 c 128,-1,82
 118 72 118 72 122 62.5 c 128,-1,83
 126 53 126 53 131 46 c 128,-1,84
 136 39 136 39 141 39 c 0,85,86
 144 39 144 39 147 43 c 128,-1,87
 150 47 150 47 150 50 c 0,71,72
EndSplineSet
EndChar

StartChar: u
Encoding: 117 117 87
Width: 426
Flags: W
LayerCount: 2
Fore
SplineSet
329 0 m 0,0,1
 308 0 308 0 299.5 17 c 128,-1,2
 291 34 291 34 291 59 c 256,3,4
 291 84 291 84 287 84 c 0,5,6
 284 84 284 84 281 78.5 c 128,-1,7
 278 73 278 73 271 65 c 0,8,9
 264 56 264 56 254.5 44.5 c 128,-1,10
 245 33 245 33 232.5 23.5 c 128,-1,11
 220 14 220 14 204.5 7 c 128,-1,12
 189 0 189 0 170 0 c 0,13,14
 105 0 105 0 67.5 43.5 c 128,-1,15
 30 87 30 87 30 164 c 2,16,-1
 30 569 l 2,17,18
 30 592 30 592 44 604.5 c 128,-1,19
 58 617 58 617 78 617 c 0,20,21
 100 617 100 617 118.5 602.5 c 128,-1,22
 137 588 137 588 137 566 c 2,23,-1
 137 174 l 2,24,25
 137 140 137 140 150.5 118.5 c 128,-1,26
 164 97 164 97 186 97 c 0,27,28
 204 97 204 97 221 110.5 c 128,-1,29
 238 124 238 124 251.5 145 c 128,-1,30
 265 166 265 166 273 190 c 128,-1,31
 281 214 281 214 281 235 c 2,32,-1
 281 554 l 2,33,34
 281 617 281 617 328 617 c 0,35,36
 351 617 351 617 369 601 c 128,-1,37
 387 585 387 585 387 542 c 2,38,-1
 387 75 l 2,39,40
 387 51 387 51 382 36.5 c 128,-1,41
 377 22 377 22 369 13.5 c 128,-1,42
 361 5 361 5 350.5 2.5 c 128,-1,43
 340 0 340 0 329 0 c 0,0,1
316 588 m 256,44,45
 324 596 324 596 321.5 600.5 c 128,-1,46
 319 605 319 605 313 605 c 0,47,48
 305 605 305 605 298 591.5 c 128,-1,49
 291 578 291 578 291 567 c 0,50,51
 291 560 291 560 293 558.5 c 128,-1,52
 295 557 295 557 298 557 c 0,53,54
 302 557 302 557 305 568.5 c 128,-1,55
 308 580 308 580 316 588 c 256,44,45
70 597 m 0,56,57
 70 604 70 604 66 604 c 0,58,59
 61 604 61 604 51 591.5 c 128,-1,60
 41 579 41 579 41 568 c 0,61,62
 41 558 41 558 46 558 c 0,63,64
 49 558 49 558 53 563 c 128,-1,65
 57 568 57 568 61 575 c 128,-1,66
 65 582 65 582 67.5 588 c 128,-1,67
 70 594 70 594 70 597 c 0,56,57
112 52 m 0,68,69
 112 57 112 57 108 60.5 c 128,-1,70
 104 64 104 64 98.5 68 c 128,-1,71
 93 72 93 72 87.5 77.5 c 128,-1,72
 82 83 82 83 79 92 c 0,73,74
 75 103 75 103 72.5 109.5 c 128,-1,75
 70 116 70 116 66 116 c 0,76,77
 58 116 58 116 58 103 c 0,78,79
 58 96 58 96 63 85 c 128,-1,80
 68 74 68 74 75.5 64 c 128,-1,81
 83 54 83 54 90.5 47 c 128,-1,82
 98 40 98 40 104 40 c 0,83,84
 112 40 112 40 112 52 c 0,68,69
317 52 m 0,85,86
 316 62 316 62 316 69 c 128,-1,87
 316 76 316 76 312 76 c 256,88,89
 308 76 308 76 306.5 69.5 c 128,-1,90
 305 63 305 63 305 55 c 0,91,92
 305 42 305 42 311 27 c 128,-1,93
 317 12 317 12 324 12 c 0,94,95
 326 12 326 12 325.5 15.5 c 128,-1,96
 325 19 325 19 323 25 c 128,-1,97
 321 31 321 31 319 38 c 128,-1,98
 317 45 317 45 317 52 c 0,85,86
EndSplineSet
EndChar

StartChar: v
Encoding: 118 118 88
Width: 512
Flags: W
LayerCount: 2
Fore
SplineSet
379.741210938 95.611328125 m 0,0,1
 382.58203125 91.76171875 382.58203125 91.76171875 388.61328125 91.333984375 c 0,2,3
 395.616210938 91.462890625 395.616210938 91.462890625 419 64 c 0,4,5
 442.482421875 37.5322265625 442.482421875 37.5322265625 449.454101562 28.8564453125 c 0,6,7
 461.388671875 15.5419921875 461.388671875 15.5419921875 465.787109375 20.4169921875 c 0,8,9
 468.25390625 23.900390625 468.25390625 23.900390625 465.07421875 28.990234375 c 0,10,11
 461.388671875 35.6416015625 461.388671875 35.6416015625 459.369140625 37.263671875 c 0,12,13
 456.911132812 41.1142578125 456.911132812 41.1142578125 449.552734375 47.294921875 c 0,14,15
 442.184570312 54.646484375 442.184570312 54.646484375 422.540039062 76.8349609375 c 0,16,17
 402.482421875 99.8212890625 402.482421875 99.8212890625 394.85546875 102.526367188 c 0,18,19
 387.059570312 106.388671875 387.059570312 106.388671875 385.428710938 104.3671875 c 256,20,21
 377.208007812 98.3291015625 377.208007812 98.3291015625 379.741210938 95.611328125 c 0,0,1
141 290 m 1,22,-1
 141 368 l 1,23,-1
 371 368 l 1,24,-1
 371 290 l 1,25,-1
 141 290 l 1,22,-1
421 0 m 0,26,-1
 89 0 l 0,27,28
 71 0 71 0 59 8.5 c 128,-1,29
 47 17 47 17 40.5 31 c 128,-1,30
 34 45 34 45 31.5 64 c 128,-1,31
 29 83 29 83 29 105 c 2,32,-1
 29 546 l 2,33,34
 29 552 29 552 31.5 563.5 c 128,-1,35
 34 575 34 575 40 587 c 128,-1,36
 46 599 46 599 57 607.5 c 128,-1,37
 68 616 68 616 86 616 c 0,38,39
 101 616 101 616 111.5 609 c 128,-1,40
 122 602 122 602 128.5 591 c 128,-1,41
 135 580 135 580 138 567.5 c 128,-1,42
 141 555 141 555 141 544 c 2,43,-1
 141 89 l 2,44,45
 141 81 141 81 143.5 75 c 128,-1,46
 145.983398438 69.0390625 145.983398438 69.0390625 154 69 c 2,47,-1
 360 68 l 2,48,49
 365 68 365 68 368 70.5 c 128,-1,50
 371 73 371 73 371 87 c 2,51,-1
 371 540 l 2,52,53
 371 578 371 578 383 597 c 128,-1,54
 395 616 395 616 416 616 c 0,55,56
 427 616 427 616 438.5 612 c 128,-1,57
 450 608 450 608 460 598.5 c 128,-1,58
 470 589 470 589 476.5 574 c 128,-1,59
 483 559 483 559 483 537 c 2,60,-1
 483 91 l 2,61,62
 483 77 483 77 479.5 61 c 128,-1,63
 476 45 476 45 468.5 31.5 c 128,-1,64
 461 18 461 18 449 9 c 128,-1,65
 437 0 437 0 421 0 c 0,26,-1
46 555 m 0,66,67
 49 555 49 555 53.5 559.5 c 128,-1,68
 58 564 58 564 62.5 570.5 c 128,-1,69
 67 577 67 577 71 583.5 c 128,-1,70
 75 590 75 590 76 593 c 256,71,72
 77 596 77 596 76.5 600.5 c 128,-1,73
 76 605 76 605 73 604 c 0,74,75
 66 603 66 603 61 597.5 c 128,-1,76
 56 592 56 592 52 585 c 128,-1,77
 48 578 48 578 46 572 c 128,-1,78
 44 566 44 566 44 563 c 0,79,80
 44 561 44 561 44 558.5 c 128,-1,81
 44 556 44 556 46 555 c 0,66,67
408 575 m 0,82,83
 409 583 409 583 414.5 591 c 128,-1,84
 420 599 420 599 414 600 c 0,85,86
 406 601 406 601 397.5 591.5 c 0,87,88
 388 581 388 581 387 568 c 0,89,90
 386 553 386 553 392 552 c 0,91,92
 400 551 400 551 403.5 561 c 128,-1,93
 407 571 407 571 408 575 c 0,82,83
71.4521484375 15.791015625 m 0,94,95
 75 19 75 19 74.8251953125 25.0439453125 c 0,96,97
 74 32 74 32 99 58 c 0,98,99
 123 84 123 84 130.938476562 91.7998046875 c 0,100,101
 143 105 143 105 137.7109375 108.891601562 c 0,102,103
 134 111 134 111 129.251953125 107.329101562 c 0,104,105
 123 103 123 103 121.586914062 100.829101562 c 0,106,107
 118 98 118 98 112.58203125 90.0634765625 c 0,108,109
 106 82 106 82 85.876953125 60.2451171875 c 0,110,111
 65 38 65 38 63.0673828125 30.1416015625 c 0,112,113
 60 22 60 22 62.173828125 20.5791015625 c 256,114,115
 69 13 69 13 71.4521484375 15.791015625 c 0,94,95
EndSplineSet
EndChar

StartChar: w
Encoding: 119 119 89
Width: 579
Flags: W
LayerCount: 2
Fore
SplineSet
562 538 m 1,0,-1
 24 538 l 1,1,-1
 24 617 l 1,2,-1
 562 617 l 1,3,-1
 562 538 l 1,0,-1
392 0 m 0,4,5
 369 0 369 0 352.5 6 c 128,-1,6
 336 12 336 12 324.5 23.5 c 128,-1,7
 313 35 313 35 305 51 c 0,8,9
 293 75 293 75 290 87 c 0,10,11
 289 91 289 91 288 97 c 128,-1,12
 287 103 287 103 285.5 109 c 128,-1,13
 284 115 284 115 282.5 119 c 128,-1,14
 281 123 281 123 279 123 c 256,15,16
 277 123 277 123 275 115.5 c 128,-1,17
 273 108 273 108 269 97 c 0,18,19
 259 71 259 71 250 52.5 c 128,-1,20
 241 34 241 34 229.5 22.5 c 128,-1,21
 218 11 218 11 204 5.5 c 128,-1,22
 190 0 190 0 170 0 c 0,23,24
 130 0 130 0 100.5 13.5 c 128,-1,25
 71 27 71 27 52 51.5 c 128,-1,26
 33 76 33 76 24 109.5 c 128,-1,27
 15 143 15 143 15 183 c 2,28,-1
 15 522 l 2,29,30
 15 532 15 532 18 545.5 c 128,-1,31
 21 559 21 559 28 571 c 128,-1,32
 35 583 35 583 46.5 591.5 c 128,-1,33
 58 600 58 600 76 600 c 0,34,35
 105 600 105 600 116 579.5 c 128,-1,36
 126.90365403 559.179553852 126.90365403 559.179553852 127 527 c 2,37,-1
 128 193 l 2,38,39
 128 183 128 183 130 166.5 c 128,-1,40
 132 150 132 150 136.5 134 c 128,-1,41
 141 118 141 118 150 106.5 c 128,-1,42
 159 95 159 95 172 95 c 0,43,44
 195 95 195 95 208.5 129 c 128,-1,45
 222 163 222 163 229 219 c 128,-1,46
 236 275 236 275 237.5 285.5 c 128,-1,47
 239 296 239 296 239 372 c 4,48,49
 239 436 239 436 249 460.5 c 132,-1,50
 259 485 259 485 289 485 c 4,51,52
 303 485 303 485 312 480 c 132,-1,53
 321 475 321 475 327 459 c 132,-1,54
 333 443 333 443 335.5 413 c 132,-1,55
 338 383 338 383 338 333 c 4,56,57
 338 271 l 0,58,-1
 339.5 236.5 l 0,59,60
 341 202 341 202 343.5 181.5 c 128,-1,61
 346 161 346 161 351 146 c 0,62,63
 360 117 360 117 370 105.5 c 128,-1,64
 380 94 380 94 393 94 c 0,65,66
 452 94 452 94 452 239 c 2,67,-1
 452 539 l 2,68,69
 452 550 452 550 454 561 c 128,-1,70
 456 572 456 572 461.5 580.5 c 128,-1,71
 467 589 467 589 477 594.5 c 128,-1,72
 487 600 487 600 502 600 c 0,73,74
 534 600 534 600 548.5 582.5 c 128,-1,75
 563 565 563 565 563 539 c 2,76,-1
 563 220 l 2,77,78
 563 178 563 178 551.5 138.5 c 128,-1,79
 540 99 540 99 518.5 68 c 128,-1,80
 497 37 497 37 465 18.5 c 128,-1,81
 433 0 433 0 392 0 c 0,4,5
40 515 m 0,82,83
 47 515 47 515 49.5 522 c 128,-1,84
 52 529 52 529 53 534 c 0,85,86
 55 548 55 548 64 557.5 c 0,87,88
 79 573 79 573 79 579 c 0,89,90
 79 581 79 581 77 584 c 128,-1,91
 75 587 75 587 72 587 c 0,92,93
 66 587 66 587 59 580.5 c 128,-1,94
 52 574 52 574 46 565 c 128,-1,95
 40 556 40 556 36.5 545.5 c 128,-1,96
 33 535 33 535 33 527 c 0,97,98
 33 523 33 523 34 519 c 128,-1,99
 35 515 35 515 40 515 c 0,82,83
485 533 m 0,100,101
 485 543 485 543 488 551 c 128,-1,102
 491 559 491 559 495 566 c 0,103,104
 500 574 500 574 499 579 c 128,-1,105
 498 584 498 584 495 584 c 0,106,107
 490 584 490 584 483.5 580.5 c 128,-1,108
 477 577 477 577 473 567 c 0,109,110
 468 551 468 551 469.5 536 c 128,-1,111
 471 521 471 521 479 521 c 0,112,113
 481 521 481 521 483 524.5 c 128,-1,114
 485 528 485 528 485 533 c 0,100,101
266 421 m 4,115,116
 266 422 266 422 268 431.5 c 132,-1,117
 270 441 270 441 273 447 c 4,118,119
 280 460 280 460 282 465 c 132,-1,120
 284 470 284 470 281 470 c 4,121,122
 279 470 279 470 273.5 468 c 132,-1,123
 268 466 268 466 263 459 c 4,124,125
 252 444 252 444 252.5 427 c 132,-1,126
 253 410 253 410 261 410 c 4,127,128
 266 410 266 410 266 421 c 4,115,116
117 37 m 0,129,130
 116 42 116 42 103 51 c 128,-1,131
 90 60 90 60 84 67 c 0,132,133
 73 78 73 78 68.5 89 c 128,-1,134
 64 100 64 100 59 99 c 0,135,136
 55 99 55 99 55.5 92 c 128,-1,137
 56 85 56 85 60.5 75 c 128,-1,138
 65 65 65 65 74 54 c 128,-1,139
 83 43 83 43 96 34 c 0,140,141
 105 27 105 27 112 29 c 0,142,143
 117 29 117 29 117 37 c 0,129,130
383 22 m 0,144,145
 383 26 383 26 379.5 27 c 128,-1,146
 376 28 376 28 373 28 c 0,147,148
 368 29 368 29 358 38 c 128,-1,149
 348 47 348 47 342 57 c 0,150,151
 332 72 332 72 324 74 c 0,152,153
 321 74 321 74 321 69 c 0,154,155
 321 67 321 67 324.5 59 c 128,-1,156
 328 51 328 51 335 42 c 128,-1,157
 342 33 342 33 351.5 25.5 c 128,-1,158
 361 18 361 18 372 17 c 0,159,160
 376 17 376 17 379 17 c 128,-1,161
 382 17 382 17 383 22 c 0,144,145
EndSplineSet
EndChar

StartChar: x
Encoding: 120 120 90
Width: 443
Flags: W
LayerCount: 2
Fore
SplineSet
359 169.5 m 0,0,1
 359 138.5 359 138.5 338 128.5 c 128,-1,2
 317 118.5 317 118.5 293 117.5 c 0,3,4
 278 117.5 278 117.5 257.5 117 c 128,-1,5
 237 116.5 237 116.5 214.5 116 c 128,-1,6
 192 115.5 192 115.5 171 115.5 c 128,-1,7
 150 115.5 150 115.5 135 115.5 c 0,8,9
 113 115.5 113 115.5 97.5 126 c 128,-1,10
 82 136.5 82 136.5 82 159.5 c 0,11,12
 82 172.5 82 172.5 88 181.5 c 128,-1,13
 94 190.5 94 190.5 103 195.5 c 128,-1,14
 112 200.5 112 200.5 123.5 202.5 c 128,-1,15
 135 204.5 135 204.5 146 204.5 c 0,16,17
 162 204.5 162 204.5 184 205 c 128,-1,18
 206 205.5 206 205.5 229 206 c 128,-1,19
 252 206.5 252 206.5 274.5 206.5 c 128,-1,20
 297 206.5 297 206.5 313 206.5 c 0,21,22
 330 206.5 330 206.5 344.5 199 c 128,-1,23
 359 191.5 359 191.5 359 169.5 c 0,0,1
100 140.5 m 0,24,25
 104 140.5 104 140.5 108.5 146 c 128,-1,26
 113 151.5 113 151.5 116.5 158 c 128,-1,27
 120 164.5 120 164.5 122.5 171 c 128,-1,28
 125 177.5 125 177.5 125 179.5 c 0,29,30
 125 183.5 125 183.5 124.5 187 c 128,-1,31
 124 190.5 124 190.5 119 190.5 c 0,32,33
 106 190.5 106 190.5 99.5 177 c 128,-1,34
 93 163.5 93 163.5 93 153.5 c 0,35,36
 93 145.5 93 145.5 95.5 143 c 128,-1,37
 98 140.5 98 140.5 100 140.5 c 0,24,25
48 -14 m 0,38,39
 33 -14 33 -14 21.5 -3.5 c 128,-1,40
 10 7 10 7 10 18 c 0,41,42
 10 20.279296875 10 20.279296875 14 32 c 2,43,-1
 143 410 l 2,44,-1
 159 449 l 0,45,46
 159 455 159 455 155 463.5 c 0,47,48
 152 469 152 469 146 480 c 2,49,-1
 34 614 l 2,50,51
 31 618 31 618 24.5 635 c 0,52,53
 20 647 20 647 20 662 c 0,54,55
 20 676 20 676 34.5 690 c 128,-1,56
 49 704 49 704 76 704 c 0,57,58
 82 704 82 704 87.5 702 c 0,59,60
 90.259765625 697.499023438 90.259765625 697.499023438 97.384765625 692.444335938 c 0,61,62
 98.3740234375 689.91015625 98.3740234375 689.91015625 112 677.5 c 1,63,64
 216.5 559 l 0,65,66
 218 553 218 553 222 553 c 256,67,-1
 236 575 l 2,68,-1
 331 690 l 2,69,70
 339 700 339 700 342 701 c 0,71,72
 349 704 349 704 356 704 c 256,73,74
 363 704 363 704 374.5 701 c 128,-1,75
 386 698 386 698 396 691 c 0,76,77
 408 683 408 683 410.5 674 c 0,78,79
 415.069335938 659.783203125 415.069335938 659.783203125 407 649 c 2,80,-1
 294 498 l 2,81,82
 278 477 278 477 278 461 c 0,83,84
 278 457 278 457 284.5 446.5 c 0,85,86
 288 440 288 440 305 410 c 2,87,-1
 428 32 l 2,88,89
 430 27 430 27 427 20.5 c 0,90,91
 423 13 423 13 414 6 c 128,-1,92
 405 -1 405 -1 392 -6 c 128,-1,93
 379 -11 379 -11 364 -11 c 0,94,95
 359 -11 359 -11 351.5 -9 c 0,96,97
 342.169921875 -7.0361328125 342.169921875 -7.0361328125 340 0 c 2,98,-1
 237 334 l 2,99,100
 236 337 236 337 227.5 350.5 c 0,101,102
 223 358 223 358 219 358 c 256,103,104
 215 358 215 358 211.5 352 c 0,105,106
 210 349 210 349 199 331 c 2,107,-1
 106 23 l 2,108,109
 101 7 101 7 79 -6 c 0,110,111
 65 -14 65 -14 48 -14 c 0,38,39
350 664 m 0,112,113
 350 670 350 670 361 681 c 256,114,115
 372 692 372 692 366 692 c 0,116,117
 361 692 361 692 355 689.5 c 128,-1,118
 349 687 349 687 344 679 c 0,119,120
 338 668 338 668 339.5 663.5 c 128,-1,121
 341 659 341 659 344 659 c 0,122,123
 350 659 350 659 350 664 c 0,112,113
51 651 m 0,124,125
 51 663 51 663 56.5 667.5 c 128,-1,126
 62 672 62 672 61 676 c 0,127,128
 59 684 59 684 52 684 c 0,129,130
 48 684 48 684 44 678.5 c 128,-1,131
 40 673 40 673 38 665 c 128,-1,132
 36 657 36 657 36.5 648 c 128,-1,133
 37 639 37 639 41 632 c 0,134,135
 45 626 45 626 49 627 c 0,136,137
 54 629 54 629 52.5 637.5 c 128,-1,138
 51 646 51 646 51 651 c 0,124,125
371 2 m 0,139,140
 374 7 374 7 360 16 c 0,141,142
 357 18 357 18 353 23.5 c 128,-1,143
 349 29 349 29 346 35 c 128,-1,144
 343 41 343 41 340 46 c 128,-1,145
 337 51 337 51 335 51 c 0,146,147
 330 51 330 51 330 45 c 0,148,149
 330 41 330 41 332.5 34 c 128,-1,150
 335 27 335 27 339.5 19.5 c 128,-1,151
 344 12 344 12 349.5 6 c 128,-1,152
 355 0 355 0 361 -1 c 0,153,154
 364 -1 364 -1 367.5 -1 c 0,155,156
 369 -1 369 -1 371 2 c 0,139,140
39 9 m 0,157,158
 37 13 37 13 32.5 19 c 128,-1,159
 28 25 28 25 30 30 c 0,160,161
 32 38 32 38 29.5 38 c 128,-1,162
 27 38 27 38 24 32 c 0,163,164
 20 24 20 24 23.5 14 c 128,-1,165
 27 4 27 4 32 2 c 0,166,167
 36 0 36 0 39 1.5 c 128,-1,168
 42 3 42 3 39 9 c 0,157,158
EndSplineSet
EndChar

StartChar: y
Encoding: 121 121 91
Width: 438
Flags: W
LayerCount: 2
Fore
SplineSet
218 0 m 4,0,1
 192 0 192 0 178.5 16.5 c 132,-1,2
 165 33 165 33 165 52 c 6,3,-1
 165 191 l 6,4,5
 165 204 165 204 163.5 214.5 c 132,-1,6
 162 225 162 225 158.5 236 c 132,-1,7
 155 247 155 247 149 260.5 c 132,-1,8
 143 274 143 274 134 294 c 6,9,-1
 15 556 l 6,10,11
 12 563 12 563 14.5 573.5 c 132,-1,12
 17 584 17 584 24.5 593.5 c 132,-1,13
 32 603 32 603 44 609.5 c 132,-1,14
 56 616 56 616 72 616 c 4,15,16
 81 616 81 616 89.5 611.5 c 132,-1,17
 98 607 98 607 103 595 c 6,18,-1
 196 377 l 6,19,20
 201 366 201 366 207.5 354 c 132,-1,21
 214 342 214 342 220 342 c 260,22,23
 226 342 226 342 232 351.5 c 132,-1,24
 238 361 238 361 245 377 c 6,25,-1
 345 600 l 6,26,27
 350 611 350 611 360 613.5 c 132,-1,28
 370 616 370 616 377 616 c 4,29,30
 390 616 390 616 399.5 609 c 132,-1,31
 409 602 409 602 414.5 592 c 132,-1,32
 420 582 420 582 421.5 571 c 132,-1,33
 423 560 423 560 419 552 c 6,34,-1
 294 281 l 6,35,36
 287 266 287 266 283 255.5 c 132,-1,37
 279 245 279 245 277.5 234 c 132,-1,38
 276 223 276 223 275.5 209.5 c 132,-1,39
 275 196 275 196 275 174 c 6,40,-1
 275 52 l 6,41,42
 275 37 275 37 269.5 27 c 132,-1,43
 264 17 264 17 255.5 11 c 132,-1,44
 247 5 247 5 237 2.5 c 132,-1,45
 227 0 227 0 218 0 c 4,0,1
46 551 m 4,46,47
 44 559 44 559 44.5 564.5 c 132,-1,48
 45 570 45 570 44 575 c 260,49,50
 43 580 43 580 41 584 c 132,-1,51
 39 588 39 588 37 587 c 4,52,53
 26 582 26 582 27.5 568 c 132,-1,54
 29 554 29 554 32 546 c 4,55,56
 37 535 37 535 44 537 c 4,57,58
 48 539 48 539 48 543 c 132,-1,59
 48 547 48 547 46 551 c 4,46,47
202 33 m 4,60,61
 200 37 200 37 196.5 47 c 132,-1,62
 193 57 193 57 191 74 c 4,63,64
 190 97 190 97 186 97 c 4,65,66
 185 97 185 97 183 93.5 c 132,-1,67
 181 90 181 90 180 81 c 4,68,69
 178 49 178 49 185.5 35 c 132,-1,70
 193 21 193 21 202 21 c 4,71,72
 206 21 206 21 205 24.5 c 132,-1,73
 204 28 204 28 202 33 c 4,60,61
EndSplineSet
EndChar

StartChar: z
Encoding: 122 122 92
Width: 368
Flags: W
LayerCount: 2
Fore
SplineSet
81 0 m 2,0,1
 70 0 70 0 57.5 2.5 c 128,-1,2
 45 5 45 5 35 11.5 c 128,-1,3
 25 18 25 18 18.5 28.5 c 128,-1,4
 12 39 12 39 12 55 c 0,5,6
 12 65 12 65 13.5 76 c 128,-1,7
 15 87 15 87 23 102 c 2,8,-1
 231 513 l 2,9,10
 234 519 234 519 234 525 c 0,11,12
 233 531 233 531 223 531 c 2,13,-1
 45 533 l 2,14,15
 32 533 32 533 23.5 543.5 c 128,-1,16
 15 554 15 554 15 569 c 0,17,18
 15 598 15 598 29.5 608 c 128,-1,19
 44 618 44 618 63 618 c 6,20,-1
 309 616 l 6,21,22
 321 616 321 616 329 609.5 c 128,-1,23
 337 603 337 603 341.5 593.5 c 128,-1,24
 346 584 346 584 348 572 c 128,-1,25
 350 560 350 560 350 548 c 0,26,27
 350 518 350 518 335 488 c 2,28,-1
 161 158 l 2,29,30
 149 135 149 135 142.5 121.5 c 128,-1,31
 136 108 136 108 136 100 c 0,32,33
 136 87 136 87 164 87 c 2,34,-1
 312 86 l 2,35,36
 332 86 332 86 341.5 72 c 128,-1,37
 351 58 351 58 351 35 c 0,38,39
 351 21 351 21 341.5 10.5 c 128,-1,40
 332 0 332 0 324 0 c 2,41,-1
 81 0 l 2,0,1
45 574 m 0,42,43
 47 578 47 578 51 585 c 128,-1,44
 55 592 55 592 54 595 c 0,45,46
 54 597 54 597 50.5 599.5 c 128,-1,47
 47 602 47 602 45 602 c 0,48,49
 34 600 34 600 31 586 c 128,-1,50
 28 572 28 572 30 560 c 0,51,52
 30 558 30 558 32 555 c 128,-1,53
 34 552 34 552 36 552 c 0,54,55
 40 553 40 553 42 562.5 c 128,-1,56
 44 572 44 572 45 574 c 0,42,43
38 49 m 0,57,58
 42 49 42 49 46 57.5 c 128,-1,59
 50 66 50 66 54 77.5 c 128,-1,60
 58 89 58 89 60.5 100.5 c 128,-1,61
 63 112 63 112 63 117 c 0,62,63
 63 121 63 121 59 121 c 0,64,65
 54 121 54 121 49 114 c 128,-1,66
 44 107 44 107 39.5 99 c 128,-1,67
 35 91 35 91 32 82.5 c 128,-1,68
 29 74 29 74 29 71 c 0,69,70
 28 63 28 63 30.5 56 c 128,-1,71
 33 49 33 49 38 49 c 0,57,58
53 27 m 0,72,73
 53 34 53 34 48 34 c 0,74,75
 39 34 39 34 39 25 c 0,76,77
 39 19 39 19 44 19 c 0,78,79
 47 19 47 19 50 21.5 c 128,-1,80
 53 24 53 24 53 27 c 0,72,73
EndSplineSet
EndChar

StartChar: at
Encoding: 64 64 93
Width: 575
Flags: W
LayerCount: 2
Fore
SplineSet
261 1 m 0,0,1
 205 1 205 1 158 20 c 128,-1,2
 111 39 111 39 77.5 73.5 c 128,-1,3
 44 108 44 108 25.5 157.5 c 128,-1,4
 7 207 7 207 7 267 c 0,5,6
 7 335 7 335 28.5 393 c 128,-1,7
 50 451 50 451 88.5 494.5 c 128,-1,8
 127 538 127 538 179 562.5 c 128,-1,9
 231 587 231 587 292 587 c 256,10,11
 353 587 353 587 401 566.5 c 128,-1,12
 449 546 449 546 482.5 510 c 128,-1,13
 516 474 516 474 533.5 426.5 c 128,-1,14
 551 379 551 379 551 325 c 0,15,16
 551 286 551 286 540.5 252.5 c 128,-1,17
 530 219 530 219 512 193.5 c 128,-1,18
 494 168 494 168 470 153.5 c 128,-1,19
 446 139 446 139 419 139 c 0,20,21
 398 139 398 139 385 147 c 128,-1,22
 372 155 372 155 364.5 165 c 128,-1,23
 357 175 357 175 352.5 183 c 128,-1,24
 348 191 348 191 344 191 c 256,25,26
 340 191 340 191 331 182.5 c 128,-1,27
 322 174 322 174 309 164.5 c 128,-1,28
 296 155 296 155 279 146.5 c 128,-1,29
 262 138 262 138 241 138 c 256,30,31
 220 138 220 138 202 147.5 c 128,-1,32
 184 157 184 157 171 174 c 128,-1,33
 158 191 158 191 150.5 213.5 c 128,-1,34
 143 236 143 236 143 263 c 0,35,36
 143 297 143 297 154.5 328.5 c 128,-1,37
 166 360 166 360 184.5 384.5 c 128,-1,38
 203 409 203 409 227.5 423.5 c 128,-1,39
 252 438 252 438 278 438 c 0,40,41
 291 438 291 438 299 434.5 c 128,-1,42
 307 431 307 431 312 427 c 128,-1,43
 317 423 317 423 320 419.5 c 128,-1,44
 323 416 323 416 326 416 c 256,45,46
 329 416 329 416 332 420.5 c 128,-1,47
 335 425 335 425 339 430 c 128,-1,48
 343 435 343 435 349 439.5 c 128,-1,49
 355 444 355 444 365 444 c 0,50,51
 386 444 386 444 394 425 c 128,-1,52
 402 406 402 406 403.5 380.5 c 128,-1,53
 405 355 405 355 403 329.5 c 128,-1,54
 401 304 401 304 401 292 c 0,55,56
 401 279 401 279 404 265.5 c 128,-1,57
 407 252 407 252 412 240.5 c 128,-1,58
 417 229 417 229 423 222 c 128,-1,59
 429 215 429 215 436 215 c 0,60,61
 448 215 448 215 458 239 c 128,-1,62
 468 263 468 263 468 303 c 0,63,64
 468 351 468 351 459 389 c 128,-1,65
 450 427 450 427 430.5 453.5 c 128,-1,66
 411 480 411 480 379 494.5 c 128,-1,67
 347 509 347 509 301 509 c 256,68,69
 255 509 255 509 216.5 491.5 c 128,-1,70
 178 474 178 474 150 443 c 128,-1,71
 122 412 122 412 106.5 370 c 128,-1,72
 91 328 91 328 91 279 c 0,73,74
 91 235 91 235 104.5 198 c 128,-1,75
 118 161 118 161 142 134 c 128,-1,76
 166 107 166 107 198 92 c 128,-1,77
 230 77 230 77 267 77 c 0,78,79
 293 77 293 77 319.5 83.5 c 128,-1,80
 346 90 346 90 370 98 c 128,-1,81
 394 106 394 106 415.5 112.5 c 128,-1,82
 437 119 437 119 453 119 c 0,83,84
 481 119 481 119 481 98 c 0,85,86
 481 81 481 81 461.5 63.5 c 128,-1,87
 442 46 442 46 410.5 32 c 128,-1,88
 379 18 379 18 339.5 9.5 c 128,-1,89
 300 1 300 1 261 1 c 0,0,1
179 316 m 0,90,91
 183 316 183 316 187.5 326.5 c 128,-1,92
 192 337 192 337 194 339 c 0,93,94
 202 353 202 353 212.5 365 c 128,-1,95
 223 377 223 377 234 388 c 0,96,97
 239 393 239 393 233 393 c 0,98,99
 226 393 226 393 215.5 384.5 c 128,-1,100
 205 376 205 376 196 365 c 128,-1,101
 187 354 187 354 180.5 342 c 128,-1,102
 174 330 174 330 174 323 c 0,103,104
 174 321 174 321 175.5 318.5 c 128,-1,105
 177 316 177 316 179 316 c 0,90,91
265 220 m 0,106,107
 275 220 275 220 285.5 229 c 128,-1,108
 296 238 296 238 305 252 c 128,-1,109
 314 266 314 266 319.5 284 c 128,-1,110
 325 302 325 302 325 320 c 0,111,112
 325 362 325 362 293 362 c 0,113,114
 280 362 280 362 267 355 c 128,-1,115
 254 348 254 348 243.5 336 c 128,-1,116
 233 324 233 324 227 309 c 128,-1,117
 221 294 221 294 221 278 c 0,118,119
 221 253 221 253 231.5 236.5 c 128,-1,120
 242 220 242 220 265 220 c 0,106,107
177 291 m 0,121,122
 177 298 177 298 172 300 c 0,123,124
 169 301 169 301 165.5 297.5 c 128,-1,125
 162 294 162 294 162 291 c 0,126,127
 162 287 162 287 164.5 283.5 c 128,-1,128
 167 280 167 280 170 280 c 256,129,130
 173 280 173 280 175 284 c 128,-1,131
 177 288 177 288 177 291 c 0,121,122
EndSplineSet
EndChar

StartChar: ampersand
Encoding: 38 38 94
Width: 536
Flags: W
LayerCount: 2
Fore
SplineSet
232 -6 m 0,0,1
 135 -6 135 -6 83 46.5 c 128,-1,2
 31 99 31 99 31 193 c 0,3,4
 31 254 31 254 50 291 c 128,-1,5
 69 328 69 328 91.5 349 c 128,-1,6
 114 370 114 370 132.5 379 c 128,-1,7
 151 388 151 388 151 393 c 0,8,9
 151 397 151 397 146 407 c 128,-1,10
 141 417 141 417 135.5 430.5 c 128,-1,11
 130 444 130 444 125 460.5 c 128,-1,12
 120 477 120 477 120 495 c 0,13,14
 120 552 120 552 158.5 587 c 128,-1,15
 197 622 197 622 260 622 c 0,16,17
 302 622 302 622 333 604.5 c 128,-1,18
 364 587 364 587 374 567 c 0,19,20
 377 562 377 562 375.5 552 c 128,-1,21
 374 542 374 542 369.5 532.5 c 128,-1,22
 365 523 365 523 357 515.5 c 128,-1,23
 349 508 349 508 337 508 c 256,24,25
 325 508 325 508 317 512.5 c 128,-1,26
 309 517 309 517 302 522.5 c 128,-1,27
 295 528 295 528 287.5 532.5 c 128,-1,28
 280 537 280 537 271 537 c 0,29,30
 252 537 252 537 239.5 523.5 c 128,-1,31
 227 510 227 510 227 481 c 0,32,33
 227 463 227 463 241.5 434 c 128,-1,34
 256 405 256 405 279.5 369 c 128,-1,35
 303 333 303 333 332 293 c 128,-1,36
 361 253 361 253 390 214 c 1,37,38
 402 238 402 238 411 265 c 0,39,40
 416 282 416 282 428 290.5 c 128,-1,41
 440 299 440 299 453 299 c 256,42,43
 466 299 466 299 476 289.5 c 128,-1,44
 486 280 486 280 486 260 c 0,45,46
 486 248 486 248 481 232.5 c 128,-1,47
 476 217 476 217 468.5 201 c 128,-1,48
 461 185 461 185 453 170 c 128,-1,49
 445 155 445 155 439 146 c 1,50,51
 469 104 469 104 488.5 71.5 c 128,-1,52
 508 39 508 39 508 23 c 0,53,54
 508 13 508 13 502.5 6 c 128,-1,55
 497 -1 497 -1 489 -5 c 128,-1,56
 481 -9 481 -9 471 -10.5 c 128,-1,57
 461 -12 461 -12 453 -12 c 0,58,59
 444 -12 444 -12 424 10.5 c 128,-1,60
 404 33 404 33 378 67 c 1,61,62
 346 35 346 35 309.5 14.5 c 128,-1,63
 273 -6 273 -6 232 -6 c 0,0,1
154 499 m 0,64,65
 161 499 161 499 164.5 509.5 c 128,-1,66
 168 520 168 520 170 525 c 0,67,68
 175 537 175 537 181 548.5 c 128,-1,69
 187 560 187 560 196 570 c 0,70,71
 197 572 197 572 204 579 c 128,-1,72
 211 586 211 586 211 588 c 256,73,74
 211 590 211 590 210 590 c 0,75,76
 200 590 200 590 189 580 c 128,-1,77
 178 570 178 570 169.5 556 c 128,-1,78
 161 542 161 542 155.5 528.5 c 128,-1,79
 150 515 150 515 150 507 c 0,80,81
 150 505 150 505 151 502 c 128,-1,82
 152 499 152 499 154 499 c 0,64,65
164 472 m 256,83,84
 164 474 164 474 163.5 477 c 128,-1,85
 163 480 163 480 158 480 c 0,86,87
 154 480 154 480 152 477 c 128,-1,88
 150 474 150 474 150 472 c 0,89,90
 150 464 150 464 157 464 c 0,91,92
 161 464 161 464 162.5 467 c 128,-1,93
 164 470 164 470 164 472 c 256,83,84
329 134 m 1,94,95
 306 166 306 166 283 198 c 128,-1,96
 260 230 260 230 241.5 255 c 128,-1,97
 223 280 223 280 209.5 295.5 c 128,-1,98
 196 311 196 311 191 311 c 0,99,100
 178 311 178 311 165.5 301 c 128,-1,101
 153 291 153 291 144 275.5 c 128,-1,102
 135 260 135 260 129.5 241 c 128,-1,103
 124 222 124 222 124 204 c 0,104,105
 124 183 124 183 132 162.5 c 128,-1,106
 140 142 140 142 154.5 126 c 128,-1,107
 169 110 169 110 190 100.5 c 128,-1,108
 211 91 211 91 236 91 c 0,109,110
 281 91 281 91 329 134 c 1,94,95
75 126 m 0,111,112
 80 130 80 130 77.5 140.5 c 128,-1,113
 75 151 75 151 73 156 c 0,114,115
 69 169 69 169 67 183.5 c 128,-1,116
 65 198 65 198 71 218 c 0,117,118
 76 232 76 232 73 236 c 128,-1,119
 70 240 70 240 68 238 c 0,120,121
 59 232 59 232 55.5 217.5 c 128,-1,122
 52 203 52 203 52 186.5 c 128,-1,123
 52 170 52 170 56 154.5 c 128,-1,124
 60 139 60 139 67 130 c 0,125,126
 68 128 68 128 70.5 126 c 128,-1,127
 73 124 73 124 75 126 c 0,111,112
EndSplineSet
EndChar

StartChar: dollar
Encoding: 36 36 95
Width: 354
Flags: W
LayerCount: 2
Fore
SplineSet
173 -41 m 256,0,1
 162 -41 162 -41 156 -32.5 c 128,-1,2
 150 -24 150 -24 147.5 -12 c 128,-1,3
 145 0 145 0 145 13.5 c 128,-1,4
 145 27 145 27 145 37 c 2,5,-1
 145 95 l 1,6,7
 101 95 101 95 71 114.5 c 128,-1,8
 41 134 41 134 41 163 c 0,9,10
 41 181 41 181 51.5 187.5 c 128,-1,11
 62 194 62 194 73 194 c 0,12,13
 95 194 95 194 117 186 c 128,-1,14
 139 178 139 178 169 178 c 0,15,16
 178 178 178 178 189.5 181 c 128,-1,17
 201 184 201 184 211 190 c 128,-1,18
 221 196 221 196 228 204.5 c 128,-1,19
 235 213 235 213 235 225 c 0,20,21
 235 248 235 248 216 260 c 128,-1,22
 197 272 197 272 167 272 c 0,23,24
 107 272 107 272 72.5 303.5 c 128,-1,25
 38 335 38 335 38 401 c 0,26,27
 38 460 38 460 67.5 497 c 128,-1,28
 97 534 97 534 145 542 c 1,29,-1
 145 587 l 2,30,31
 145 594 145 594 144.5 608.5 c 128,-1,32
 144 623 144 623 146 637.5 c 128,-1,33
 148 652 148 652 154.5 663 c 128,-1,34
 161 674 161 674 174 674 c 256,35,36
 187 674 187 674 193 647 c 128,-1,37
 199 620 199 620 199 572 c 0,38,39
 199 552 199 552 201 547 c 128,-1,40
 203 542 203 542 215 542 c 256,41,42
 227 542 227 542 239.5 538 c 128,-1,43
 252 534 252 534 262.5 526.5 c 128,-1,44
 273 519 273 519 279.5 508.5 c 128,-1,45
 286 498 286 498 286 485 c 256,46,47
 286 472 286 472 280 467.5 c 128,-1,48
 274 463 274 463 263.5 462 c 128,-1,49
 253 461 253 461 238 462.5 c 128,-1,50
 223 464 223 464 205 464 c 0,51,52
 167 464 167 464 153 447.5 c 128,-1,53
 139 431 139 431 139 404 c 0,54,55
 139 391 139 391 145 382.5 c 128,-1,56
 151 374 151 374 160 369.5 c 128,-1,57
 169 365 169 365 178.5 362.5 c 128,-1,58
 188 360 188 360 195 359 c 0,59,60
 224 355 224 355 248 346.5 c 128,-1,61
 272 338 272 338 289 323 c 128,-1,62
 306 308 306 308 315.5 285 c 128,-1,63
 325 262 325 262 325 230 c 0,64,65
 325 172 325 172 290 137 c 128,-1,66
 255 102 255 102 199 97 c 1,67,-1
 199 37 l 2,68,69
 199 28 199 28 199 14.5 c 128,-1,70
 199 1 199 1 197 -11.5 c 128,-1,71
 195 -24 195 -24 189.5 -32.5 c 128,-1,72
 184 -41 184 -41 173 -41 c 256,0,1
101 476 m 0,73,74
 107 485 107 485 116 490 c 128,-1,75
 125 495 125 495 125 503 c 0,76,77
 125 509 125 509 118 509 c 0,78,79
 110 509 110 509 102 503 c 128,-1,80
 94 497 94 497 88 488.5 c 128,-1,81
 82 480 82 480 78 470.5 c 128,-1,82
 74 461 74 461 74 453 c 0,83,84
 74 446 74 446 78 446 c 0,85,86
 85 446 85 446 90.5 457 c 128,-1,87
 96 468 96 468 101 476 c 0,73,74
83 425 m 0,88,89
 83 434 83 434 74 434 c 0,90,91
 69 434 69 434 67.5 429.5 c 128,-1,92
 66 425 66 425 68 419 c 256,93,94
 70 413 70 413 75 413 c 256,95,96
 80 413 80 413 81.5 416.5 c 128,-1,97
 83 420 83 420 83 425 c 0,88,89
EndSplineSet
EndChar

StartChar: grave
Encoding: 96 96 96
Width: 287
VWidth: 1024
Flags: W
LayerCount: 2
Fore
SplineSet
148 784 m 1,0,1
 159 761 159 761 176.5 733.5 c 128,-1,2
 194 706 194 706 212.5 679 c 128,-1,3
 231 652 231 652 247 633 c 1,4,-1
 247 621 l 1,5,-1
 186 621 l 1,6,7
 169 635 169 635 147.5 655 c 128,-1,8
 126 675 126 675 105 697 c 128,-1,9
 84 719 84 719 67 739.5 c 128,-1,10
 50 760 50 760 41 774 c 1,11,-1
 41 784 l 1,12,-1
 148 784 l 1,0,1
EndSplineSet
EndChar

StartChar: uni0901
Encoding: 2305 2305 97
Width: 0
Flags: W
LayerCount: 2
Fore
SplineSet
-129 671 m 256,0,1
 -189 671 -189 671 -229 695.5 c 128,-1,2
 -269 720 -269 720 -290 762.5 c 128,-1,3
 -311 805 -311 805 -316 858 c 1,4,-1
 -244 868 l 1,5,6
 -236 800 -236 800 -208.5 769 c 128,-1,7
 -181 738 -181 738 -130 738 c 0,8,9
 -78 738 -78 738 -50 769.5 c 128,-1,10
 -22 801 -22 801 -16 868 c 1,11,-1
 57 858 l 1,12,13
 51 806 51 806 30 763.5 c 128,-1,14
 9 721 9 721 -30 696 c 128,-1,15
 -69 671 -69 671 -129 671 c 256,0,1
-130 788 m 0,16,17
 -152 788 -152 788 -167 802.5 c 128,-1,18
 -182 817 -182 817 -182 842 c 0,19,20
 -182 868 -182 868 -167 882 c 128,-1,21
 -152 896 -152 896 -130 896 c 256,22,23
 -108 896 -108 896 -93 882 c 128,-1,24
 -78 868 -78 868 -78 842 c 0,25,26
 -78 817 -78 817 -92.5 802.5 c 128,-1,27
 -107 788 -107 788 -130 788 c 0,16,17
EndSplineSet
EndChar

StartChar: uni0902
Encoding: 2306 2306 98
Width: 391
Flags: W
LayerCount: 2
Fore
SplineSet
67 446 m 0,0,1
 42 446 42 446 32 460.5 c 128,-1,2
 22 475 22 475 22 511 c 2,3,-1
 22 724 l 2,4,5
 22 768 22 768 31.5 783 c 128,-1,6
 41 798 41 798 70 798 c 0,7,8
 89 798 89 798 107 788.5 c 128,-1,9
 125 779 125 779 125 753 c 2,10,-1
 125 739 l 2,11,12
 125 699 125 699 129 699 c 256,13,14
 133 699 133 699 138 715 c 128,-1,15
 143 731 143 731 155 750.5 c 128,-1,16
 167 770 167 770 189 786 c 128,-1,17
 211 802 211 802 247 802 c 0,18,19
 311 802 311 802 340 739 c 128,-1,20
 369 676 369 676 369 538 c 2,21,-1
 369 477 l 2,22,23
 369 446 369 446 313 446 c 0,24,25
 286 446 286 446 274 457.5 c 128,-1,26
 262 469 262 469 262 480 c 2,27,-1
 262 529 l 2,28,29
 262 581 262 581 259 613 c 128,-1,30
 256 645 256 645 250 663 c 128,-1,31
 244 681 244 681 234.5 687.5 c 128,-1,32
 225 694 225 694 211 694 c 0,33,34
 190 694 190 694 174.5 674.5 c 128,-1,35
 159 655 159 655 149 622 c 128,-1,36
 139 589 139 589 134.5 544.5 c 128,-1,37
 130 500 130 500 130 449 c 2,38,-1
 130 491 l 2,39,40
 130 476 130 476 122.5 467 c 128,-1,41
 115 458 115 458 105 453.5 c 128,-1,42
 95 449 95 449 84.5 447.5 c 128,-1,43
 74 446 74 446 67 446 c 0,0,1
42 697 m 0,44,45
 45 697 45 697 47 709 c 128,-1,46
 49 721 49 721 51 736 c 128,-1,47
 53 751 53 751 54 763.5 c 128,-1,48
 55 776 55 776 55 777 c 0,49,50
 55 779 55 779 54.5 782 c 128,-1,51
 54 785 54 785 52 785 c 0,52,53
 47 785 47 785 43.5 777.5 c 128,-1,54
 40 770 40 770 38 760.5 c 128,-1,55
 36 751 36 751 35 741.5 c 128,-1,56
 34 732 34 732 34 729 c 0,57,58
 34 721 34 721 36 709 c 128,-1,59
 38 697 38 697 42 697 c 0,44,45
299 475 m 0,60,61
 299 481 299 481 297 484 c 128,-1,62
 295 487 295 487 292.5 489 c 128,-1,63
 290 491 290 491 288 495 c 128,-1,64
 286 499 286 499 286 506 c 0,65,66
 286 522 286 522 284.5 526 c 128,-1,67
 283 530 283 530 278 530 c 256,68,69
 273 530 273 530 271.5 522.5 c 128,-1,70
 270 515 270 515 270 505 c 0,71,72
 270 485 270 485 276 473 c 128,-1,73
 282 461 282 461 290 461 c 0,74,75
 293 461 293 461 296 464.5 c 128,-1,76
 299 468 299 468 299 475 c 0,60,61
66 472 m 0,77,78
 66 477 66 477 63.5 479.5 c 128,-1,79
 61 482 61 482 58 484.5 c 128,-1,80
 55 487 55 487 52.5 491 c 128,-1,81
 50 495 50 495 50 502 c 0,82,83
 50 523 50 523 43 523 c 0,84,85
 41 523 41 523 39 515.5 c 128,-1,86
 37 508 37 508 37 497 c 0,87,88
 37 482 37 482 43.5 470 c 128,-1,89
 50 458 50 458 58 458 c 0,90,91
 60 458 60 458 63 462 c 128,-1,92
 66 466 66 466 66 472 c 0,77,78
EndSplineSet
EndChar

StartChar: uni090F
Encoding: 2319 2319 102
Width: 516
Flags: W
LayerCount: 2
Fore
SplineSet
335 -10 m 0,0,1
 290 -10 290 -10 253.5 11.5 c 128,-1,2
 217 33 217 33 191 73 c 128,-1,3
 165 113 165 113 150.5 168.5 c 128,-1,4
 136 224 136 224 136 292 c 0,5,6
 136 364 136 364 152 424.5 c 128,-1,7
 168 485 168 485 196.5 529.5 c 128,-1,8
 225 574 225 574 264.5 598.5 c 128,-1,9
 304 623 304 623 350 623 c 0,10,11
 384 623 384 623 412.5 610 c 128,-1,12
 441 597 441 597 461 573.5 c 128,-1,13
 481 550 481 550 491.5 518.5 c 128,-1,14
 502 487 502 487 500 450 c 0,15,16
 498 407 498 407 480 366.5 c 128,-1,17
 462 326 462 326 432 295 c 128,-1,18
 402 264 402 264 362.5 245.5 c 128,-1,19
 323 227 323 227 278 227 c 0,20,21
 261 227 261 227 261 213 c 0,22,23
 261 149 261 149 283.5 118.5 c 128,-1,24
 306 88 306 88 341 88 c 0,25,26
 367 88 367 88 384.5 107 c 128,-1,27
 402 126 402 126 402 155 c 0,28,29
 402 179 402 179 415 193.5 c 128,-1,30
 428 208 428 208 448 208 c 0,31,32
 471 208 471 208 484.5 189.5 c 128,-1,33
 498 171 498 171 498 139 c 0,34,35
 498 109 498 109 485 81.5 c 128,-1,36
 472 54 472 54 450 34 c 128,-1,37
 428 14 428 14 398 2 c 128,-1,38
 368 -10 368 -10 335 -10 c 0,0,1
205 477 m 0,39,40
 208 477 208 477 217.5 491.5 c 128,-1,41
 227 506 227 506 240 523.5 c 128,-1,42
 253 541 253 541 268 556.5 c 128,-1,43
 283 572 283 572 298 573 c 0,44,45
 303 574 303 574 307.5 576.5 c 128,-1,46
 312 579 312 579 311 582 c 0,47,48
 311 592 311 592 298 590 c 0,49,50
 281 589 281 589 263.5 576 c 128,-1,51
 246 563 246 563 231.5 545.5 c 128,-1,52
 217 528 217 528 208 510 c 128,-1,53
 199 492 199 492 200 481 c 0,54,55
 202 474 202 474 205 477 c 0,39,40
258 315 m 0,56,57
 261 311 261 311 272 311 c 0,58,59
 298 311 298 311 322 324 c 128,-1,60
 346 337 346 337 364 357 c 128,-1,61
 382 377 382 377 393 403 c 128,-1,62
 404 429 404 429 404 454 c 0,63,64
 404 486 404 486 388.5 507 c 128,-1,65
 373 528 373 528 350 528 c 0,66,67
 333 528 333 528 318.5 513.5 c 128,-1,68
 304 499 304 499 292.5 477.5 c 128,-1,69
 281 456 281 456 273 429.5 c 128,-1,70
 265 403 265 403 260.5 379.5 c 128,-1,71
 256 356 256 356 255 338 c 128,-1,72
 254 320 254 320 258 315 c 0,56,57
192 467 m 0,73,74
 187 466 187 466 184 459.5 c 128,-1,75
 181 453 181 453 182 445 c 0,76,77
 184 436 184 436 186 437 c 0,78,79
 191 437 191 437 195 446 c 128,-1,80
 199 455 199 455 197 462 c 0,81,82
 195 468 195 468 192 467 c 0,73,74
178 0 m 1,83,-1
 5 0 l 1,84,-1
 5 64 l 1,85,-1
 178 64 l 1,86,-1
 178 0 l 1,83,-1
EndSplineSet
EndChar

StartChar: uni0906
Encoding: 2310 2310 114
Width: 706
Flags: W
LayerCount: 2
Fore
SplineSet
189 0 m 1,0,-1
 6 0 l 1,1,-1
 6 64 l 1,2,-1
 189 64 l 1,3,-1
 189 0 l 1,0,-1
EndSplineSet
Refer: 67 97 S 1 0 0 1 130.859 0 2
EndChar

StartChar: uni0907
Encoding: 2311 2311 119
Width: 370
Flags: W
LayerCount: 2
Fore
SplineSet
195 0 m 1,0,-1
 8 0 l 1,1,-1
 8 64 l 1,2,-1
 195 64 l 1,3,-1
 195 0 l 1,0,-1
EndSplineSet
Refer: 75 105 S 1 0 0 1 158.203 0 2
EndChar

